<svg id="a21488c4-3b90-41af-a92f-7d39379539e2" data-name="aa84af91-0702-4b62-89c3-2dfa5ff16184" xmlns="http://www.w3.org/2000/svg" width="865.76" height="682.89" viewBox="0 0 865.76 682.89"><path d="M287.34,216s-62.52,69.54-63.53,77.57c0,0-8.83,12.77,14.81,25.94l36.57,26.92,20.65-22.53L285,251.47S282.32,220.68,287.34,216Z" fill="#008E5E" data-secondary="true"></path><polygon points="282.52 246.42 284.59 227.44 286.6 248.44 282.52 246.42" opacity="0.4" style="isolation:isolate"></polygon><rect x="407.87" y="651.27" width="65.26" height="6.14" rx="2.6" transform="translate(-13 8.94) rotate(-1.15)" fill="#373660"></rect><path d="M637.94,620.94l-2.19-23.53,20.33-4.81,1.8,22.54S648.88,625.26,637.94,620.94Z" fill="#fed0bc"></path><path d="M609.07,652.59l56-20.94-6-16.14a1.51,1.51,0,0,0-1.73-1A4.37,4.37,0,0,0,654,617a4.27,4.27,0,0,1-2.87,2.66c-1.81.44-4.33.29-6.63-2.46,0,0-6.42-6.64-9.45,2.18l-9.5,18.54A9.72,9.72,0,0,1,619,643C615.05,643.84,609.75,646.14,609.07,652.59Z" fill="#008E5E" data-secondary="true"></path><rect x="606.03" y="641.7" width="65.23" height="6.14" rx="2.6" transform="translate(-185.36 264.49) rotate(-20.5)" fill="#373660"></rect><path d="M708.79,614.68l-2.19-23.52,20.33-4.82,1.8,22.55S719.73,619,708.79,614.68Z" fill="#fed0bc"></path><path d="M679.92,646.33l56-20.94-6-16.13a1.51,1.51,0,0,0-1.73-1,4.35,4.35,0,0,0-3.29,2.41,4.26,4.26,0,0,1-2.87,2.67,6.33,6.33,0,0,1-6.63-2.46s-6.42-6.65-9.45,2.17l-9.5,18.54a9.73,9.73,0,0,1-6.63,5.13C685.9,637.58,680.6,639.89,679.92,646.33Z" fill="#008E5E" data-secondary="true"></path><rect x="676.88" y="635.45" width="65.23" height="6.14" rx="2.6" transform="translate(-178.68 288.91) rotate(-20.5)" fill="#373660"></rect><path d="M809.66,387.17H577.55V46.46H809.66ZM583.8,380.92H803.42V52.7H583.8Z" fill="#ebebeb"></path><rect x="690.4" y="54.34" width="6.24" height="329.71" fill="#ebebeb"></rect><rect x="571.89" y="59.09" width="243.44" height="8.69" fill="#ebebeb"></rect><rect x="571.89" y="68.86" width="243.44" height="8.69" fill="#ebebeb"></rect><rect x="571.89" y="78.65" width="243.44" height="8.69" fill="#ebebeb"></rect><rect x="571.89" y="88.43" width="243.44" height="8.69" fill="#ebebeb"></rect><rect x="571.89" y="98.21" width="243.44" height="8.69" fill="#ebebeb"></rect><rect x="571.89" y="107.99" width="243.44" height="8.69" fill="#ebebeb"></rect><rect x="571.89" y="117.78" width="243.44" height="8.69" fill="#ebebeb"></rect><rect x="571.89" y="127.55" width="243.44" height="8.69" fill="#ebebeb"></rect><rect x="571.89" y="137.34" width="243.44" height="8.69" fill="#ebebeb"></rect><rect x="795.22" y="57.32" width="1.56" height="200.42" fill="#263238"></rect><polygon points="798.77 265 793.23 265 794.63 257.04 797.39 257.04 798.77 265" fill="#263238"></polygon><rect x="800.84" y="57.32" width="1.56" height="274.32" fill="#263238"></rect><polygon points="804.4 337.5 798.86 337.5 800.25 329.54 803.01 329.54 804.4 337.5" fill="#263238"></polygon><rect x="562.19" y="45.24" width="262.82" height="18.19" fill="#dbdbdb"></rect><path d="M610.14,395.37s-2.06,100.59,9,138.48l13.49,77.34L659,600.58c-1.37-14,.62-14.48-2.5-30.62a491.22,491.22,0,0,0-12.82-51.27q6.71-37.17,13.39-74.34l6-30.86L617.79,392Z" fill="#373660"></path><path d="M610.14,395.37s-2.06,100.59,9,138.48l15.12,76.61L659,600.58c-1.37-14,.62-14.48-2.5-30.62a491.22,491.22,0,0,0-12.82-51.27q6.71-37.17,13.39-74.34l6-30.86L617.79,392Z" opacity="0.2" style="isolation:isolate"></path><path d="M617.79,392s3.23,26.66,34.65,37.36L703.57,598.6,731,590.87c-3.35-16.37-3.49-21.64-9.63-40.61-4.44-13.68-9.21-26.37-14.07-38,4.07-12.14,6.42-36.93,4.44-68.39-2.21-35-13.26-71.69-48.66-78.27Z" fill="#373660"></path><path d="M348.56,194s-12.11,2.25-1.05,8.37l5.77,1.15-.26-6.8Z" fill="#008E5E" data-secondary="true"></path><path d="M348.56,194s-12.11,2.25-1.05,8.37l5.77,1.15-.26-6.8Z" opacity="0.4" style="isolation:isolate"></path><path d="M382.5,200.78s12,6.32,13.76,9.62c0,0-3.36.23-7.94,3.84A34.81,34.81,0,0,1,382.5,200.78Z" fill="#008E5E" data-secondary="true"></path><rect x="229.81" y="27.21" width="205.99" height="126.93" fill="#54B292" data-primary="true"></rect><g opacity="0.2"><rect x="263.87" y="74.7" width="6.14" height="66.62"></rect><rect x="283.72" y="57.22" width="4.72" height="84.1"></rect><rect x="306.63" y="110.37" width="4.72" height="30.95"></rect><rect x="334.74" y="99.27" width="5.43" height="42.05"></rect><rect x="368.29" y="77.3" width="5.67" height="64.02"></rect><rect x="400.41" y="55.09" width="5.2" height="86.23"></rect></g><path d="M438.91,228.22s18.72,41.24,11.37,97.65l-7.36,88H419.47l3.39-22s-5.73-69.09-4-82C418.88,310,422.74,249.35,438.91,228.22Z" fill="#008E5E" data-secondary="true"></path><path d="M423.51,269s-14.54,54.28-5,99.65l10.57,3L427.43,310Z" opacity="0.4" style="isolation:isolate"></path><path d="M398.55,600.5l16.13,40.25s11.62,2.24,18-6.73l-12.61-36.7Z" fill="#fed0bc"></path><path d="M472.66,651.74,409.75,653l-.35-18.12a1.59,1.59,0,0,1,1.32-1.61,4.59,4.59,0,0,1,4.16,1.09,4.48,4.48,0,0,0,3.83,1.49c2-.27,4.35-1.4,5.54-5,0,0,3.7-9,10.09-1.54l16.47,14.46a10.26,10.26,0,0,0,8.47,2.45C463.42,645.5,469.49,645.7,472.66,651.74Z" fill="#008E5E" data-secondary="true"></path><path d="M296.53,581.51l3.22,42s10.12,5.46,18.67-1l-1-37.7Z" fill="#fed0bc"></path><path d="M297.94,612.11s-3,12.73-6.91,18.28c-3.32,4.78-2.09,7.77,2.67,10.62,5.22.59,12.78.41,23.65-.82,4-3.2,6.6-6,3.88-10.19-1.92-3.86-1.78-17.42-1.78-17.42Z" fill="#008E5E" data-secondary="true"></path><path d="M297.94,612.11s-3,12.73-6.91,18.28c-3.32,4.78-2.09,7.77,2.67,10.62,5.22.59,12.78.41,23.65-.82,4-3.2,6.6-6,3.88-10.19-1.92-3.86-1.78-17.42-1.78-17.42Z" opacity="0.4" style="isolation:isolate"></path><path d="M306.26,623.3c-9.71,0-17.58,6.35-17.58,14.19h35.16C323.84,629.65,316,623.3,306.26,623.3Z" fill="#008E5E" data-secondary="true"></path><rect x="286.85" y="637.07" width="37.51" height="6.28" rx="2.6" transform="translate(-12.74 6.24) rotate(-1.15)" fill="#373660"></rect><polygon points="517.26 538.52 502.76 658.67 517.59 658.67 531.63 553.91 603.07 553.91 617.12 658.67 632.61 658.67 618.57 538.52 517.26 538.52" fill="#008E5E" data-secondary="true"></polygon><polygon points="517.26 538.52 502.76 658.67 517.59 658.67 531.63 553.91 603.07 553.91 617.12 658.67 632.61 658.67 618.57 538.52 517.26 538.52" opacity="0.4" style="isolation:isolate"></polygon><path d="M477.9,619.19l-9-21.85,18-10.55,8.31,21S489.63,620.13,477.9,619.19Z" fill="#fed0bc"></path><path d="M459.54,657.9,507,621.5l-10.48-13.66a1.51,1.51,0,0,0-1.94-.42,4.42,4.42,0,0,0-2.44,3.28,4.26,4.26,0,0,1-2,3.38c-1.61.95-4.06,1.54-7.06-.41,0,0-8.08-4.48-8.41,4.84L471,639a9.79,9.79,0,0,1-4.84,6.84C462.7,647.78,458.31,651.54,459.54,657.9Z" fill="#54B292" data-primary="true"></path><rect x="452.92" y="638.78" width="65.23" height="6.14" rx="2.6" transform="translate(-290.36 428.07) rotate(-37.49)" fill="#373660"></rect><polygon points="414.68 377.14 436.88 623.3 407.29 623.3 360.63 463.16 370.48 437.32 375.03 395.37 414.68 377.14" fill="#373660"></polygon><polygon points="379.62 458.57 398.76 594 360.63 463.16 370.7 435.28 373.67 407.91 379.62 458.57" opacity="0.2" style="isolation:isolate"></polygon><path d="M309.64,388.66s-18.07,77.24-20.8,155.77a72.9,72.9,0,0,0,.13,7.39l5.7,51.44h27.68s21.4-102.76,49.82-165.94l4.64-41.95Z" fill="#373660"></path><path d="M502.76,451.55H442s-37.21,6.23-16,48.81l37.21,101,32.07-7L469.5,488.93l45-19.69Z" fill="#373660"></path><path d="M502.76,451.55H442s-37.21,6.23-16,48.81l37.21,101,32.07-7L469.5,488.93l45-19.69Z" opacity="0.2" style="isolation:isolate"></path><path d="M386.85,623.65l11.73-20.52,19.4,7.75L406.5,630.37S393.32,633.47,386.85,623.65Z" fill="#fed0bc"></path><path d="M345,633l57.91,15,4.33-16.67a1.51,1.51,0,0,0-.86-1.78,4.34,4.34,0,0,0-4.08.09,4.29,4.29,0,0,1-3.88.53c-1.74-.69-3.7-2.26-4-5.83,0,0-1.43-9.12-9-3.65L367,630.41a9.73,9.73,0,0,1-8.36.39C355,629.23,349.3,628.07,345,633Z" fill="#54B292" data-primary="true"></path><rect x="370.6" y="610.97" width="6.14" height="65.23" rx="2.6" transform="translate(-343.29 843.08) rotate(-75.41)" fill="#373660"></rect><path d="M352.91,193.81l2,51.17,16.3,18.84,19.61-24.46,3.45-18.56s-16.47-12.3-11.75-37.08Z" fill="#fed0bc"></path><path d="M381.29,185.71s-8,23.31-27.6,28.36L353,196.7Z" fill="#f4a57f"></path><path d="M438.91,228.22,422.86,392s-74.45,12.45-113.68-3.29c0,0-35.88-157-21.84-172.66,0,0,32.14-9,46.9-10A4.13,4.13,0,0,0,338,203a11.38,11.38,0,0,1,10.39-9c-1.35.24-8.67,1.82-1.47,7.1a8.34,8.34,0,0,0,3.27,1.43c3.35.69,11.3,2.6,17,6.23,3.52,2.24,6.19,5.13,6.42,8.79a40.74,40.74,0,0,1-.66,10.1,15,15,0,0,1-.65,2.17v.11l-.06.16v0a7.29,7.29,0,0,1-1.59,2.46,9.55,9.55,0,0,0-2.63,3.7,24,24,0,0,0-.78,13.34,2,2,0,0,0,3.74.2c1.27-3.79,3.63-8.37,7.92-10.81a7,7,0,0,0,3.31-4.77c.31-1.64.64-3.78.88-6.27v-.13h0c.1-1.08.18-2.23.23-3.43v-.67a14.47,14.47,0,0,1,.66-2.59v-.12a16.14,16.14,0,0,1,7.17-8.92h0c.35-.19.71-.37,1.09-.55a16.9,16.9,0,0,1,4-1.19Z" fill="#008E5E" data-secondary="true"></path><polygon points="528.58 218.74 527.08 207.8 524.06 206.8 519.71 206.8 517.87 210.84 525.73 220.18 528.58 218.74" fill="#f4a57f"></polygon><path d="M527.11,190.26s-11.91.51-13,17.23l3.08-6.38s3-6,7.07-6.51l2.89.29Z" fill="#f4a57f"></path><path d="M344.19,307.94l2.39,9.21L365,320.38S349.54,307.94,344.19,307.94Z" fill="#f4a57f"></path><path d="M426,407.91l3.12-37.67a3.86,3.86,0,0,1,3.79,3.93c0,.1,0,.21,0,.31s3.12-5.13,6.69-.45l29.24-34.33,7.37,32.13L458.5,405l-9.18-1.11.11,4Z" fill="#54B292" data-primary="true"></path><path d="M426,407.91l3.12-37.67a3.86,3.86,0,0,1,3.79,3.93c0,.1,0,.21,0,.31s3.12-5.13,6.69-.45l29.24-34.33,7.37,32.13L458.5,405l-9.18-1.11.11,4Z" opacity="0.2" style="isolation:isolate"></path><path d="M601.72,464.79s21.5,44.91-41.33,57.89L472,524.76a19.76,19.76,0,0,1-8.78,9.87l-48.14,88.88-24.8-9.6L422.8,493.09s2.6-19.66,23.37-23.85l59.2-12.51,23.87-9.33Z" fill="#373660"></path><path d="M655.37,350.26l4.51-2.82-.53-3.46-2.75.66c-.26.07-3.81,5.29-3.81,5.29Z" fill="#f4a57f"></path><path d="M548.13,279.11,578,262.5l-2.41,25.07-5.32,12.57a6.62,6.62,0,0,1-3.49,3.49l-9.6,4.07h0C557.32,306.64,560,293.49,548.13,279.11Z" fill="#008E5E" data-secondary="true"></path><path d="M529.41,176.55s-14.72,49.62,24.74,91.51c0,0-21.07-29-21.07-48.38,0,0,26.42,36.44,53.83,34.43,0,0,33,92.25,61.43,95.16a5.8,5.8,0,0,0,3.09-.57c6.35-3,31.36-17.51,23.75-53.8,0,0-8.69-38.45-38.78-61.52,0,0,38.78,15.72,43.13,77.57a7.08,7.08,0,0,0,2.67-6.68s2.77-53.75-46.47-78.91a53.49,53.49,0,0,1,39.12,33.77s3.43-24-42.47-41.46l-24.74-5.35s7.36-57.17-39.12-63.86C568.52,148.46,538.1,142.78,529.41,176.55Z"></path><polygon points="187.65 154.84 187.65 27.21 56.38 154.84 187.65 154.84" fill="#008E5E" data-secondary="true"></polygon><polygon points="187.65 154.84 187.65 27.21 56.38 154.84 187.65 154.84" opacity="0.2" style="isolation:isolate"></polygon><polygon points="74.93 45.75 74.93 136.81 163.29 131.93 168.58 45.75 74.93 45.75" fill="none" stroke="#fff" stroke-miterlimit="10"></polygon><polygon points="56.38 27.21 56.38 154.84 179.65 147.93 187.65 27.21 56.38 27.21" fill="#008E5E" data-secondary="true"></polygon><line x1="74.93" y1="62.84" x2="165.99" y2="62.84" fill="none" stroke="#fff" stroke-miterlimit="10"></line><line x1="74.93" y1="80.66" x2="164.92" y2="80.66" fill="none" stroke="#fff" stroke-miterlimit="10"></line><line x1="74.93" y1="97.02" x2="163.93" y2="97.02" fill="none" stroke="#fff" stroke-miterlimit="10"></line><line x1="74.93" y1="113.75" x2="162.92" y2="113.75" fill="none" stroke="#fff" stroke-miterlimit="10"></line><line x1="90.2" y1="45.75" x2="90.2" y2="135.97" fill="none" stroke="#fff" stroke-miterlimit="10"></line><line x1="107.29" y1="45.75" x2="107.29" y2="135.02" fill="none" stroke="#fff" stroke-miterlimit="10"></line><line x1="124.75" y1="45.75" x2="124.75" y2="134.06" fill="none" stroke="#fff" stroke-miterlimit="10"></line><line x1="141.47" y1="45.75" x2="141.47" y2="133.14" fill="none" stroke="#fff" stroke-miterlimit="10"></line><polygon points="47.29 39.94 53.84 48.3 82.2 30.12 76.66 19.84 47.29 39.94" fill="#373660"></polygon><polygon points="75.08 45.47 75.08 137.09 162.31 132.02 167.38 45.47 75.08 45.47" fill="none" stroke="#fff" stroke-miterlimit="10"></polygon><polygon points="93.92 247.94 97.66 213.17 131.67 217.28 128.31 251.67 93.92 247.94" fill="#54B292" data-primary="true"></polygon><polygon points="90.93 221.02 108.97 209.38 112.8 215 94.89 226.44 90.93 221.02" fill="#008E5E" data-secondary="true"></polygon><polygon points="50.08 236.38 45.29 201.72 79.96 196.76 85.63 230.85 50.08 236.38" fill="#54B292" data-primary="true"></polygon><polygon points="50.08 236.38 79.96 196.76 45.29 201.72 50.08 236.38" opacity="0.2" style="isolation:isolate"></polygon><polygon points="40.76 206.15 58.8 194.51 62.63 200.13 44.72 211.57 40.76 206.15" fill="#008E5E" data-secondary="true"></polygon><polygon points="40.76 206.15 58.8 194.51 62.63 200.13 44.72 211.57 40.76 206.15" fill="#008E5E" data-secondary="true"></polygon><polygon points="40.76 206.15 58.8 194.51 62.63 200.13 44.72 211.57 40.76 206.15" opacity="0.4" style="isolation:isolate"></polygon><path d="M603.49,90.13h-56.9A13.89,13.89,0,0,0,532.71,104v19a13.89,13.89,0,0,0,13.88,13.87H582l3.9,6.5a4.26,4.26,0,0,0,5.84,1.44,4.42,4.42,0,0,0,1-.89l6-7h4.76A13.87,13.87,0,0,0,617.36,123h0V104A13.88,13.88,0,0,0,603.49,90.13Z" fill="#54B292" data-primary="true"></path><circle cx="552.09" cy="114.4" r="6.87" fill="#fff"></circle><circle cx="574.55" cy="114.4" r="6.87" fill="#008E5E" data-secondary="true"></circle><circle cx="597.98" cy="114.4" r="6.87" fill="#fff"></circle><path d="M115.05,514.61c6.15-3.17,13.39-3.58,20.22-2.45,3.67.6,7.52,1.7,10,4.51s3,7.61.11,10a9.65,9.65,0,0,1-6.31,1.6c-5.35,0-11.27-1-15.54,2.21-2.45,1.83-4.06,4.89-7,5.79A6.87,6.87,0,0,1,109,532.9a11.76,11.76,0,0,1-.86-8.69A13.25,13.25,0,0,1,115.05,514.61Z" fill="#008E5E" data-secondary="true"></path><path d="M101,487.41c3.75,5.37,11.06,3.59,14.46.31s4.81-8,6.12-12.57c3-10.36,6-21.22,3.78-31.77a17.71,17.71,0,0,0-4.06-8.63,9.22,9.22,0,0,0-8.74-2.91c-3.69,1-6,4.52-7.64,8a75.73,75.73,0,0,0-7.52,32.49c0,5.24.59,10.73,3.55,15" fill="#008E5E" data-secondary="true"></path><path d="M90.62,495.11c4.08-4.85,4.86-11.91,3-18.05A34.77,34.77,0,0,0,83,461.6a57.47,57.47,0,0,0-19.06-11.26,20.5,20.5,0,0,0-8.58-1.5,9,9,0,0,0-7.21,4.36c-2,3.83-.09,8.48,2,12.27a145.18,145.18,0,0,0,12.53,19.08c3.76,4.84,8.06,9.62,13.79,11.8s11.67,1.94,14.71-2" fill="#008E5E" data-secondary="true"></path><path d="M100.7,568.46a12.58,12.58,0,0,0,.35-2.45c.16-1.78.39-4,.64-6.66a97.86,97.86,0,0,1,1.51-9.78A76.57,76.57,0,0,1,106.76,538a42,42,0,0,1,5.88-10.44,22,22,0,0,1,7.52-6.19,21,21,0,0,1,6.27-2,11,11,0,0,0,2.42-.34,10.21,10.21,0,0,0-2.47,0,18.82,18.82,0,0,0-6.54,1.69,22.06,22.06,0,0,0-8,6.23,41.76,41.76,0,0,0-6,10.63,70.67,70.67,0,0,0-3.52,11.73,82.52,82.52,0,0,0-1.3,9.9c-.22,2.82-.29,5.11-.32,6.7C100.6,566.74,100.77,567.61,100.7,568.46Z" fill="#373660"></path><path d="M101.15,563.33a4.35,4.35,0,0,0,.08-1.14V559c0-2.81,0-6.88.15-11.91.24-10,1.11-20.85,2.78-36.08,1.5-14.33,3.71-31,6-41.87.48-2.46,1-4.69,1.42-6.63s.81-3.62,1.15-5,.58-2.32.77-3.14a4.87,4.87,0,0,0,.2-1.13,5.08,5.08,0,0,0-.39,1.07c-.26.81-.56,1.84-1,3.11s-.84,3-1.32,4.95-1.06,4.15-1.51,6.61a372,372,0,0,0-6.25,38.84c-1.67,15.28-2.43,29.19-2.5,39.26,0,5,0,9.12.18,11.94.09,1.31.15,2.38.2,3.24A5.47,5.47,0,0,0,101.15,563.33Z" fill="#373660"></path><path d="M101.23,536.49a21.19,21.19,0,0,0,0-3.38c-.2-3.07-.54-6.13-1-9.16a120.06,120.06,0,0,0-3-13.37,109.37,109.37,0,0,0-5.58-15.8,84.19,84.19,0,0,0-16.4-25.57,43.63,43.63,0,0,0-3.87-3.58c-.58-.49-1.11-1-1.65-1.4l-1.51-1a21.25,21.25,0,0,0-2.85-1.83,101,101,0,0,1,9.34,8.33,88.32,88.32,0,0,1,16,25.46,125.78,125.78,0,0,1,5.63,15.65,127.9,127.9,0,0,1,3.17,13.23c.74,3.81,1.1,6.92,1.34,9A20.7,20.7,0,0,0,101.23,536.49Z" fill="#373660"></path><polygon points="75.29 583.83 77.98 620.65 125.3 620.65 127.99 583.83 75.29 583.83" fill="#373660"></polygon><rect x="70.72" y="569.3" width="62.92" height="14.51" fill="#373660"></rect><polygon points="70.73 619.24 70.73 623.27 73.68 623.27 132.59 623.27 132.59 619.24 70.73 619.24" fill="#373660"></polygon><polygon points="76.58 630.35 73.68 623.27 130.34 623.27 126.95 630.35 76.58 630.35" fill="#373660"></polygon><path d="M127.1,595.86s0,.13-.22.34-.49.61-.71.93l-2.75,3.58-.12.15-.12-.16-6.81-9.42h.39l-6.63,9.43-.21.3-.23-.28-7.91-9.4h.45l-.43.56-7.07,8.82-.23.3-.22-.31c-2.41-3.39-4.65-6.56-6.66-9.43H88l-8.21,9.44-.15.17-.1-.17c-1.09-1.82-2-3.26-2.57-4.31l-.67-1.16a1.28,1.28,0,0,1-.19-.41,2.42,2.42,0,0,1,.27.36c.19.29.44.67.72,1.12l2.71,4.24h-.26l8.08-9.48.21-.22.18.25,6.73,9.39H94.3l7-9,.44-.54.22-.29.23.29,7.88,9.41h-.44l6.71-9.37.19-.27.2.27,6.63,9.48h-.24L126,597c.31-.34.57-.64.76-.88Z" fill="#fff"></path><path d="M131,623.66c0,.17-12.89.3-28.77.3s-28.78-.13-28.78-.3,12.89-.29,28.78-.29S131,623.51,131,623.66Z" fill="#fff"></path><path d="M415.67,250.53C408.62,251,405.59,236,405.59,236s-.75,13.82,8.06,18.1c0,0-2.77,1.26-5.79-1.51,0,0,10.11,9.56,17.15,4.28Z"></path><path d="M427.26,209s-13.61,8.87-1.26,21.92A15.14,15.14,0,0,1,418.88,218a14.07,14.07,0,0,1,8.06-12.71,10.37,10.37,0,0,1,6.18-.88A14.89,14.89,0,0,0,427.26,209Z"></path><path d="M467.07,300.7l8.06,12.07,24.7-29.48s-8.57-5.55-15.88-19.66c0,0-3.42-7.25-11.29-5.89s-1.05.68-1.05.68l2.48,19.8Z" fill="#fed0bc"></path><path d="M467.07,300.7s8.57-9.1,12.09-18.92l-4,31Z" fill="#f4a57f"></path><path d="M467.07,332.17s-5.21-22.61-.89-26.26c0,0,6.94,1.75,13,10Z" fill="#54B292" data-primary="true"></path><path d="M467.07,332.17s-5.21-22.61-.89-26.26c0,0,6.94,1.75,13,10Z" opacity="0.2" style="isolation:isolate"></path><polygon points="492.34 276.23 497.81 276.23 494.99 279.11 492.34 276.23" fill="#fea74b"></polygon><path d="M474.87,368.37l-7.8-36.21,12.09-16.23,26.21-28.37s96.25,51,100.27,175.4c0,0-28.53,16.49-66.43-4,0,0-21.32-3.12-33.84-2.23,0,0-25-49.16-29.18-80.85C475.86,373.36,475.42,370.85,474.87,368.37Z" fill="#54B292" data-primary="true"></path><path d="M458.5,310l5-4h2.65s-4.17.94.88,26.14C467.07,332.17,461.53,313.77,458.5,310Z" fill="#54B292" data-primary="true"></path><path d="M489.69,420.63s42.91-52.54,46.66-88.46c0,0,6.5,91.68,0,126.4,0,0-20.69-3.18-31-1.84C505.37,456.73,493.59,431.08,489.69,420.63Z" opacity="0.2" style="isolation:isolate"></path><path d="M466.63,330.76s-17.29-16.6-8.13-20.77C458.5,310,461.23,312.77,466.63,330.76Z" fill="#54B292" data-primary="true"></path><path d="M466.63,330.76s-17.29-16.6-8.13-20.77C458.5,310,461.23,312.77,466.63,330.76Z" opacity="0.2" style="isolation:isolate"></path><polygon points="577.11 484.37 587.8 529.39 594.49 529.39 583.79 484.37 577.11 484.37" fill="#008E5E" data-secondary="true"></polygon><polygon points="577.11 484.37 587.8 529.39 594.49 529.39 583.79 484.37 577.11 484.37" opacity="0.4" style="isolation:isolate"></polygon><rect x="298.1" y="235.73" width="7.94" height="292.51" transform="translate(-184.63 398.78) rotate(-53.64)" fill="#a7a9ac"></rect><polygon points="203.21 314.16 331.03 420.17 405.58 463.16 203.21 314.16" fill="#d1d3d4"></polygon><polygon points="229.39 643.57 326.93 413.91 338.67 418.74 236.09 643.57 229.39 643.57" fill="#d1d3d4"></polygon><polygon points="402.14 654.14 341.5 407.2 329.76 408.33 396.17 652.35 402.14 654.14" fill="#d1d3d4"></polygon><path d="M574.21,227.37l5.36,11a26.31,26.31,0,0,1,0,15.71l-6.7,20.73s15-38.45,25.08-36.44a58,58,0,0,0,7.69,0s-9.31-7.25-20-40.91L578.91,199Z" fill="#fed0bc"></path><path d="M589.25,203.5c-4,106,45.47,119.15,45.47,119.15C578.22,311,585.6,197.49,585.6,197.49Z"></path><path d="M605.7,214.67l-.35-.2c-.88-.56-3-13.27-.31-21.06,1.8-5.15,5.29-7.49,10.34-7a6.48,6.48,0,0,1,4.57,4.42c1.44,5.24-3.27,13.17-14,23.55Zm8.35-27.37a7.69,7.69,0,0,0-6.8,3.65c-4.22,6.49-2.24,19.48-1.46,22.33C618.37,201,620,194.43,619.05,191.11a5.56,5.56,0,0,0-3.83-3.74A9.18,9.18,0,0,0,614.05,187.3Z" fill="#54B292" data-primary="true"></path><path d="M619.37,244.52l-.47-.81c5.65-3.19,4.63-9.09,2.77-13.47a26.34,26.34,0,0,0-4.5-7L607.6,213c-6.17,4.73-15.76,1.82-16.17,1.7l.28-.9c.09,0,9.88,3,15.63-1.8l.34-.28,10.18,10.89a27.19,27.19,0,0,1,4.67,7.3C624.54,234.61,625.62,241,619.37,244.52Z" fill="#54B292" data-primary="true"></path><path d="M613.37,214.16a16,16,0,0,1-5.9-1.41l-.54-.21.32-.48c0-.07,4.55-6.59,9.76-3.89a2.32,2.32,0,0,1,1.18,2.6,4.24,4.24,0,0,1-2.21,2.84A5.6,5.6,0,0,1,613.37,214.16Zm-5-2c3.2,1.22,5.61,1.45,7.17.66a3.3,3.3,0,0,0,1.72-2.23,1.35,1.35,0,0,0-.71-1.54c-3.67-2-7.08,1.71-8.16,3.06Z" fill="#54B292" data-primary="true"></path><path d="M572.87,274.84s-18.69,47.51,12.42,76c0,0,18.92,27.1,20.35,46.46,0,0,46.61-19.45,57.42-31.73,0,0-30.14-25.65-28.34-46.47l-2.61-41.43s-14.63-35.29-26.47-39.27l-7.31-.56S587.8,235.2,572.87,274.84Z" fill="#008E5E" data-secondary="true"></path><path d="M595.71,270s5.2,37.82,39,49.11l-2-32.17S603,282,595.71,270Z" opacity="0.4" style="isolation:isolate"></path><path d="M642.9,365.57l2.31-12.66s-6.31,11.8-8.5,14.66a.63.63,0,0,0,.11.88.55.55,0,0,0,.24.12C638.24,368.82,640.36,368.63,642.9,365.57Z" fill="#f4a57f"></path><path d="M552,303.6s3.24,4,5,4.13h0a14.69,14.69,0,0,0,.47-2.87,15.51,15.51,0,0,0,0-2.55Z" fill="#008E5E" data-secondary="true"></path><path d="M552,303.6s3.24,4,5,4.13h0a14.69,14.69,0,0,0,.47-2.87,15.51,15.51,0,0,0,0-2.55Z" opacity="0.4" style="isolation:isolate"></path><path d="M535.42,286.55s10.7-5.72,13.63-6.29c0,0,7.44,6.3,8.44,22l-35.94,10.5s-8.36-3.61-5.52-25.2l7.86-62.88s-13-10.93-9.2-19.34c0,0,6-7.08,9-5.57l9.32,4a1.3,1.3,0,0,1,.69,1.7,1.28,1.28,0,0,1-.78.73,3.53,3.53,0,0,1-1.71.05s-3.84,3-7.18.5l-3.72,3.46a.78.78,0,0,0,0,1.1l0,.05,8.23,7.33s6.18,3.78,6.34,6.29Z" fill="#fed0bc"></path><path d="M514,206.8s3.21-12,10.23-12.2l11.52,1.17s-2,4.33-5.5,2.67c0,0-6.2-2.73-7.7,1.14C522.54,199.58,518.29,200.62,514,206.8Z" fill="#fed0bc"></path><path d="M372.92,227.66c-.26,1-.51,1.76-.65,2.17v.11l-.06.16v.05c-2.63-.39-7.41-7.8-7.41-7.8-6-5.69,2.42-13.58,2.42-13.58,3.52,2.24,6.19,5.13,6.42,8.79A40.74,40.74,0,0,1,372.92,227.66Z" opacity="0.4" style="isolation:isolate"></path><path d="M397,231.43c-4.14.92-12.61-2.8-14-3.43v-.13h0c.1-1.08.18-2.23.23-3.43v-.67a14.47,14.47,0,0,1,.66-2.59v-.12a16.14,16.14,0,0,1,7.17-8.92h0c.35-.19.71-.37,1.09-.55a16.9,16.9,0,0,1,4-1.19c1.66,1,1.85,4.37,1.88,7.07a14.52,14.52,0,0,1-1.21,5.74A10.35,10.35,0,0,0,397,231.43Z" opacity="0.4" style="isolation:isolate"></path><polygon points="290.05 357.38 299.42 342.51 295.84 323.9 275.19 346.43 290.05 357.38" fill="#008E5E" data-secondary="true"></polygon><polygon points="290.05 357.38 299.42 342.51 295.84 323.9 275.19 346.43 290.05 357.38" opacity="0.4" style="isolation:isolate"></polygon><path d="M291.79,354.62s6.63,10.45,17.29,10.78l-2.88,3.87,4.45,3.27,4.76-6.14-2,8.19,8.26,6.09s4.88-6.82,6.36-11.52a9.76,9.76,0,0,0,.36-1.51h5.33s-6,12.67,0,14.37c0,0,5.76-9.79,2.88-18l-37.2-21.47Z" fill="#fed0bc"></path><path d="M436.88,434.47s-.44,11.64-1.61,15.72v3.53s-5.95,3.12-7.75,4.87a8.36,8.36,0,0,1-1.52-5.73s-6.85,1.4-3.58-8.95V430Z" fill="#f4a57f"></path><path d="M663.06,252.77h0c-.12.56-2.09,9.62-4,15.83a39.1,39.1,0,0,0-1.81,11.56,35.48,35.48,0,0,0,.39,5.25,27.36,27.36,0,0,0,1.19,4.9s-60.21-3.92-63.91-22.84c0,0-10-24.42,3.09-29.1,0,0,12.28-.34,19.85,7Z" fill="#008E5E" data-secondary="true"></path><path d="M658.77,290.34s4.07-.43,5.88-9.78l-7.46-.37S657.19,286.75,658.77,290.34Z" fill="#008E5E" data-secondary="true"></path><path d="M658.77,290.34s4.07-.43,5.88-9.78l-7.46-.37S657.19,286.75,658.77,290.34Z" opacity="0.4" style="isolation:isolate"></path><path d="M704.6,298.24c-14.71,34.55-32.83,48.05-32.83,48.05-5.64-1.21-11.89,1.15-11.89,1.15-2.82-5.86-4.58,3.14-4.58,3.14-3.27,2.44-5,8.48-5,8.48-.84,5.43-3.88,3.16-3.88,3.16l3.68-13.82c1.22-9.59,10.81-10,10.81-10,15.38-12.26,28-56.6,28-56.6l-31.74-1.58A39,39,0,0,1,659,268.63c2-6.21,3.93-15.27,4-15.83h0l39.76,10C719.09,267,704.6,298.24,704.6,298.24Z" fill="#fed0bc"></path><path d="M647.94,362.68s-1.79,4.18-5,2.89c0,0,1.91-21.34,8.53-21.42l-5,18.07A1.7,1.7,0,0,0,647.94,362.68Z" fill="#fed0bc"></path><path d="M619.12,543.25h13.44a36.3,36.3,0,0,0,25.3-10,28.92,28.92,0,0,0,9.2-22.57,34.77,34.77,0,0,0-.79-5.83l-11.6-53.29,2.68-13.32,15.16,64.86S679.67,531.76,650,545a36.39,36.39,0,0,1-14.83,3.1H619.69Z" fill="#008E5E" data-secondary="true"></path><path d="M636.72,489.61l-1.25-.48L653,417.08h0A10,10,0,0,1,660.5,429l-12,53a9.85,9.85,0,0,1-11.65,7.64Z" fill="#008E5E" data-secondary="true"></path><path d="M671.74,346.32h0l-39.16,154h0A17.63,17.63,0,0,1,619.82,479l30.46-119.86a17.65,17.65,0,0,1,21.45-12.77Z" fill="#008E5E" data-secondary="true"></path><path d="M671.74,346.32h0l-39.16,154h0A17.63,17.63,0,0,1,619.82,479l30.46-119.86a17.65,17.65,0,0,1,21.45-12.77Z" opacity="0.4" style="isolation:isolate"></path><path d="M513.7,522.77h99.17a15.5,15.5,0,0,1,15.5,15.5h0v.24H498.2v-.24a15.5,15.5,0,0,1,15.5-15.5Z" fill="#008E5E" data-secondary="true"></path><path d="M501.09,474.35h92.45a12.1,12.1,0,0,1,12.1,12.1H489A12.1,12.1,0,0,1,501.09,474.35Z" fill="#008E5E" data-secondary="true"></path><path d="M485,325.87l20.41-38.3s-3.53-7.81-7.56-11.34c0,0-22.63,22.75-34.27,29.8C463.54,306,476.14,306.47,485,325.87Z" fill="#54B292" data-primary="true"></path><ellipse cx="449.31" cy="272.42" rx="22.9" ry="33.9" transform="translate(-70.8 197.76) rotate(-23.06)" fill="#fed0bc"></ellipse><path d="M426,230.88s-21.92-.5-13.1,18.64c0,0,4.22,11.34,16.22,6,0,0,7.46-4.14,9.23-11.64,0,0,3.78,8.37-3,18.44,0,0,7.81-4.28,6-17.13,0,0,12.18,26.49,23.22,22.82a11.59,11.59,0,0,1,3.81-8.76s8-6,15.55,4.33c0,0,14.36-23.18-5.79-46.1,0,0,12.09,2.26,13.6,14.1,0,0,.76-16.88-16.37-17.88,0,0,4.9-2.27,5.34-6,0,0-11.81,7.31-16.14,3.78,0,0-28.51-16.13-37.33-2.52C427.26,209,418.22,219.36,426,230.88Z"></path><path d="M476.19,371.83,458.5,405l-9.18-1.11,1,34.33a2.35,2.35,0,0,0,3.12,0s2.45,3.34,5.12-1.12c0,0,18,5.38,31.17-16.48C489.69,420.63,480.92,400.39,476.19,371.83Z" fill="#54B292" data-primary="true"></path><path d="M455.18,407.91s3.57,18.28,3.34,29.2l4.69.58S460.31,417.27,455.18,407.91Z" opacity="0.2" style="isolation:isolate"></path><path d="M385.32,177.59s7.59,1.81,10.94-1.58c0,0-4-2.95-2-9.1h-7.63Z"></path><ellipse cx="361.22" cy="157.87" rx="27.55" ry="40.66" fill="#fed0bc"></ellipse><ellipse cx="388.78" cy="160.76" rx="7.48" ry="9.07" fill="#fed0bc"></ellipse><path d="M333.67,157.87s-20.56-27.55,0-31.26c0,0-9.44-11.73,0-13.89,0,0,5.42-1.24,14.69,3.08,0,0-7.72-12.65,6.48-14.51,0,0,17.79-3.39,31.89,12.66,0,0-.71-5.55-3.49-7.72,0,0,7.1,4.33,9.57,16.68,0,0,8.65-4,7.41,14.51,0,0-2.12,13.53-5.38,18,0,0-4.49-8-11.9-.36,0,0-7.72-11.81-6.18-21.38,0,0-24.08,13.28-31.18,10.5,0,0,14.2-3.09,19.76-9.88,0,0-21.56,7.9-29.61,7.81C335.73,142.14,333.42,152.4,333.67,157.87Z"></path><path d="M337.94,173a8.9,8.9,0,1,1,8.89-8.91h0A8.91,8.91,0,0,1,337.94,173Zm0-16.86a8,8,0,1,0,8,8,8,8,0,0,0-8-8h0Z" fill="#008E5E" data-secondary="true"></path><path d="M361.49,169.2a8.9,8.9,0,1,1,8.9-8.9h0A8.9,8.9,0,0,1,361.49,169.2Zm0-16.85a8,8,0,1,0,8,8,8,8,0,0,0-8-8Z" fill="#008E5E" data-secondary="true"></path><rect x="369.06" y="155.42" width="14.24" height="0.94" transform="translate(-14.58 41.33) rotate(-6.17)" fill="#008E5E" data-secondary="true"></rect><rect x="345.47" y="159.46" width="7.62" height="0.94" transform="translate(-13.21 32.76) rotate(-5.27)" fill="#008E5E" data-secondary="true"></rect><rect x="336.69" y="153.66" width="21.81" height="0.94" transform="translate(-19.02 53.26) rotate(-8.53)" fill="#008E5E" data-secondary="true"></rect><rect x="300.49" y="217.08" width="10.97" height="317.6" transform="translate(-178.12 399.44) rotate(-53.64)" fill="#d1d3d4"></rect><circle cx="336.62" cy="411.02" r="13.72" fill="#a7a9ac"></circle><path d="M348.35,322.23s5.59,9.9,9,10.71l1.41-7.5Z" fill="#f4a57f"></path><path d="M262.1,297.27s22.61,43.22,70.95,72l28.44-32.53-57.1-66Z" fill="#54B292" data-primary="true"></path><path d="M275.19,260.78s12.44,83.86,57.15,100.74L298.6,272.39Z" fill="#373660"></path><path d="M288.76,256.11s-4.62,56.31,25.85,88c0,0-25.85-62.89-16.85-80.25Z" fill="#54B292" data-primary="true"></path><path d="M288.76,256.11s-4.62,56.31,25.85,88c0,0-25.85-62.89-16.85-80.25Z" opacity="0.2" style="isolation:isolate"></path><path d="M332.34,361.52S320.46,351,314.61,344.07c0,0-34.51-50.39-15.19-86.33l42.32-4S334,311.18,357.35,332Z" fill="#fff"></path><path d="M426.19,405.63s-64.71-46.09-70.57-61.24l1.71-4.69s-1.62-5.68-.61-9.52a9.4,9.4,0,0,0-6.38-7s-17.36-7.53-13.18-11.87l18.46,5.18s11.29-1.51,18,18.72c0,0,10.74,21.23,55.52,36.45Z" fill="#fed0bc"></path><path d="M450.28,438.23s-48.82-12.71-61.3-23c0,0-12.93-4.46-18.72-21.85,0,0-9-21.15-15.28-13.51a1.36,1.36,0,0,1-1.92.13,1.42,1.42,0,0,1-.39-.58c-.81-2.24-1.38-5.55,1.09-7.63,0,0-8.47-1.14-1.78-4.71,0,0-2.68-7.13,8.92-7.58,0,0,5.34-7.13,10.69,0l15.61,12.29,3.93,23.54,5,5.19,53.21,3.34Z" fill="#fed0bc"></path><path d="M360.67,371.83s-.67-4.48,3.79-1.59l6,5.58Z" fill="#f4a57f"></path><path d="M366.7,356.38s2.76-4.64,6.23,1.16l11,11.73-12.35-9.73A8.71,8.71,0,0,0,366.7,356.38Z" fill="#f4a57f"></path><path d="M351.92,364s-7.16-6.8,9-4.44C360.9,359.54,354.26,358.94,351.92,364Z" fill="#f4a57f"></path><path d="M349.88,183.09h2.37a19.66,19.66,0,0,0,2.47-.26c2.26-.3,4.38-.58,5.26,1a3.89,3.89,0,0,1-.21,3.08,6.67,6.67,0,0,1-4.5,3.81,10.26,10.26,0,0,1-2.2.33,7.58,7.58,0,0,1-5.83-2.43,5,5,0,0,1-1.52-3.77,1.84,1.84,0,0,1,1.46-1.63A10.18,10.18,0,0,1,349.88,183.09Z" fill="#f4a57f"></path><path d="M352.3,183.75c3.19-.17,6.18-1.22,7.08.43.65,1.18-.59,6-6.32,6.23-4,.12-6.92-3.17-6.66-5.46C346.59,183.23,349.1,183.93,352.3,183.75Z"></path><path d="M359.38,184.18a1.16,1.16,0,0,1,.12.45c-4.38,3.06-10.51,2.86-12-.77,1.06-.22,2.79,0,4.79-.11C355.49,183.58,358.48,182.53,359.38,184.18Z" fill="#fff"></path><path d="M345,178.11h0l-.21-.19.21-.21c3.3-3.17,5.88-11.39,5.91-11.47l.52.17c-.1.33-2.54,8.09-5.83,11.48a6,6,0,0,0,3.24,1.41v.55A6.82,6.82,0,0,1,345,178.11Z" fill="#f4a57f"></path><path d="M435.1,291.74h-.3v-.29c.58-4.55-2.57-12.56-2.6-12.64l.51-.2c.13.32,3.1,7.89,2.67,12.6a6.14,6.14,0,0,0,3.41-.94l.33.45A6.78,6.78,0,0,1,435.1,291.74Z" fill="#f4a57f"></path><path d="M335.58,153.42a8.75,8.75,0,0,1,3.71-3.74c1.14-.59,2.32-.89,2.84,0,0,0,1,.86-6.71,4.08Z"></path><path d="M366.23,149.94a8.8,8.8,0,0,0-3.93-3.51c-1.17-.52-2.37-.75-2.83.13,0,0-1,.92,6.93,3.67Z"></path><path d="M431.06,268.54a8.75,8.75,0,0,0-5.16-1.07c-1.28.14-2.43.53-2.39,1.53,0,0-.36,1.28,7.85-.3Z"></path><path d="M362.79,160.32c0,1.34-.72,2.4-1.6,2.4s-1.56-1.1-1.54-2.44.72-2.38,1.6-2.38S362.81,159,362.79,160.32Z"></path><path d="M430.59,273.07c.3,1.31-.17,2.5-1,2.7s-1.77-.72-2-2,.16-2.49,1-2.68S430.31,271.78,430.59,273.07Z"></path><path d="M439.8,267.7a8.87,8.87,0,0,1,4.44-2.83c1.25-.32,2.46-.36,2.78.58,0,0,.79,1.07-7.44,2.51Z"></path><path d="M446.3,271c.3,1.31-.17,2.5-1,2.7s-1.76-.72-2-2,.17-2.49,1-2.68S446,269.66,446.3,271Z"></path><path d="M340.43,164c0,1.32-.72,2.38-1.6,2.38s-1.56-1.1-1.54-2.42.72-2.4,1.6-2.4S340.45,162.67,340.43,164Z"></path><path d="M443.21,294.33c.45-.2.94-.42,1.44-.69s1-.57,1.44-.86c1.3-.82,2.51-1.6,3.51-.86a2.6,2.6,0,0,1,.75,1.94,4.49,4.49,0,0,1-1.66,3.61,7,7,0,0,1-1.25.83,5.15,5.15,0,0,1-4.26.18,3.44,3.44,0,0,1-2-1.87,1.25,1.25,0,0,1,.43-1.42A7.25,7.25,0,0,1,443.21,294.33Z" fill="#f4a57f"></path><path d="M444.87,294c1.9-1,3.44-2.51,4.46-1.76.73.54,1.35,3.85-2.09,5.61-2.42,1.22-5.14,0-5.63-1.43C441.23,295.35,443,295.06,444.87,294Z"></path><path d="M449.79,293.12a4.25,4.25,0,0,1-2.55,4.77,4.7,4.7,0,0,1-3.49.31A6.41,6.41,0,0,1,449.79,293.12Z"></path><path d="M449.33,292.28a1.16,1.16,0,0,1,.2.24c-1.81,3.12-5.61,4.75-7.55,3,.58-.44,1.71-.79,2.89-1.43C446.77,293,448.31,291.53,449.33,292.28Z" fill="#fff"></path><ellipse cx="472.66" cy="268.06" rx="8.07" ry="10.32" fill="#fed0bc"></ellipse><path d="M575,229.12l3.45,7s5.54-12.51,3.06-24.49Z" fill="#f4a57f"></path><path d="M571.21,233a16.16,16.16,0,0,1-12.67-.33c-.22-.09-.45-.18-.68-.29a23.72,23.72,0,0,1-3.63-2,27.7,27.7,0,0,1-2.7-2l-.56-.47a40.16,40.16,0,0,1-10.29-14.55c-6.5-15.27-3.38-31.23,7-35.64s24,4.4,30.53,19.67S581.57,228.59,571.21,233Z" fill="#fed0bc"></path><ellipse cx="579.57" cy="192.15" rx="5.35" ry="8.69" transform="translate(-18.43 315.53) rotate(-30)" fill="#fed0bc"></ellipse><path d="M538.59,183.22s11.63,14.74,37,8.93c0,0-22.69,3-28.92-7.38,0,0,20,7.77,26.9,2.07l-4-14L543.78,171Z"></path><path d="M548.89,223.21h-.29v-.29c.57-4.55-2.58-12.56-2.61-12.64l.51-.2c.13.32,3.11,7.89,2.68,12.6a6,6,0,0,0,3.4-.94l.34.45A6.8,6.8,0,0,1,548.89,223.21Z" fill="#f4a57f"></path><path d="M544.86,200a8.79,8.79,0,0,0-5.17-1.07c-1.27.14-2.42.54-2.38,1.53,0,0-.36,1.28,7.84-.3Z"></path><path d="M544.38,204.54c.3,1.31-.16,2.5-1,2.7s-1.77-.72-2-2,.17-2.49,1-2.68S544.11,203.25,544.38,204.54Z"></path><path d="M553.59,199.18a8.81,8.81,0,0,1,4.45-2.84c1.24-.32,2.46-.36,2.77.59,0,0,.8,1.06-7.43,2.5Z"></path><path d="M557,225.8a13.61,13.61,0,0,0,1.45-.69c.45-.27,1-.57,1.44-.86,1.29-.82,2.51-1.6,3.5-.86a2.56,2.56,0,0,1,.75,1.94,4.46,4.46,0,0,1-1.66,3.61,5.78,5.78,0,0,1-1.25.83A5.09,5.09,0,0,1,557,230a3.41,3.41,0,0,1-2-1.87,1.22,1.22,0,0,1,.43-1.41A6.53,6.53,0,0,1,557,225.8Z" fill="#f4a57f"></path><path d="M558.67,225.51c1.9-1,3.43-2.51,4.45-1.75.73.53,1.36,3.84-2.09,5.6-2.41,1.23-5.13,0-5.63-1.43C555,226.82,556.77,226.53,558.67,225.51Z"></path><path d="M563.58,224.59a4.25,4.25,0,0,1-2.55,4.77,4.7,4.7,0,0,1-3.49.31A6.42,6.42,0,0,1,563.58,224.59Z"></path><path d="M563.12,223.76a.74.74,0,0,1,.2.23c-1.8,3.12-5.61,4.75-7.54,2.95.58-.44,1.7-.79,2.89-1.43C560.57,224.5,562.1,223,563.12,223.76Z" fill="#fff"></path><path d="M560.09,202.42c.3,1.31-.16,2.5-1,2.7s-1.77-.72-2.05-2,.17-2.49,1-2.68S559.81,201.13,560.09,202.42Z"></path></svg>