<svg xmlns="http://www.w3.org/2000/svg" viewBox="0 0 335.49 527.59"><defs><style>.cls-1{fill:#fed0bc;}.cls-2{fill:#008e5e;}.cls-3{fill:#373660;}.cls-4{fill:#ff6d60;}.cls-5{opacity:0.4;}.cls-10,.cls-5,.cls-9{isolation:isolate;}.cls-6{fill:#f4a57f;}.cls-10,.cls-7{fill:#fff;}.cls-8{opacity:0.2;}.cls-10{font-size:31.93px;font-family:Poppins-Bold, Poppins;font-weight:700;}</style></defs><title>cources</title><g id="Layer_2" data-name="Layer 2"><g id="a5d855c5-9413-4673-8bef-50488bfe6ccf"><path class="cls-1" d="M89.57,481.94l-.75,20.47s-11,6.82-21,.18L67,482.92Z"/><path class="cls-2" d="M22.57,520.49l68.54-2.88-.83-19.74a1.73,1.73,0,0,0-1.55-1.66,5,5,0,0,0-4.44,1.46,4.93,4.93,0,0,1-4.08,1.89c-2.14-.18-4.82-1.24-6.35-5,0,0-4.64-9.53-11.09-1l-17,16.83a11.16,11.16,0,0,1-9.05,3.23C32.22,513.08,25.61,513.71,22.57,520.49Z"/><rect class="cls-3" x="19.25" y="519.08" width="74.83" height="7.05" rx="2.6" ry="2.6" transform="translate(-21.83 2.83) rotate(-2.4)"/><path class="cls-1" d="M102.93,482.34l2.13,20.35s11.39,6,20.93-1.25l-.5-19.68Z"/><path class="cls-2" d="M172.38,516.27,103.81,518l-.51-19.75a1.73,1.73,0,0,1,1.43-1.76,5,5,0,0,1,4.53,1.16,4.91,4.91,0,0,0,4.2,1.6c2.12-.31,4.72-1.56,6-5.46,0,0,4-9.83,11-1.74l18.07,15.64a11.17,11.17,0,0,0,9.25,2.61C162.22,509.53,168.88,509.71,172.38,516.27Z"/><rect class="cls-3" x="101.09" y="517.13" width="74.83" height="7.05" rx="2.6" ry="2.6" transform="translate(-13.31 3.72) rotate(-1.47)"/><rect class="cls-4" x="241.68" y="380.28" width="12.62" height="103.42"/><rect class="cls-5" x="241.68" y="380.28" width="12.62" height="103.42"/><rect class="cls-4" x="240.86" y="382.02" width="14.81" height="10.24"/><rect class="cls-4" x="240.86" y="456.28" width="14.81" height="27.43"/><path class="cls-4" d="M196.83,507a9.06,9.06,0,1,1-9.06-9.06h0A9.06,9.06,0,0,1,196.83,507Z"/><polygon class="cls-4" points="187.93 506.48 241.13 483.98 241.13 463.41 187.64 497.42 187.93 506.48"/><path class="cls-4" d="M299.66,507a9,9,0,1,0,0-.11S299.66,507,299.66,507Z"/><polygon class="cls-4" points="308.56 506.48 255.35 483.98 255.35 463.41 308.85 497.42 308.56 506.48"/><path class="cls-4" d="M256.88,507a9,9,0,1,1,0-.11S256.88,507,256.88,507Z"/><polygon class="cls-4" points="250.3 507.3 245.36 507.3 240.79 462.31 254.87 462.31 250.3 507.3"/><path class="cls-4" d="M281.46,352,238.84,199.81a17,17,0,0,0-16.33-12.4h-77a12,12,0,0,1-1.5,6l53.62,169,137.46-.41Z"/><path class="cls-4" d="M145.86,187.41h0a11.15,11.15,0,0,1,10.82,8.47l41,166.55H183.52c-5.32,0-8.89,7.91-10.15,2.75L135,201.18a11.14,11.14,0,0,1,10.82-13.77Z"/><path class="cls-5" d="M145.86,187.41h0a11.15,11.15,0,0,1,10.82,8.47l41,166.55H183.52c-5.32,0-8.89,7.91-10.15,2.75L135,201.18a11.14,11.14,0,0,1,10.82-13.77Z"/><path class="cls-4" d="M335.49,362v15.5a7.91,7.91,0,0,1-7.9,7.92H181.47a7.93,7.93,0,0,1-7.92-7.92V366a4,4,0,0,1,4-4Z"/><path class="cls-5" d="M335.49,362v15.5a7.91,7.91,0,0,1-7.9,7.92H181.47a7.93,7.93,0,0,1-7.92-7.92V366a4,4,0,0,1,4-4Z"/><path class="cls-4" d="M335.49,362v15.5a7.91,7.91,0,0,1-7.9,7.92H263a9.06,9.06,0,0,1-9-9.07v-9.23a5.12,5.12,0,0,1,5.11-5.12Z"/><polygon class="cls-5" points="335.1 362.04 197.65 361.9 281.46 352.03 335.1 362.04"/><rect class="cls-2" x="182.02" y="267.74" width="108.28" height="89.23" transform="translate(-39.96 34.7) rotate(-7.75)"/><path class="cls-3" d="M95.22,487.74,92.52,303l5.7,185.21h33.84c2.2-35.35,12.76-192.93,11.1-223.43,0,0-1.52-20.67-7.84-40.29H50.22c-3.41,8.58-8.65,24.89-8,42.82.83,23,17.2,183.87,20.2,220.69Z"/><path class="cls-1" d="M116,87.52a41.09,41.09,0,0,1,.09-10.43h0a8.76,8.76,0,0,1,1.32-3.65L103.22,64.7l-16,3.76c.49,1,.82,4.91.84,6.41l-.11-2.59A63.49,63.49,0,0,1,86.51,85.2c-1.31,5.05-2.94,9.33-2.94,9.33l16.64,6.5,17.2-3.84S116.54,92.71,116,87.52Z"/><path class="cls-6" d="M87.78,70.06s9.75,10.1,28.84,5C116.62,75.09,100.22,92.86,87.78,70.06Z"/><path class="cls-7" d="M84.42,91s15.07,13.64,32.68,2.38c0,0,9,5.23,17.13,5.71l-3,71.54-2.71,31.24,10.15,29.67s-58.85,10.31-90.45-6.17l12.69-33s-2.7-84.23-5.56-94.54A154.22,154.22,0,0,0,84.42,91Z"/><path class="cls-2" d="M204.7,177.66,168,177s-12.39-62-19.67-70.42-31.53-18.73-32.3-19L118.11,90h.36a13.17,13.17,0,0,1,6.91,3.85,17,17,0,0,1,11.23,8.34,39.61,39.61,0,0,1,4.1,2.62c4,3,4.07,7.95,0,11-1.54,1.12-3.07,2.19-4.66,3.24l-1.89,1.23a3.74,3.74,0,0,1-.4.4,15.18,15.18,0,0,1,1,2.55c1.25,4.57-.11,9.25-1.58,13.55-2,5.71-1.84,11.18-2.53,17.11-.54,4.79-1.8,9.7-.11,14.39a5.23,5.23,0,0,1-1,5.69,89.21,89.21,0,0,0,7.55,18,11.06,11.06,0,0,1,8.48-4.31H207.9Z"/><g class="cls-8"><path d="M166.69,177.49a4.29,4.29,0,0,1-1.86,1.53,4.2,4.2,0,0,1-2.37.37,4.19,4.19,0,0,1,1.85-1.53A4.25,4.25,0,0,1,166.69,177.49Z"/><path d="M167.54,177.91a2.18,2.18,0,1,1-1,1.31A2.15,2.15,0,0,1,167.54,177.91Z"/></g><path class="cls-1" d="M225.69,184.89a16.47,16.47,0,0,0-4.22-2.33s-7.94-5.14-16.77-4.9h-.09c-.31,0-1.47.07-3.32.13-.34,3.25-.86,6.52-1.36,9.77h5c1.84,1.52,9.27,7.53,11.85,7.9,3,.43-.84-6.34-.84-6.34s3.38-1.27,5.71-.85,11,2.56,11,2.56S229.71,186,225.69,184.89Z"/><path class="cls-2" d="M116.8,93.5s-.54-1.41-.76-6l28.65,16.69-14.27,91.54L149.14,266s-17.77,6.5-37.91,2.22L105.68,177Z"/><g class="cls-8"><path d="M116.14,87.41c3.67,2.57,7.26,5.24,10.83,7.93s7.08,5.48,10.46,8.45c.84.74,1.67,1.51,2.46,2.32a16.31,16.31,0,0,1,1.15,1.31,3.16,3.16,0,0,1,.48.88,1.33,1.33,0,0,1,.08.61,3.29,3.29,0,0,1-.14.54,8.31,8.31,0,0,1-2.31,2.73c-.88.74-1.79,1.41-2.71,2.06a119.9,119.9,0,0,1-11.58,6.91l.07-1a54.5,54.5,0,0,1,6.85,5.44,6.17,6.17,0,0,1,1.43,2,1.32,1.32,0,0,1,0,1l-.25.48-.5,1-2,3.83-8,15.32c-5.37,10.18-10.74,20.37-16.27,30.48,5-10.38,10.18-20.68,15.34-31l7.85-15.4,2-3.85.49-1,.25-.48c0,.07,0,.09,0,0a5.29,5.29,0,0,0-1.15-1.47,56.82,56.82,0,0,0-6.64-5.34h0a.6.6,0,0,1-.15-.84h0a.61.61,0,0,1,.21-.18,118.74,118.74,0,0,0,11.49-6.75,32.25,32.25,0,0,0,2.65-2,8,8,0,0,0,2-2.28,2,2,0,0,0,.08-.27v-.21a2.29,2.29,0,0,0-.32-.58,13.14,13.14,0,0,0-1-1.24c-.74-.8-1.54-1.58-2.36-2.33-3.27-3-6.74-5.84-10.2-8.67S119.66,90.16,116.14,87.41Z"/><path d="M133.06,182.14c.26-3.64.66-7.25,1.08-10.87s.92-7.22,1.44-10.82,1.1-7.19,1.77-10.77,1.31-7.16,2.27-10.68l-1.31,10.83c-.44,3.61-1,7.21-1.48,10.81s-1.09,7.19-1.73,10.77S133.84,178.58,133.06,182.14Z"/><path d="M107.22,183.2l3,27.74c1,9.24,1.94,18.49,3.07,27.71.52,4.62,1.07,9.23,1.72,13.83.33,2.29.68,4.59,1.1,6.86.22,1.13.45,2.27.74,3.37a9.39,9.39,0,0,0,.51,1.55,1.23,1.23,0,0,0,.15.27h.07c.27,0,.52.06.8.07,4.58,0,9.25-.46,13.86-.85s9.26-.85,13.9-1.27c-4.6.71-9.22,1.3-13.83,1.89a131.18,131.18,0,0,1-14,1.21,5,5,0,0,1-.94-.06c0,.06-.64-.21-.67-.36a2.41,2.41,0,0,1-.3-.47,11.72,11.72,0,0,1-.63-1.73c-.32-1.15-.56-2.3-.78-3.44-.45-2.3-.82-4.6-1.17-6.9-.69-4.61-1.28-9.23-1.84-13.85-1-9.25-2-18.5-2.77-27.77S107.78,192.49,107.22,183.2Z"/></g><path class="cls-2" d="M84.88,91s1.16-.18,1.7-5.76l-32,11.23s-3.33,36.8-2.22,48.54,7.77,46.79,7.77,46.79l-25.06,69s27.92,14.75,48.7,7.93c0,0,14.27-82.48,14.59-90.25S84.88,91,84.88,91Z"/><g class="cls-8"><path d="M86.11,85.28c-3.24,3.08-6.49,6.16-9.68,9.29S70,100.83,67,104.11c-.75.82-1.49,1.66-2.17,2.52a11.76,11.76,0,0,0-.95,1.31,2.83,2.83,0,0,0-.32.62c-.05.09,0,.15,0,.22a.36.36,0,0,0,.08.26,7.89,7.89,0,0,0,2.05,2.28c.84.71,1.73,1.36,2.64,2a122.25,122.25,0,0,0,11.5,6.75.6.6,0,0,1,.27.81h0a.63.63,0,0,1-.18.21h0a57.66,57.66,0,0,0-6.72,5.31,5.29,5.29,0,0,0-1.15,1.47h0l.25.48.49,1,2,3.85,7.85,15.4c5.17,10.31,10.34,20.61,15.35,31-5.54-10.11-10.9-20.3-16.28-30.48l-8-15.32-2-3.83-.5-1L71,128.5a1.32,1.32,0,0,1,0-1,6.17,6.17,0,0,1,1.43-2,56,56,0,0,1,6.85-5.44l.07,1a119.9,119.9,0,0,1-11.58-6.91c-.92-.65-1.84-1.33-2.71-2.07a8.35,8.35,0,0,1-2.32-2.73,4,4,0,0,1-.13-.55,1.43,1.43,0,0,1,.08-.6,3.71,3.71,0,0,1,.44-.87,16.66,16.66,0,0,1,1-1.38c.73-.87,1.49-1.7,2.27-2.51,3.12-3.24,6.37-6.32,9.68-9.34S82.71,88.18,86.11,85.28Z"/><path d="M96.69,184c-2.09,9.9-4.37,19.75-6.75,29.58S85,233.24,82.35,243c-1.38,4.87-2.8,9.73-4.41,14.54a57.79,57.79,0,0,1-2.77,7.14,8.86,8.86,0,0,1-.5.88,2.22,2.22,0,0,1-.89.85,5.43,5.43,0,0,1-2.08.31,25.75,25.75,0,0,1-3.85-.37c-10-1.75-19.7-4.75-29.32-7.86,4.87,1.33,9.75,2.65,14.67,3.83S63,264.69,68,265.39a27.44,27.44,0,0,0,3.7.27,4.73,4.73,0,0,0,1.64-.24c.24-.09.61-.73.87-1.24a60.9,60.9,0,0,0,2.65-7c1.55-4.8,2.93-9.66,4.28-14.52,2.77-9.72,5.29-19.5,7.87-29.28Z"/></g><path class="cls-1" d="M97.22,134.62l-4.3,1.46c-1.64.51-3.89,1.37-5.17,1.81-.77.23-1.7.56-2.59.89l-.06-.16,3.46-1.24A53.78,53.78,0,0,0,94,135c1.41-.69,2.54-1.28,3.62-1.78,2.26-1,1-3.57-1.4-2.73-.82.29-2.72,1.1-4.3,1.73-1.77.72-3.36,1.29-4.59,1.71s-2.59.89-3.75,1.32l-.06-.11a11.28,11.28,0,0,1,1.44-.59c2.11-.87,3.94-1.66,5.29-2.24a39.45,39.45,0,0,0,4.07-2.1c2.19-1.28,1.21-3.55-1.31-2.58-.66.27-2.54,1-4.22,1.65s-3.81,1.55-5.08,2.06c-.91.32-2.05.79-3.07,1.23s-2.22.83-3.62,1.32a4.25,4.25,0,0,1,2.1-2.91c2.72-1.87,4.44-3.81,3.53-5.09-1.09-1.51-2.82.1-5.74,2.12-3.88,2.7-8,5.86-10,10.55h0c-2.35,3.49,1.09,9.48,3.68,9.64,3.67.23,11.24-1.29,15.27-2.74a23.54,23.54,0,0,0,2.6-.6c1.79-.54,3.67-1.21,4.9-1.68a23.8,23.8,0,0,0,4.14-2.05c1.76-1.34.44-2.94-1.51-2.06a30.83,30.83,0,0,1-3.69,1.4c-1.41.4-3.35,1-4.45,1.18l-.95.2a16.46,16.46,0,0,1,1.94-.72c2.14-.78,4-1.47,5.39-2a42.92,42.92,0,0,0,4.16-1.9C100.59,136.09,99.73,133.77,97.22,134.62Z"/><path class="cls-2" d="M53,96.12c-4.6,2.06-53.77,41.4-53,60s19.66,16.82,24,16.18,48.06-21.73,48.06-21.73l-2.38-16.18-8.47,1.54s1.24-1.13,3.13-2.93a6.5,6.5,0,0,1-.95-.73A5.44,5.44,0,0,1,62,125.61a7.89,7.89,0,0,1-2.27-2.43,7.77,7.77,0,0,1-.5-6.77c-4.6-3.39-5.53-9.68.45-14.85,3.65-3.16,5.09-4.72,9.84-6.15C73.46,90.5,79.81,88,86,86l.61-.77S57.61,94.06,53,96.12Z"/><g class="cls-8"><path d="M69.4,134.34c-2.6.89-5.23,1.65-7.87,2.38s-5.29,1.4-7.95,2.05-5.33,1.24-8,1.76l-4,.78c-1.35.21-2.7.47-4.06.65,1.3-.46,2.61-.84,3.92-1.26l4-1.12c2.64-.75,5.29-1.4,7.95-2s5.33-1.23,8-1.76S66.68,134.72,69.4,134.34Z"/><path d="M38.74,138.41a10.38,10.38,0,0,1,3.81,0,10.15,10.15,0,0,1,3.59,1.26,11.42,11.42,0,0,1-7.4-1.27Z"/><path d="M54.39,158.66a67.82,67.82,0,0,1,8.5-4.8,65.32,65.32,0,0,1,9.05-3.65,65.91,65.91,0,0,1-8.5,4.8A66.59,66.59,0,0,1,54.39,158.66Z"/></g><ellipse class="cls-1" cx="105.05" cy="40.72" rx="27.31" ry="38.1"/><path d="M111.22,40.56c-.17,2.11.53,3.89,1.56,4s2-1.57,2.17-3.68-.53-3.89-1.57-4S111.39,38.41,111.22,40.56Z"/><path d="M98.78,39.58c-.16,2.11-1.13,3.75-2.17,3.67s-1.73-1.86-1.56-4,1.14-3.76,2.17-3.67S98.95,37.46,98.78,39.58Z"/><path d="M144.07,87.9c-.8-3.88-2.76-7.41-4.68-10.89s-3.69-6.82-4.4-10.58c5.61-6.92,9-16.55,8-28.94a40.46,40.46,0,0,0-8.1-21.6c-13.2-17.35-38-21.38-55-7.68a44.12,44.12,0,0,0-12.18,16.2c-5.89,12.8-4.66,23.43.07,31.85a18.85,18.85,0,0,1-1.63,4c-3.64,6.59-10.81,10.79-13.93,17.65-2.63,5.77-1.86,12.37.53,18.38l.26-.14c4.47-2,31.78-10.38,33.48-10.9h.09A64.25,64.25,0,0,0,88,72.86h0c0-.15-.21-2.59-.23-2.74-4-4.27-7.27-10.41-9.14-19.33-1.4-.08-3.81.61-4.22.42-1.76-.84-.25-2.92-1.18-4.62-.71-1.31.55-.4.6-1.87,0-.41.9-.66,1-1.05.05-.2.68.13.74-.08s-.38.37-.29.15c1.1-2.71-1.71-6.67,1.19-5.69.29.09,1.1-1.17,1.65-.81a64.76,64.76,0,0,0,3.09,6.37l.42-5.92c5.5-1.16,4.81-15.49,10.52-19.14s9.52.64,9.52.64,8.86,15,23.3,15.36c.77,2.42,1.72,4.87,2.63,5.83l-2.16,5.53a66,66,0,0,0,6.34-5.15c2.94-.36,5.64,2.05,6.29,4.83a8.05,8.05,0,0,1-1.56,6.6c-.17.22-.36.43-.55.65a7.25,7.25,0,0,1-.62.62,9.77,9.77,0,0,1-3.72,2.2c-.24.07-.67-.41-1.41-.37-1.59,6.59-6.93,16-13.62,19.79h0a14.57,14.57,0,0,0-.48,2h0A41.55,41.55,0,0,0,116,87.51h0c.73.32,16.7,7.18,26.57,14.16A25.59,25.59,0,0,0,144.07,87.9Z"/><ellipse class="cls-1" cx="76.16" cy="44.21" rx="5.4" ry="7.64"/><ellipse class="cls-1" cx="133.02" cy="48.25" rx="7.64" ry="5.4" transform="translate(62.88 171.14) rotate(-80.22)"/><g class="cls-9"><text class="cls-10" transform="translate(197.15 309.56) rotate(-7.85)">JOIN </text><text class="cls-10" transform="translate(212.56 339.64) rotate(-7.85)">US !</text></g><path d="M91,29.84a10.6,10.6,0,0,1,5.41-4.05c1.57-.49,3.13-.59,3.64.69,0,0,1.13,1.42-9.3,3.72Z"/><path class="cls-6" d="M108.14,46.76h0l.29-.13-.14-.28c-2.2-4.41-1.84-13.66-1.84-13.75h-.59c0,.38-.35,9.11,1.76,13.75a6.52,6.52,0,0,1-3.79.25l-.18.57A7.4,7.4,0,0,0,108.14,46.76Z"/><path class="cls-6" d="M107.53,53.68c-.5.08-1.06.17-1.66.22s-1.19,0-1.77.06c-1.61,0-3.12,0-3.58,1.24a2.75,2.75,0,0,0,.44,2.14,4.71,4.71,0,0,0,3.53,2.24,6.92,6.92,0,0,0,1.58,0,5.4,5.4,0,0,0,3.86-2.27,3.57,3.57,0,0,0,.7-2.8,1.31,1.31,0,0,0-1.18-1A6.79,6.79,0,0,0,107.53,53.68Z"/><path d="M105.9,54.41c-2.26.19-4.46-.25-4.93,1-.34.89,1,4.17,5,3.75,2.83-.3,4.55-2.89,4.15-4.47C109.86,53.46,108.16,54.19,105.9,54.41Z"/><path class="cls-7" d="M101,55.41a.78.78,0,0,0,0,.32c3.37,1.72,7.66,1,8.34-1.7-.76-.06-2,.27-3.37.38C103.64,54.56,101.44,54.12,101,55.41Z"/></g></g></svg>