<svg id="a72c5dbb-a84c-4323-8272-804a76f591eb" data-name="Layer 1" xmlns="http://www.w3.org/2000/svg" width="865.76" height="682.89" viewBox="0 0 865.76 682.89"><polygon points="318.36 165.62 318.36 37.99 187.09 165.62 318.36 165.62" fill="#008e5e" data-secondary="true"></polygon><polygon points="318.36 165.62 318.36 37.99 187.09 165.62 318.36 165.62" opacity="0.2"></polygon><polygon points="205.63 56.53 205.63 147.59 293.99 142.72 299.28 56.53 205.63 56.53" fill="none" stroke="#fff" stroke-miterlimit="10"></polygon><rect x="443.58" y="87.71" width="398.03" height="276.35" fill="#" data-primary="true"></rect><rect x="443.58" y="87.71" width="398.03" height="276.35" opacity="0.2"></rect><rect x="454.38" y="96.24" width="373.58" height="246.78" fill="#" data-primary="true"></rect><rect x="470.11" y="231" width="144.05" height="102.35" fill="#fff" opacity="0.2"></rect><path d="M281.9,470.12s6,2.07,7,4.35c0,0,4.77,6.84,6,7.88,0,0,3.53,4.14,5.18,19.69l2,25.78a111.36,111.36,0,0,0,2.7,17.22l16,67.44-7.25,5-9.33-5s-7-23-12-27.33l-15.2-106.74Z" fill="#fed0bc"></path><path d="M293.12,587.31l-13.8-99.14h0a12.34,12.34,0,0,1,7.47,9.84C289.48,519.27,296.93,581.42,293.12,587.31Z" fill="#f4a57f"></path><path d="M286,630.46c-1-13.49-10.94-33.53-15.44-42a55.66,55.66,0,0,0-3.7-6c-9.3-13.13-15.61-31.94-18.15-40.38a13.78,13.78,0,0,1,.14-8.31,126,126,0,0,0,5.44-26.34l20.73-35.65s9.95,13.06,9.74,25.28c0,0,3.73,71.09,8.7,87.88l12.44,55.54Z" fill="#fed0bc"></path><path d="M288.49,629.55s-7.45-6.17-7.63.91c0,0-.91,9.63,0,15.45l52.32.9a12.8,12.8,0,0,1,3-1.94Z" fill="#" data-primary="true"></path><path d="M295.75,622.47a12.65,12.65,0,0,1,6-6.6s.93-8.48,4.19-6.12l8.34,4.91s16-17.26,19.26-12.9c0,0,3.64,5.27-3.09,14.9,0,0,18.62,14.22,22.8,14.77,0,0-34.06-5-40.06-6.24C313.19,625.19,299.57,620.65,295.75,622.47Z" fill="#" data-primary="true"></path><path d="M280.86,645.91s-3.46,4,0,6.36h74.85a6.14,6.14,0,0,0-4-6.36,58,58,0,0,1-15.81-1.09l-2.72,2Z" fill="#373660"></path><path d="M295.75,622.47s-7.65,3.57-3.09,11.32c0,0,.73,3.26,11.81,3.15,0,0,13.84,3.21,21.37,4.64,0,0,14.54,6.25,25.87,4.33,0,0,10.32,1.8,14.09-4.42a4.74,4.74,0,0,0-.91-6.06c-1.9-1.69-5.48-3.58-12.09-4.06l-39.61-6.18S300.3,620.65,295.75,622.47Z" fill="#373660"></path><path d="M509.48,103.06h99.05a2.79,2.79,0,0,1,2.79,2.79V211.33A10.29,10.29,0,0,1,601,221.62H517a10.29,10.29,0,0,1-10.29-10.29V105.84A2.79,2.79,0,0,1,509.48,103.06Z" fill="#fff" opacity="0.2"></path><path d="M604.74,148.69H654.6a3.35,3.35,0,0,1,3.35,3.35V233a4.51,4.51,0,0,1-4.51,4.51H605.9a4.51,4.51,0,0,1-4.51-4.51V152A3.35,3.35,0,0,1,604.74,148.69Z" fill="#fff"></path><path d="M604.18,148.69h51a2.79,2.79,0,0,1,2.79,2.79v6.6a0,0,0,0,1,0,0H601.39a0,0,0,0,1,0,0v-6.6A2.79,2.79,0,0,1,604.18,148.69Z" fill="#008e5e" data-secondary="true"></path><rect x="606.58" y="163.2" width="17.82" height="20.04" fill="#008e5e" data-secondary="true"></rect><rect x="606.58" y="163.2" width="17.82" height="20.04" opacity="0.5"></rect><rect x="632.92" y="163.2" width="20.04" height="20.04" fill="#008e5e" data-secondary="true"></rect><rect x="632.92" y="163.2" width="20.04" height="20.04" opacity="0.4"></rect><rect x="606.48" y="188.31" width="17.82" height="20.04" fill="#008e5e" data-secondary="true"></rect><rect x="606.48" y="188.31" width="17.82" height="20.04" opacity="0.3"></rect><rect x="632.82" y="188.31" width="20.04" height="20.04" fill="#008e5e" data-secondary="true"></rect><rect x="632.82" y="188.31" width="20.04" height="20.04" fill="#ff99a3" opacity="0.2"></rect><rect x="606.48" y="212.77" width="17.82" height="20.04" fill="#008e5e" data-secondary="true"></rect><rect x="606.48" y="212.77" width="17.82" height="20.04" opacity="0.1"></rect><rect x="632.82" y="212.77" width="20.04" height="20.04" fill="#008e5e" data-secondary="true"></rect><rect x="632.82" y="212.77" width="20.04" height="20.04" fill="#fff" opacity="0.2"></rect><path d="M659.66,333l-29-59.57a3.75,3.75,0,0,1,1.72-5l39.15-19.15a3.73,3.73,0,0,1,5,1.72l28.82,59.17a3.74,3.74,0,0,1-1.68,5l-38.92,19.55A3.75,3.75,0,0,1,659.66,333Z" fill="#373660"></path><path d="M662.29,327.5l-26.67-51.78a1.49,1.49,0,0,1,.66-2l36.56-18.13a1.5,1.5,0,0,1,2,.69L700,308.05a1.49,1.49,0,0,1-.66,2l-35,18.12A1.49,1.49,0,0,1,662.29,327.5Z" fill="#fff"></path><path d="M688.73,318.94s16,90.6,21.72,103.87c0,0,35.63,132.68,33,174,0,0,5.69,2.65,17.82,0,0,0,12.88-62.17,8.71-74.3,0,0-4.72-5.6-11.19-12a35.37,35.37,0,0,1-10.4-24.22l-1.15-47.52-25.79-124.5A75.83,75.83,0,0,1,688.73,318.94Z" fill="#373660"></path><path d="M688.73,318.94s16,90.6,21.72,103.87c0,0,35.63,132.68,33,174,0,0,5.69,2.65,17.82,0,0,0,12.88-62.17,8.71-74.3,0,0-4.72-5.6-11.19-12a35.37,35.37,0,0,1-10.4-24.22l-1.15-47.52-25.79-124.5A75.83,75.83,0,0,1,688.73,318.94Z" opacity="0.2"></path><path d="M730,306.43s12.65,25.78,26.68,34.12c0,0,18.95,12.51,4.55,49.28,0,0-14.79,70.13-25.4,92.5a17.08,17.08,0,0,0-1.52,16.3s14.79,32.6,1.52,50.42l-25.4,49.66-17.06-5.31s16.68-76.2,13.27-94c0,0,4.17-95.15,1.14-125.1,0,0-9.1-16.49-14.41-54.49C693.39,319.8,716.92,323.52,730,306.43Z" fill="#373660"></path><path d="M721.36,190.89s3.12,13.67-1.15,21.63c0,0-7.05,14.21,2.3,14.21,0,0,14.26,4.6,22.72-18.76,0,0-8.46-12.72-5.37-39.76a8.7,8.7,0,0,1-4.36-.77S735.88,183.14,721.36,190.89Z" fill="#fed0bc"></path><path d="M707.17,117.75h99.05a2.79,2.79,0,0,1,2.79,2.79V138.4a10.29,10.29,0,0,1-10.29,10.29H714.67a10.29,10.29,0,0,1-10.29-10.29V120.54A2.79,2.79,0,0,1,707.17,117.75Z" fill="#fff" opacity="0.2"></path><ellipse cx="205.36" cy="643.03" rx="9" ry="9.24" fill="#008e5e" data-secondary="true"></ellipse><ellipse cx="205.36" cy="643.03" rx="9" ry="9.24" opacity="0.3"></ellipse><rect x="202.88" y="630.46" width="2.89" height="4.19" fill="#008e5e" data-secondary="true"></rect><ellipse cx="203.44" cy="643.03" rx="9" ry="9.24" fill="#008e5e" data-secondary="true"></ellipse><rect x="63.1" y="630.46" width="2.89" height="4.19" fill="#008e5e" data-secondary="true"></rect><ellipse cx="65.58" cy="643.03" rx="9" ry="9.24" fill="#008e5e" data-secondary="true"></ellipse><ellipse cx="65.58" cy="643.03" rx="9" ry="9.24" opacity="0.3"></ellipse><ellipse cx="181.32" cy="642.18" rx="9" ry="9.24" fill="#008e5e" data-secondary="true"></ellipse><path d="M134.3,614.17l49.78,16.29s-.56-7.58,0-8.14-49.66-9.84-49.66-9.84Z" fill="#008e5e" data-secondary="true"></path><path d="M134.3,614.17l49.78,16.29s-.56-7.58,0-8.14-49.66-9.84-49.66-9.84Z" opacity="0.3"></path><rect x="130.79" y="545.62" width="7.27" height="23.25" fill="#008e5e" data-secondary="true"></rect><polygon points="174.03 554.58 170.4 532.3 170.4 532.3 163.73 532.3 142.29 532.3 142.29 521.27 126.07 521.27 126.07 546.71 142.29 546.71 142.29 536.54 163.13 536.54 160.59 554.58 174.03 554.58" fill="#008e5e" data-secondary="true"></polygon><polygon points="174.03 554.58 170.4 532.3 170.4 532.3 163.73 532.3 142.29 532.3 142.29 521.27 126.07 521.27 126.07 546.71 142.29 546.71 142.29 536.54 163.13 536.54 160.59 554.58 174.03 554.58" opacity="0.3"></polygon><rect x="368.73" y="424.45" width="12.41" height="227.82" fill="#008e5e" data-secondary="true"></rect><rect x="459.93" y="424.42" width="12.41" height="227.82" fill="#008e5e" data-secondary="true"></rect><g opacity="0.3"><rect x="368.73" y="424.45" width="12.41" height="227.82"></rect><rect x="459.93" y="424.42" width="12.41" height="227.82"></rect></g><path d="M68.29,341.05s-49.78,5.81-43.24,54.14c0,0-5.45,72.67,64.68,114.82,0,0,55.59,36.7,124.27,2.54,0,0,49.24-20.86,46-61.86A48.64,48.64,0,0,0,250,425c-12-15.65-43-53.55-71.43-65.35Z" fill="#008e5e" data-secondary="true"></path><path d="M63.34,442.87s-24.41-19.16-38.28-47.68c0,0-11.19-44.67,45.13-54.14l109,18.64s28.07,7.24,73.81,68.24c0,0,31.51,51.2-38.19,84.62l-37.59-15.62s-42-5.09-50.73-12C126.51,484.94,76.81,462.94,63.34,442.87Z" opacity="0.4"></path><path d="M178.75,435.7c-32.15,10.18-52.68,49.24-52.68,49.24-30.52-14.27-47.4-26.7-55.62-33.81a40.7,40.7,0,0,1-10.58-14.27c-12.37-28-10.11-64-10.11-64C52.85,334.69,93.55,326,93.55,326a164,164,0,0,1,34.29.63,64.08,64.08,0,0,1,30.28,12.9c3.06,2.38,6.75,5.39,10.82,9a24.66,24.66,0,0,1,7.81,23,51.43,51.43,0,0,1-1.15,5.06Z" fill="#" data-primary="true"></path><polygon points="54.24 633.79 54.24 626.53 126.31 597.94 142.54 597.94 214.36 626.04 214.36 633.79 144.48 615.26 125.7 615.26 54.24 633.79" fill="#008e5e" data-secondary="true"></polygon><path d="M239.07,523.45s20.53-10.11,36-49.59a42.71,42.71,0,0,1,3.51,5,20.57,20.57,0,0,0,7.33-11L176.39,435.34s-31.07,9.45-50.32,49.6c0,0,10.17,7.45,50.5,12Z" fill="#373660"></path><path d="M205.76,394.22l1.7,2.79a5.42,5.42,0,0,1,5.09-3.52l137.71-.07,21.34-15a2.25,2.25,0,0,0,.55,1.52l-9.45,6.9,1.82,2.09,9.17-6.81c1.28,1.45,4.27,1.18,4.27,1.18l7.72,11h7l-9.81-14.17c1.45-1.63.63-4.8.63-4.8l8.14-5.73a1.36,1.36,0,0,0,.37-1.82h0a1.36,1.36,0,0,0-2-.36l-7.71,5.9a5.16,5.16,0,0,0-1.5-1.38l26.48-18.64-4.36-3.51H226l-67.58,48.15,1.27,2.92Z" fill="#d1d3d4"></path><path d="M76.12,349.69c-6.22-1.55-14.9-1.34-22.49,7.42,0,0-5.87,9-3.8,31.82,0,0,9.6,13.52,14.55,16.22H84.5s-4-20,25.06-28.1a10.45,10.45,0,0,1-7.29-4.17,116.51,116.51,0,0,0-14.18-16.56A27.52,27.52,0,0,0,76.12,349.69Z" fill="#" data-primary="true"></path><path d="M76.12,349.69c-6.22-1.55-14.9-1.34-22.49,7.42,0,0-5.87,9-3.8,31.82,0,0,9.6,13.52,14.55,16.22H84.5s-4-20,25.06-28.1a10.45,10.45,0,0,1-7.29-4.17,116.51,116.51,0,0,0-14.18-16.56A27.52,27.52,0,0,0,76.12,349.69Z" opacity="0.2"></path><path d="M118.79,405.15H84.5s-3.63-20.64,25.06-28.1l32.73.76s31.74-3,37.55-6.24c0,0,9.45-9.81,14.72-13.44l3.79-10s8.56-4.91,11.65-9.09a4.16,4.16,0,0,1,1.27,5.45s-1.27,2.64-3.36,2.82a10.42,10.42,0,0,0,6.63-3.09,2.65,2.65,0,0,1,2.09-.27l11.43,1.68a.7.7,0,0,1,.51,1.05c-.73,1.25-2.53,3.24-6.46,2.48l-4.28.46a5.09,5.09,0,0,0-2.35.87l-4,2.78,4.13-1.22a3.43,3.43,0,0,1,.71-.14l7.69-.73-61.85,44.07S133.44,406.38,118.79,405.15Z" fill="#fed0bc"></path><rect x="89.85" y="424.42" width="12.41" height="227.85" fill="#008e5e" data-secondary="true"></rect><rect x="89.85" y="424.42" width="12.41" height="227.85" opacity="0.3"></rect><rect x="181.32" y="424.42" width="12.41" height="227.85" fill="#008e5e" data-secondary="true"></rect><rect x="181.32" y="424.42" width="12.41" height="227.85" opacity="0.3"></rect><rect x="126.31" y="567.06" width="16.23" height="30.89" fill="#008e5e" data-secondary="true"></rect><rect x="126.31" y="567.06" width="16.23" height="30.89" opacity="0.3"></rect><ellipse cx="63.66" cy="643.03" rx="9" ry="9.24" transform="translate(-436.05 233.36) rotate(-45)" fill="#008e5e" data-secondary="true"></ellipse><path d="M161.36,400.6l65.84-47.32H407.3l-57,40.14-135.76.07s-5.59-.66-7,3.52l-1.7-2.79Z" fill="#bcbec0"></path><polygon points="198.35 382.71 208.19 398.22 212.54 393.5 203.1 378.96 198.35 382.71" fill="#d1d3d4"></polygon><path d="M212.55,393.49H392.39a5.83,5.83,0,0,1,5.83,5.83h0a5.83,5.83,0,0,1-5.83,5.83H212.55Z" fill="#a7a9ac"></path><path d="M153.5,401.73s-3.27-.62-3.09,3.42h65.41s4.36-1.6,3.08-7.23a5.47,5.47,0,0,0-6.35-4.43,5.71,5.71,0,0,0-5.09,3.52l-1.7-2.79Z" fill="#d1d3d4"></path><polygon points="60.37 405.14 60.37 424.42 215.19 424.42 500.13 424.42 500.13 405.14 213.79 405.14 60.37 405.14" fill="#008e5e" data-secondary="true"></polygon><rect x="214.2" y="405.15" width="285.93" height="19.27" opacity="0.1"></rect><path d="M467.68,388h18.79a1.87,1.87,0,0,0,1.6-2.83l-9.29-15.41a1.87,1.87,0,0,0-3.17-.06l-9.49,15.41A1.86,1.86,0,0,0,467.68,388Z" fill="#bcbec0"></path><path d="M208.88,347.11l-31.54-16.49-2.27-3h4.48l33.18,18.15A7.51,7.51,0,0,1,208.88,347.11Z" fill="#373660"></path><path d="M215.19,350.72l2.35,1.09,6-.56-3.43-1.87S216.4,349.5,215.19,350.72Z" fill="#373660"></path><path d="M151.12,274.2a31.66,31.66,0,0,0-1.26-4.34l-.44.12c-3.19-6.67-8-11.12-13.88-11.85-11.34-1.42-22.47,11.62-26.13,29.81a6.35,6.35,0,0,0-1.38-.69,5.18,5.18,0,0,0-4.63-.62c-3.12,1.22-4.23,5.82-2.48,10.27a12.13,12.13,0,0,0,1.16,2.24l-3,9.16c-2.9,9.85-4.8,14.59-5.94,16.87a11.88,11.88,0,0,0-.25,10.25c2.85,6.15,9.28,9.17,9.28,9.17,8.11,5,12.55,1.6,14.81-1.91a14.45,14.45,0,0,0,2.19-6.7l.48-6.08a14.37,14.37,0,0,0,6.54,2.61c12.28,1.54,24.32-13.86,26.9-34.4A55,55,0,0,0,151.12,274.2Z" fill="#fed0bc"></path><path d="M100,309.74s-16.85-15.65-5.22-43.41c0,0-4.09-7.12.56-10.68,0,0-2.46,3.56,3.23,7.6a6.19,6.19,0,0,1,1.43-7.6s1,4.27,3.56,4.27c0,0,11.15-8.3,24.91-6.4,0,0,16-1,19.66-6.63a3.33,3.33,0,0,1,5.32-.48c4.23,4.88,9,16-.94,32.92a27.72,27.72,0,0,0-1.6-5.55,39.44,39.44,0,0,0-1.65-4.19c-3.66,1-7.49,2.3-11.51,3.73-6.36,2.26-13.93,5.3-18.77,8.43,0,0-3.87,14.65-7.37,9.13,0,0-1.74-3.65-5.23-4.09-5.07-.65-7,3.94-5.84,7.9.64,2.21,2.61,4.86,6.11,8.21Z"></path><path d="M736.77,163.2c0,16.47-9.9,30.62-22.12,30.62s-22.11-14.15-22.11-30.62,9.9-29.83,22.11-29.83S736.77,146.72,736.77,163.2Z" fill="#fed0bc"></path><ellipse cx="739.86" cy="159.85" rx="9.17" ry="5.14" transform="translate(362.1 815.78) rotate(-72.25)" fill="#fed0bc"></ellipse><path d="M703.21,137.67s-.07,6.18-9,14.21c0,0-7.41,22.71,9,36.84,0,0,8.23,8,18.3,2.83,0,0,2.68,13.58-1.3,21,0,0-19.33,2.56-23.6,10.8,0,0-6.54,0-7.67-10.23l-2,1.7s-1.71,10.24,0,13.36c0,0-11.38.29-21.61-19.33,0,0-5.69,7.11,1.7,17.34,0,0-22.23-8.06-14.59-38.31a37.7,37.7,0,0,1,19.94-24.49l.34-.16s15.27-5,13.89-24c0,0,0-19.34,19.94-15.07,0,0,26.44-14.44,42.37,9.27,0,0,12.51,19.74,33,29.83,0,0,38.66,12.07,22.46,41.93,0,0-1.71-7.4-6.83-8,0,0,1.71,8-.57,14.49,0,0-9.09-8.81-17.91-10.23,0,0,7.11,9.1,5.4,16.21l-11.65,5.68s-.57-13.93-12.8-15.07L745.23,208s-9.32-15.27-5.37-39.76c0,0,5.77-3.39,5.57-12.52,0,0-.52-5.22-4.13-4.69,0,0-2.33-.12-5.24,4.68a15.85,15.85,0,0,0-1.64,4.9,21.77,21.77,0,0,0-10-7.38,33,33,0,0,1-9.95-5.55c-3.55-3-7.59-7.05-9.23-11.43Z"></path><path d="M696.61,223.32,690,243.51s-15.38,6.49-6.23,22.07a10,10,0,0,1,1.33,6c-.56,6.63-1.27,21.75,2.33,34.35a8.16,8.16,0,0,1-.93,6.62c-1.32,2.09-2,4.9,2.25,6.43,0,0,29.36,7.17,41-8.92a4.94,4.94,0,0,1,4.62-2c1.73.22,3.77,0,4.83-2.17a4.81,4.81,0,0,0,0-4.22c-1-2.11-2.36-6.08.74-7.71,0,0,2.81-.76,3.57-9.48l9.86-26.16,3.79,15.54s18.57,2.28,25.77-4.54l-10-46s-.75-14.84-12.8-15.07L745.23,208s-6.48,20.94-22.72,18.76c0,0-9.22.29-2.3-14.21C720.21,212.52,703.25,214.13,696.61,223.32Z" fill="#008e5e" data-secondary="true"></path><polygon points="694.15 599.77 685.24 620.31 691.31 628.84 698.13 626.95 706.85 604.39 694.15 599.77" fill="#fed0bc"></polygon><path d="M745.14,620.88V603.06h14v25.78S743.81,630.55,745.14,620.88Z" fill="#fed0bc"></path><path d="M647.9,641h53.52V625.56a1.36,1.36,0,0,0-1.15-1.35,3.91,3.91,0,0,0-3.52,1,3.78,3.78,0,0,1-3.23,1.34,5.65,5.65,0,0,1-4.79-4.14s-3.3-7.58-8.61-1.14l-13.77,12.56a8.73,8.73,0,0,1-7.16,2.23C655.66,635.51,650.5,635.78,647.9,641Z" fill="#008e5e" data-secondary="true"></path><rect x="645.25" y="640.97" width="58.38" height="5.5" rx="2.6" fill="#373660"></rect><path d="M708.74,641h53.52V625.56a1.35,1.35,0,0,0-1.15-1.35,3.89,3.89,0,0,0-3.51,1,3.81,3.81,0,0,1-3.24,1.34,5.65,5.65,0,0,1-4.79-4.14s-3.3-7.58-8.6-1.14l-13.78,12.56a8.73,8.73,0,0,1-7.16,2.23C716.5,635.51,711.34,635.78,708.74,641Z" fill="#008e5e" data-secondary="true"></path><rect x="706.09" y="640.97" width="58.38" height="5.5" rx="2.6" fill="#373660"></rect><path d="M728,261.51l34.65,19.14-2.54-6.57s15.26,1.33,22.76-4.79c0,0,6.14,24.4,7.77,37.33a6,6,0,0,1-6.69,6.75,24.31,24.31,0,0,1-7.11-2.36s-22.11-7.92-54.45-41.91" fill="#fed0bc"></path><path d="M621.55,272.93l40.38,44.5,7.39,4.26-4.55-7.46L624.82,270a2.21,2.21,0,0,0-3.2-.09h0A2.21,2.21,0,0,0,621.55,272.93Z" fill="#008e5e" data-secondary="true"></path><path d="M704.41,173.55H704l0-.35c.4-5.48-3.88-14.88-3.92-15l.6-.28c.18.39,4.22,9.26,4,14.94a7.24,7.24,0,0,0,4-1.34l.43.51A8.25,8.25,0,0,1,704.41,173.55Z" fill="#f4a57f"></path><ellipse cx="713.93" cy="160.05" rx="2.02" ry="2.97"></ellipse><ellipse cx="697.22" cy="163.02" rx="2.02" ry="2.97" transform="matrix(0.96, -0.26, 0.26, 0.96, -18.27, 190.56)"></ellipse><path d="M715.78,148.69s-8.17-1.47-8.17,1.94c0,0-.59,2,11.17,0Z"></path><path d="M694.19,151.88s4.75-2.76,6.24-1.06c0,0,2,.9-7.19,5.09Z"></path><path d="M721.51,191.55s.48,2.73.74,5.09c0,0,9.12-5.94,10.23-15.51C732.48,181.13,728.37,189.28,721.51,191.55Z" fill="#f4a57f"></path><polygon points="747.92 272.52 742.02 269.26 753.28 258.29 747.92 272.52" opacity="0.2"></polygon><path d="M689,598.82l1.08-6a1.5,1.5,0,0,1,1.93-1.18l20.83,6.51a1.52,1.52,0,0,1,.86,2.2l-4,6.88a1.49,1.49,0,0,1-2.07.54,64.08,64.08,0,0,0-17.54-7.22A1.5,1.5,0,0,1,689,598.82Z" fill="#373660"></path><path d="M741.07,604.11l-.88-6.05a1.51,1.51,0,0,1,1.47-1.72l21.82-.4a1.51,1.51,0,0,1,1.51,1.81l-1.6,7.79a1.5,1.5,0,0,1-1.79,1.17,62.93,62.93,0,0,0-7.63-1.22,64.1,64.1,0,0,0-11.29-.1A1.51,1.51,0,0,1,741.07,604.11Z" fill="#373660"></path><path d="M741.07,604.11l-.88-6.05a1.51,1.51,0,0,1,1.47-1.72l21.82-.4a1.51,1.51,0,0,1,1.51,1.81l-1.6,7.79a1.5,1.5,0,0,1-1.79,1.17,62.93,62.93,0,0,0-7.63-1.22,64.1,64.1,0,0,0-11.29-.1A1.51,1.51,0,0,1,741.07,604.11Z" opacity="0.2"></path><path d="M192.13,378.64s-1,1.16.58,1.7l-8.45,6a1.41,1.41,0,0,0-.32,2h0a1.41,1.41,0,0,0,2,.32l8.58-6.31a7.29,7.29,0,0,0,7.13.07s3.53-1.4,2.62-6.74l8.09-6.14a1.56,1.56,0,0,0,.41-2.17h0a1.56,1.56,0,0,0-2.24-.36l-7.78,6c.07-.5-.24-1.46-1.31-1.06Z" fill="#d1d3d4"></path><polygon points="187.09 37.99 187.09 165.62 310.36 158.72 318.36 37.99 187.09 37.99" fill="#008e5e" data-secondary="true"></polygon><line x1="205.63" y1="73.63" x2="296.7" y2="73.63" fill="none" stroke="#fff" stroke-miterlimit="10"></line><line x1="205.63" y1="91.44" x2="295.62" y2="91.44" fill="none" stroke="#fff" stroke-miterlimit="10"></line><line x1="205.63" y1="107.81" x2="294.63" y2="107.81" fill="none" stroke="#fff" stroke-miterlimit="10"></line><line x1="205.63" y1="124.53" x2="293.62" y2="124.53" fill="none" stroke="#fff" stroke-miterlimit="10"></line><line x1="220.9" y1="56.53" x2="220.9" y2="146.75" fill="none" stroke="#fff" stroke-miterlimit="10"></line><line x1="237.99" y1="56.53" x2="237.99" y2="145.81" fill="none" stroke="#fff" stroke-miterlimit="10"></line><line x1="255.45" y1="56.53" x2="255.45" y2="144.84" fill="none" stroke="#fff" stroke-miterlimit="10"></line><line x1="272.17" y1="56.53" x2="272.17" y2="143.92" fill="none" stroke="#fff" stroke-miterlimit="10"></line><polygon points="178 50.72 184.54 59.08 212.9 40.9 207.36 30.62 178 50.72" fill="#373660"></polygon><polygon points="205.78 56.25 205.78 147.88 293.01 142.81 298.08 56.25 205.78 56.25" fill="none" stroke="#fff" stroke-miterlimit="10"></polygon><polygon points="130.42 166.05 134.16 131.28 168.18 135.4 164.82 169.79 130.42 166.05" fill="#" data-primary="true"></polygon><polygon points="127.43 139.13 145.47 127.5 149.3 133.11 131.4 144.55 127.43 139.13" fill="#008e5e" data-secondary="true"></polygon><polygon points="86.59 154.49 81.8 119.84 116.47 114.88 122.14 148.97 86.59 154.49" fill="#" data-primary="true"></polygon><polygon points="86.59 154.49 116.47 114.88 81.8 119.84 86.59 154.49" opacity="0.2"></polygon><polygon points="77.26 124.26 95.3 112.62 99.13 118.24 81.23 129.68 77.26 124.26" fill="#008e5e" data-secondary="true"></polygon><polygon points="77.26 124.26 95.3 112.62 99.13 118.24 81.23 129.68 77.26 124.26" opacity="0.4"></polygon><path d="M559,158a20.93,20.93,0,0,1,22.75-4.44A20.92,20.92,0,1,0,540,152.41,21,21,0,0,1,559,158Z" fill="#e53e38"></path><path d="M591.61,162a20.76,20.76,0,0,0-9.85-8.46,20.91,20.91,0,0,1-16.56,18.68A21,21,0,0,1,559,187.77,20.92,20.92,0,0,0,591.61,162Z" fill="#ff9648"></path><path d="M562.87,155a20.9,20.9,0,0,0-3.86,3,21,21,0,0,1,6.19,14.24,20.91,20.91,0,0,0,16.56-18.68A20.89,20.89,0,0,0,562.87,155Z" fill="#965283"></path><path d="M552.88,171.1A21,21,0,0,1,540,152.41a20.92,20.92,0,1,0,15.14,38.37,21.77,21.77,0,0,0,3.87-3,21.29,21.29,0,0,1-3.17-4A20.82,20.82,0,0,1,552.88,171.1Z" fill="#373660"></path><path d="M552.88,171.1A20.94,20.94,0,0,1,559,158a21,21,0,0,0-19-5.61,21,21,0,0,0,12.88,18.69Z" fill="#88b095"></path><path d="M565.2,172.26a21,21,0,0,1-12.32-1.16,20.82,20.82,0,0,0,3,12.65,21.29,21.29,0,0,0,3.17,4A21,21,0,0,0,565.2,172.26Z" fill="#fe7446"></path><path d="M559,158a20.94,20.94,0,0,0-6.13,13.08,21,21,0,0,0,12.32,1.16A21,21,0,0,0,559,158Z" fill="#898b97"></path><path d="M715.83,266s-3-2-4.16-3.09-2.6-2.47-3.44-3.34a22.87,22.87,0,0,1-2.66-3.35c-.94-1.82.79-2.64,2.08-1.13.45.51,1.53,1.7,2.54,2.63s2.42,2.12,3.26,2.74a16.55,16.55,0,0,0,3.83,2.47C717.44,263.84,715.83,266,715.83,266Z" fill="#fed0bc"></path><path d="M716.87,264.25a38.67,38.67,0,0,0-4-4.63c-1.48-1.5-2.77-2.81-3.72-3.79a38.74,38.74,0,0,1-2.73-3.23c-1.42-1.88.22-3.48,2-1.76.47.47,1.82,1.77,3,2.92s2.72,2.68,3.62,3.56c1.62,1.45,4.07,4.14,4.06,4.17C719.51,262.88,716.87,264.25,716.87,264.25Z" fill="#fed0bc"></path><path d="M722.49,260.45a41,41,0,0,0-3.82-4.81c-1.43-1.57-2.65-2.95-3.55-4a36.06,36.06,0,0,1-2.58-3.37c-1.33-1.93.38-3.45,2.11-1.64.45.49,1.74,1.85,2.88,3.05s2.59,2.8,3.45,3.73a56.15,56.15,0,0,1,3.86,4.35C725.18,259.21,722.49,260.45,722.49,260.45Z" fill="#fed0bc"></path><path d="M718.75,260.67c-1.21-1.11-2.79-2.69-4.19-4.1a52.4,52.4,0,0,1-3.65-4.13c-.9-1.12-1.62-2.07-2.33-2.91-1.51-1.72.57-3.39,2.25-1.74.58.57,1.85,2,2.92,3.15,1.21,1.3,2.31,2.4,3.18,3.24,1.57,1.49,4,4,4,4C721.2,259.46,718.75,260.67,718.75,260.67Z" fill="#fed0bc"></path><path d="M724.91,259.23s7.14,10.77,7.3,6.89c.2-4.71-2-9-4.22-12.78-1.65-2.85-2.47-4.88-4-4-1.27.7-.6,3,.94,5.65C726.69,257.93,724.91,259.23,724.91,259.23Z" fill="#fed0bc"></path><path d="M725.32,272.75c-3.16-1.26-8.92-5.54-11.71-8.34a6.47,6.47,0,0,1,1.6-3.57c2.13-2.49,5.82-5.67,7.5-5.55,1.67,1.93,6,5.79,8.43,8.6C735,268.38,728,273.81,725.32,272.75Z" fill="#fed0bc"></path><path d="M632.61,295.83c-.88-3.64-3.19-9.05-3.72-11.2-.37-1.48,3.09-2.62,4.73.19a22.79,22.79,0,0,1,1.84,3.88l1.75,3.63s4.35.34,6.29,2c1.38,1.14-1.54,6.07-1.54,6.07s-4.78,7.6-6,6.19S633.46,299.36,632.61,295.83Z" fill="#f4a57f"></path><path d="M638.52,309.66c3.14.88,5.87,1.67,11.09-1.9A18.85,18.85,0,0,0,654.8,303c3.78-5.44-.63-5.78-.63-5.78s.47-4.9-2.75-4a3.42,3.42,0,0,0-3.89-4c-.28-2.32-2.73-3.46-4.18-1.73a40.27,40.27,0,0,0-6,6.62c-2,3-4.24,6.11-3.89,8.1C633.77,303.89,635.43,308.8,638.52,309.66Z" fill="#fed0bc"></path><path d="M651.42,293.25a5.26,5.26,0,0,1,.58-.11c-.46,1.09-1.08,2.45-2.25,2.68a23.68,23.68,0,0,0,1.41-4.57A4.51,4.51,0,0,1,651.42,293.25Z" fill="#f4a57f"></path><path d="M654.17,297.22a3.37,3.37,0,0,1,.71.17c-.43,1-1.23,2.43-2.43,2.48a16.67,16.67,0,0,0,1.68-4.28A8.41,8.41,0,0,1,654.17,297.22Z" fill="#f4a57f"></path><path d="M647.53,289.26a2.45,2.45,0,0,1,.92,0c-.34.88-1,2.38-2,2.72.25-1.19.62-2.62.86-3.55A3.21,3.21,0,0,1,647.53,289.26Z" fill="#f4a57f"></path><path d="M712.86,178.43c-.47.11-1,.23-1.53.32s-1.11.13-1.64.18c-1.49.12-2.9.23-3.24,1.4a2.54,2.54,0,0,0,.56,1.95,4.39,4.39,0,0,0,3.43,1.84,6.18,6.18,0,0,0,1.47-.09,5,5,0,0,0,3.42-2.38,3.3,3.3,0,0,0,.46-2.64,1.21,1.21,0,0,0-1.17-.85A6.68,6.68,0,0,0,712.86,178.43Z" fill="#f4a57f"></path><path d="M711.39,179.19c-2.08.33-4.16.07-4.51,1.26-.25.85,1.22,3.81,4.94,3.14,2.61-.47,4-3,3.54-4.44C715,178.06,713.47,178.87,711.39,179.19Z"></path><path d="M706.88,180.45a1,1,0,0,0,0,.31c3.25,1.36,7.18.39,7.63-2.16-.71,0-1.8.39-3.1.59C709.31,179.52,707.23,179.26,706.88,180.45Z" fill="#fff"></path><path d="M141.06,287.17v-8.1s-17.35,1.16-16.49,8.1Z"></path><path d="M150.9,287.17v-5.78s8.26,2.66,8.16,6.71a1,1,0,0,1-.45.81C157.55,289.63,154.41,291.15,150.9,287.17Z"></path><ellipse cx="134.92" cy="295.09" rx="2.11" ry="3.01"></ellipse><ellipse cx="149.97" cy="296.5" rx="2.11" ry="3.01"></ellipse><path d="M148.83,287.17a14,14,0,0,0,4,17.36,1,1,0,0,1,.15,1.42c-.73.91-2.35,2.17-5.6,1.95" fill="none" stroke="#f4977a" stroke-miterlimit="10"></path><path d="M134.39,311.86s-.48,1.47.73,4.15c0,0,2.64,4.31,6.33,3.79a6.53,6.53,0,0,0,4.45-4.92,9.89,9.89,0,0,1-3.88-.53S136,312.78,134.39,311.86Z"></path><path d="M134.46,311.63s-.08,0-.07,0a5.71,5.71,0,0,0,2.28,2.78s6.69,3.47,7.18,0C143.85,314.49,137.48,313.81,134.46,311.63Z" fill="#fff"></path><path d="M145.61,314.68c-1.75-.15-8.84-.9-11.07-3.22a.22.22,0,0,0-.38.14,8.2,8.2,0,0,0,4.5,7.83,4.13,4.13,0,0,0,3.47.16,6.7,6.7,0,0,0,3.76-4.49A.33.33,0,0,0,145.61,314.68Z" fill="none" stroke="#f4977a" stroke-miterlimit="10" stroke-width="0.75"></path><path d="M119.66,329.9l-.41,5.15a22.89,22.89,0,0,1-14.16-18S114.11,328.7,119.66,329.9Z" fill="#f4977a"></path><path d="M579.11,319.39h-4v-.75h4Zm-8,0h-4v-.75h4Zm-8,0h-4v-.75h4Zm-8,0h-4v-.75h4Zm-8,0h-4v-.75h4Zm-8,0h-4v-.75h4Zm-8,0h-4v-.75h4Zm-8,0h-4v-.75h4Zm-8,0h-4v-.75h4Zm-8,0h-3v-1.72h.75v1h2.28Zm72.75-4h-.75v-4h.75Zm-75-1.72h-.75v-4h.75Zm75-6.28h-.75v-4h.75Zm-75-1.72h-.75v-4h.75Zm75-6.28h-.75v-4h.75Zm-75-1.72h-.75v-4h.75Zm75-6.28h-.75v-4h.75Zm-75-1.72h-.75v-4h.75Zm75-6.28h-.75v-4h.75Zm-75-1.72h-.75v-4h.75Zm75-6.28h-.75v-4h.75Zm-75-1.72h-.75v-4h.75Zm75-6.28h-.75v-4h.75Zm-75-1.72h-.75v-4h.75Zm75-6.28h-.75v-4h.75Zm-75-1.72h-.75v-4h.75Zm75-6.28h-.75v-4h.75Zm-75-1.72h-.75v-4.38h1.13V246h-.38ZM577.21,246h-4v-.75h4Zm-8,0h-4v-.75h4Zm-8,0h-4v-.75h4Zm-8,0h-4v-.75h4Zm-8,0h-4v-.75h4Zm-8,0h-4v-.75h4Zm-8,0h-4v-.75h4Zm-8,0h-4v-.75h4Zm-8,0h-4v-.75h4Z" fill="#008e5e" data-secondary="true"></path><rect x="502.44" y="242.98" width="4.71" height="4.71" fill="#008e5e" data-secondary="true"></rect><rect x="502.44" y="316.66" width="4.71" height="4.71" fill="#008e5e" data-secondary="true"></rect><rect x="577.13" y="316.66" width="4.71" height="4.71" fill="#008e5e" data-secondary="true"></rect><rect x="577.13" y="243.31" width="4.71" height="4.71" fill="#008e5e" data-secondary="true"></rect><path d="M544.63,286.56h-13.1l-5.1,14.3h5v1.25H521.27v-1.25h3.11l16.88-45.47h5.42l16.68,45.47h3v1.25H544.76v-1.25h4.7Zm-12.51-1.46h12l-5.75-17.33Z" fill="#008e5e" data-secondary="true"></path><rect x="463.54" y="401.88" width="27.14" height="3.27" fill="#ccc"></rect><rect x="475.32" y="387.54" width="3.24" height="9.22" fill="#ccc"></rect><polygon points="482.76 379.69 503.84 290.54 506.68 290.54 485.24 382.84 482.76 379.69" fill="#ccc"></polygon><polygon points="492.47 288.37 495.6 290.54 474.34 380.11 471.44 378.47 492.47 288.37" fill="#ccc"></polygon><polygon points="492.69 284.73 390.23 193.16 391.92 190.26 497.54 284.73 492.69 284.73" fill="#ccc"></polygon><polygon points="396.77 183.23 497.54 274.56 502.62 274.56 396.77 179.36 396.77 183.23" fill="#ccc"></polygon><path d="M309.92,187.9s-.87,3.31,6.77,8.22c.33.21.65.42,1,.65,4.78,3.45,44.93,32.3,47.32,28.37C365,225.14,343.9,201.16,309.92,187.9Z" fill="#d8d8d8"></path><path d="M383.5,177.18l-11.14-6.45,5-8.45s-2.73-6-12.9-9.08l-14.35,18.53L309.92,187.9s32.89,16,55.05,37.24l.73-43.06,4.82-8.2L381.87,181Z" fill="#ccc"></path><path d="M390.36,194.59l9.74-16.07a1.87,1.87,0,0,0-1.6-2.84l-18,0a1.87,1.87,0,0,0-1.69,2.68l8.25,16.11A1.87,1.87,0,0,0,390.36,194.59Z" fill="#bcbec0"></path><path d="M474.1,395.05h6.19a6,6,0,0,1,6,6v.88a0,0,0,0,1,0,0H468.15a0,0,0,0,1,0,0V401A6,6,0,0,1,474.1,395.05Z" fill="#bcbec0"></path><rect x="490.88" y="273.28" width="19.62" height="19.62" rx="8.21" fill="#bcbec0"></rect></svg>