<svg id="a5d855c5-9413-4673-8bef-50488bfe6ccf" data-name="Layer 1" xmlns="http://www.w3.org/2000/svg" width="865.76" height="682.89" viewBox="0 0 865.76 682.89"><g id="f4056970-fd5e-4dec-bf13-8499639c8c5c" data-name="freepik--background-complete--inject-222"><rect x="1.31" y="605.92" width="863.14" height="0.43" fill="#ebebeb"></rect><rect x="720.79" y="633.7" width="57.17" height="0.43" fill="#ebebeb"></rect><rect x="558.09" y="638.39" width="15" height="0.43" fill="#ebebeb"></rect><rect x="685.94" y="617.68" width="33.13" height="0.43" fill="#ebebeb"></rect><rect x="91.87" y="620.58" width="74.56" height="0.43" fill="#ebebeb"></rect><rect x="181.81" y="620.58" width="10.93" height="0.43" fill="#ebebeb"></rect><rect x="228.27" y="627.86" width="161.72" height="0.43" fill="#ebebeb"></rect><path d="M410.44,528.93H77.11a9.86,9.86,0,0,1-9.84-9.86V50.51a9.86,9.86,0,0,1,9.84-9.77H410.44a9.86,9.86,0,0,1,9.86,9.85h0V519.07A9.86,9.86,0,0,1,410.44,528.93ZM77.11,41.08a9.43,9.43,0,0,0-9.41,9.43V519.07a9.43,9.43,0,0,0,9.41,9.43H410.44a9.45,9.45,0,0,0,9.43-9.43V50.51a9.45,9.45,0,0,0-9.43-9.43Z" fill="#ebebeb"></path><path d="M783.85,528.93H450.51a9.88,9.88,0,0,1-9.86-9.86V50.51a9.87,9.87,0,0,1,9.86-9.77H783.85a9.86,9.86,0,0,1,9.83,9.77V519.07A9.87,9.87,0,0,1,783.85,528.93ZM450.51,41.08a9.45,9.45,0,0,0-9.43,9.43V519.07a9.45,9.45,0,0,0,9.43,9.43H783.85a9.45,9.45,0,0,0,9.43-9.43V50.51a9.45,9.45,0,0,0-9.43-9.43Z" fill="#ebebeb"></path><path d="M172.54,404.33c0-.38,1.28-37.41,7.3-43.28s12.59-.21,12.86,0l.61-.71s-7.67-6.26-14.12,0-7.53,42.38-7.58,43.92Z" fill="#e0e0e0"></path><path d="M172,411.61c0-.45,4.13-44.47-12-62.92l-.71.6c15.81,18.16,11.78,61.79,11.74,62.15Z" fill="#e0e0e0"></path><path d="M172.63,407h.93c0-.5-3.14-50.06,8.63-60.9l-.64-.69C169.45,356.44,172.49,405,172.63,407Z" fill="#e0e0e0"></path><path d="M171.09,406.92H172c0-1.37-.4-33.48-9.51-38.71a6.51,6.51,0,0,0-5.91-.57c-5.52,2.28-8.25,12.09-8.37,12.52l.92.24c0-.1,2.72-9.79,7.82-11.89a5.51,5.51,0,0,1,5.06.53C170.71,374,171.09,406.59,171.09,406.92Z" fill="#e0e0e0"></path><path d="M174.65,407h.93c0-.26-1.38-25.37,5.4-34.23a6.33,6.33,0,0,1,5.32-3c4.44.31,8.16,6.82,8.2,6.91l.83-.47c-.17-.29-4-7-9-7.35a7.11,7.11,0,0,0-6.13,3.45C173.25,381.23,174.58,405.9,174.65,407Z" fill="#e0e0e0"></path><path d="M173.16,410.37c.17-2.43,4.42-59.8-3-69.92l-.76.57c7.26,9.83,2.91,68.68,2.86,69.28Z" fill="#e0e0e0"></path><path d="M154.59,373.46s4.49,1.64,3.16,5.54-15.54,10.36-15.54,10.36-5.94-5.44-.48-14.29S154.47,370.66,154.59,373.46Z" fill="#ebebeb"></path><path d="M174.08,366s-4.78-.19-5,3.92,10.35,15.54,10.35,15.54,7.58-2.75,5.94-13S175.27,363.55,174.08,366Z" fill="#ebebeb"></path><path d="M178.12,346.29s-3.18-.33-2.92-2.28,12.36-6.9,19.51,1.14c0,0-4.58,7.87-11.19,8S178.12,346.29,178.12,346.29Z" fill="#ebebeb"></path><path d="M172.21,341.63s2.89,1.38,3.68-.4-6.91-12.41-17.16-9.35c0,0-.28,9.09,5.28,12.68S172.21,341.63,172.21,341.63Z" fill="#ebebeb"></path><path d="M187.27,371.89s-2.21-1.73.17-2.64,14-.62,14.12,10.89c0,0-13.55,2.26-15.23-2.12S187.27,371.89,187.27,371.89Z" fill="#ebebeb"></path><path d="M159.63,346.05s2.19-1.73-.17-2.64-14-.62-14.13,10.89c0,0,13.56,2.26,15.23-2.12S159.63,346.05,159.63,346.05Z" fill="#ebebeb"></path><path d="M166.79,355.32s.19-2.16-1.55-1.31-7.8,7.38-1.5,13.6c0,0,8.46-6.27,6.9-9.53S166.79,355.32,166.79,355.32Z" fill="#ebebeb"></path><path d="M189.22,358.37s-1.32-1.72.62-1.93,10.53,2.09,8.53,10.7c0,0-10.5-.79-11-4.36S189.22,358.37,189.22,358.37Z" fill="#ebebeb"></path><polygon points="153.76 438.85 189.77 438.85 193.65 399.43 149.86 399.43 153.76 438.85" fill="#f0f0f0"></polygon><rect x="147.94" y="395.06" width="47.65" height="8.7" fill="#e6e6e6"></rect><path d="M578.13,595.86H544.3l17.78-172.63c.76-7.3,6.33-13.24,12.48-13.24H722.17L700.54,595.86Z" fill="#f5f5f5"></path><path d="M685.44,595.86h33.83l17.78-172.63c.76-7.3-3.6-13.24-9.73-13.24H715.68c-6.13,0-11.7,5.94-12.46,13.24Z" fill="#f0f0f0"></path><path d="M673,595.65l6.13-83.52a7.51,7.51,0,0,1,5.8-7.21l2.52-.38c4.2-.64,7.43-4.66,7.81-9.67l1.1-15.22c.47-6.24-3.66-11.62-8.92-11.62H744c5.18,0,9.37,5.38,8.92,11.62l-1.12,15.22c-.36,5-3.61,9-7.78,9.67l-2.52.38a7.51,7.51,0,0,0-5.82,7.21l-6.13,83.52c-.45,6.1-4.71,10.77-9.84,10.77H663.12C668.24,606.42,672.52,601.78,673,595.65Z" fill="#e6e6e6"></path><path d="M517.37,491.3c-1-13.12-10.17-23.19-21.22-23.19h49.22c11,0,20.26,10.07,21.23,23.19l4.85,66.22H522.23Z" fill="#e6e6e6"></path><path d="M474.31,468h21.87c11.05,0,20.25,10.06,21.22,23.18l4.87,66.22H639.5l4.83-66.13c.95-13.12,10.17-23.19,21.22-23.19h21.86c5.26,0,9.39,5.39,8.92,11.62L695.23,495c-.38,5-3.61,9-7.81,9.66l-2.52.38a7.53,7.53,0,0,0-5.8,7.22L673,595.74c-.45,6.09-4.73,10.77-9.85,10.77H498.57c-5.18,0-9.39-4.68-9.84-10.77l-6.13-83.52a7.52,7.52,0,0,0-5.82-7.22l-2.52-.38c-4.18-.63-7.42-4.66-7.78-9.66l-1.13-15.23C464.9,473.41,469,468,474.31,468Z" fill="#f0f0f0"></path><rect x="148.86" y="447.29" width="130.87" height="140.85" fill="#e6e6e6"></rect><rect x="128.88" y="436.8" width="16.45" height="169.61" fill="#e6e6e6"></rect><rect x="248.19" y="458.38" width="10.72" height="52.63" fill="#fafafa"></rect><rect x="203.72" y="458.38" width="10.72" height="52.63" fill="#f5f5f5"></rect><rect x="237.47" y="462.07" width="10.72" height="48.94" fill="#f5f5f5"></rect><rect x="214.46" y="462.07" width="10.72" height="48.94" fill="#fafafa"></rect><rect x="225.18" y="458.38" width="6.92" height="52.63" fill="#ebebeb"></rect><rect x="232.08" y="462.07" width="5.37" height="48.94" fill="#fafafa"></rect><rect x="193" y="458.38" width="10.72" height="52.63" fill="#ebebeb"></rect><rect x="182.28" y="462.07" width="10.72" height="48.94" fill="#e6e6e6"></rect><rect x="159.27" y="462.07" width="10.72" height="48.94" fill="#e6e6e6"></rect><rect x="169.99" y="458.38" width="6.92" height="52.63" fill="#fafafa"></rect><rect x="176.91" y="462.07" width="5.37" height="48.94" fill="#ebebeb"></rect><rect x="153.9" y="459.62" width="5.37" height="51.39" fill="#fafafa"></rect><rect x="153.9" y="528.93" width="10.72" height="52.63" fill="#fafafa"></rect><rect x="198.37" y="528.93" width="10.72" height="52.63" fill="#fafafa"></rect><rect x="164.62" y="532.63" width="10.72" height="48.94" fill="#f0f0f0"></rect><rect x="187.63" y="532.63" width="10.72" height="48.94" fill="#ebebeb"></rect><rect x="180.71" y="528.93" width="6.92" height="52.63" fill="#fafafa"></rect><rect x="175.34" y="532.63" width="5.37" height="48.94" fill="#f5f5f5"></rect><rect x="209.09" y="528.93" width="10.72" height="52.63" fill="#ebebeb"></rect><rect x="219.81" y="532.63" width="10.72" height="48.94" fill="#f5f5f5"></rect><rect x="242.82" y="532.63" width="10.72" height="48.94" fill="#e6e6e6"></rect><rect x="235.88" y="528.93" width="6.92" height="52.63" fill="#fafafa"></rect><rect x="258.91" y="528.93" width="6.92" height="52.63" fill="#fafafa"></rect><rect x="230.53" y="532.63" width="5.37" height="48.94" fill="#ebebeb"></rect><rect x="253.54" y="530.17" width="5.37" height="51.39" fill="#f0f0f0"></rect><path d="M145.14,436.82v169.6h8.77v-9.51h130V436.82Zm8.77,83H275.6v61.72H153.91Zm0-67.69H275.6v58.9H153.91Z" fill="#f0f0f0"></path><rect x="279.95" y="447.29" width="130.87" height="140.85" fill="#e6e6e6"></rect><rect x="389.33" y="595.19" width="16.45" height="11.22" fill="#e6e6e6"></rect><rect x="284.35" y="458.38" width="10.72" height="52.63" fill="#fafafa"></rect><rect x="328.8" y="458.38" width="10.72" height="52.63" fill="#f5f5f5"></rect><rect x="295.07" y="462.07" width="10.72" height="48.94" fill="#f5f5f5"></rect><rect x="318.08" y="462.07" width="10.72" height="48.94" fill="#fafafa"></rect><rect x="311.16" y="458.38" width="6.92" height="52.63" fill="#ebebeb"></rect><rect x="305.79" y="462.07" width="5.37" height="48.94" fill="#fafafa"></rect><rect x="332.46" y="458.38" width="10.72" height="52.63" fill="#ebebeb"></rect><rect x="343.18" y="462.07" width="10.72" height="48.94" fill="#e6e6e6"></rect><rect x="366.2" y="462.07" width="10.72" height="48.94" fill="#e6e6e6"></rect><rect x="359.27" y="458.38" width="6.92" height="52.63" fill="#fafafa"></rect><rect x="353.9" y="462.07" width="5.37" height="48.94" fill="#ebebeb"></rect><rect x="376.92" y="459.62" width="5.37" height="51.39" fill="#f5f5f5"></rect><rect x="376.59" y="528.91" width="10.72" height="52.63" fill="#fafafa"></rect><rect x="332.15" y="528.91" width="10.72" height="52.63" fill="#fafafa"></rect><rect x="365.87" y="532.62" width="10.72" height="48.94" fill="#f5f5f5"></rect><rect x="342.87" y="532.62" width="10.72" height="48.94" fill="#ebebeb"></rect><rect x="353.59" y="528.91" width="6.92" height="52.63" fill="#fafafa"></rect><rect x="360.5" y="532.62" width="5.37" height="48.94" fill="#f5f5f5"></rect><rect x="328.48" y="528.91" width="10.72" height="52.63" fill="#ebebeb"></rect><rect x="317.76" y="532.62" width="10.72" height="48.94" fill="#f5f5f5"></rect><rect x="294.76" y="532.62" width="10.72" height="48.94" fill="#e6e6e6"></rect><rect x="305.46" y="528.91" width="6.92" height="52.63" fill="#fafafa"></rect><rect x="283.89" y="528.91" width="6.92" height="52.63" fill="#fafafa"></rect><rect x="312.39" y="532.62" width="5.37" height="48.94" fill="#ebebeb"></rect><rect x="289.38" y="530.17" width="5.37" height="51.39" fill="#ebebeb"></rect><path d="M410.15,436.82H275.79V596.91h130v9.51h8.77V436.82Zm-4.39,144.75H284.08V519.85H405.76Zm0-70.51H284.08v-58.9H405.76Z" fill="#f0f0f0"></path><rect x="530" y="112.1" width="193.67" height="214.2" fill="#e0e0e0"></rect><rect x="523.81" y="112.1" width="200.87" height="214.2" fill="#f0f0f0"></rect><rect x="532.32" y="118.94" width="184.19" height="197.52" fill="#fff"></rect><rect x="532.3" y="118.94" width="5.33" height="197.52" fill="#e0e0e0"></rect><rect x="537.06" y="260.98" width="179.91" height="5.33" fill="#e0e0e0"></rect><rect x="532.3" y="252.03" width="187.06" height="8.94" fill="#f0f0f0"></rect><rect x="143.44" y="120.84" width="75.73" height="53.53" fill="#e0e0e0"></rect><rect x="146.97" y="124.34" width="68.62" height="46.54" fill="#ebebeb"></rect><rect x="169.69" y="188.09" width="75.73" height="53.53" fill="#e0e0e0"></rect><rect x="173.23" y="191.58" width="68.62" height="46.54" fill="#ebebeb"></rect><rect x="233.53" y="106.18" width="48.2" height="68.19" fill="#e0e0e0"></rect><rect x="236.67" y="109.39" width="41.91" height="61.78" fill="#ebebeb"></rect><rect x="255.61" y="188.09" width="53.51" height="75.73" fill="#e0e0e0"></rect><rect x="259.1" y="191.65" width="46.54" height="68.62" fill="#ebebeb"></rect><rect x="298.08" y="132.45" width="59.3" height="41.91" fill="#e0e0e0"></rect><rect x="300.86" y="135.2" width="53.72" height="36.44" fill="#ebebeb"></rect></g><polygon points="549.86 557 546.46 607.33 568.19 610 578.59 558.6 549.86 557" fill="#fed0bc"></polygon><path d="M497.16,632.66l77.46-6.93-2-22.31a2,2,0,0,0-1.84-1.81,5.69,5.69,0,0,0-5,1.9,5.55,5.55,0,0,1-4.51,2.36c-2.43-.09-5.53-1.14-7.47-5.38,0,0-5.76-10.55-12.6-.53l-18.31,20a12.68,12.68,0,0,1-10.08,4.14C507.68,623.75,500.24,624.82,497.16,632.66Z" fill="#ff6d60" data-secondary="true"></path><rect x="494.51" y="629.1" width="84.84" height="7.99" rx="2.6" transform="translate(-54.31 50.39) rotate(-5.12)" fill="#373660"></rect><polygon points="675.08 530.92 712.54 564.72 728.07 549.3 692.36 511.8 675.08 530.92" fill="#fed0bc"></polygon><path d="M702,619.13,744.41,554l-18.77-12.23a2,2,0,0,0-2.55.33,5.64,5.64,0,0,0-1.58,5.06,5.56,5.56,0,0,1-.94,5c-1.57,1.86-4.31,3.64-8.84,2.54,0,0-11.85-2-8.21,9.58L707.88,591a12.66,12.66,0,0,1-3,10.48C701.46,605.35,697.69,611.85,702,619.13Z" fill="#ff6d60" data-secondary="true"></path><rect x="684.47" y="584.15" width="84.84" height="7.99" rx="2.6" transform="translate(-162.71 876.06) rotate(-56.91)" fill="#373660"></rect><path d="M592.05,158.41s-12.67,41.25,19.87,76.5c0,0-17.32-24.35-17.16-40.51,0,0,21.72,30.6,44.59,29.15,0,0,26.72,77,50.35,79.83a4.88,4.88,0,0,0,2.66-.44c5.32-2.48,26.29-14.34,20.24-44.65,0,0-6.93-32.13-31.82-51.61,0,0,32.2,13.42,35.32,65a5.91,5.91,0,0,0,2.28-5.55s2.75-44.79-38.09-66.17a44.58,44.58,0,0,1,32.33,28.48s3.07-20-35.06-34.92l-7.13-1.61a17,17,0,0,1-13.17-15.61c-.91-14.55-6.57-37-32.36-41C624.9,135.32,599.58,130.33,592.05,158.41Z"></path><polygon points="635.97 223.53 637.24 184.31 607.34 197.33 607.48 227.41 635.97 223.53" fill="#fed0bc"></polygon><path d="M659.83,365.83c0,.15.06.33.09.49C659.86,365.79,659.8,365.33,659.83,365.83Z" fill="#263238"></path><path d="M672.7,377.61l1.95,17.15,15.68,14.33s1.33-2.15.61-3.94,3.59,2.32,3.59,2.32v9.85s2.68,1.08,3.58-1.25,1.43-10.75,1.43-10.75l-1.25-.89a4.57,4.57,0,0,0,1.25-3.94,14.09,14.09,0,0,0,.9-7.16,21.4,21.4,0,0,0-1.62-6.27L686,372.72Z" fill="#fed0bc"></path><path d="M680.58,394.12c-.14.1,1.77,2.83,4.63,5.76s5.53,4.92,5.63,4.78-2.33-2.33-5.16-5.24S680.73,394,680.58,394.12Z" fill="#f4a57f"></path><path d="M691.6,397.25c-.13.13,1.54,2.06,3.73,4.3s4.07,4,4.21,3.84-1.54-2.05-3.74-4.3S691.72,397.12,691.6,397.25Z" fill="#f4a57f"></path><path d="M693.72,393.32c-.13.15,1.37,1.57,3,3.53s2.7,3.7,2.87,3.61-.71-2-2.36-4S693.82,393.18,693.72,393.32Z" fill="#f4a57f"></path><path d="M695.53,389.27c-.13.14,1,1.32,2.32,2.84s2.32,2.81,2.48,2.71-.63-1.59-2-3.15S695.64,389.13,695.53,389.27Z" fill="#f4a57f"></path><path d="M561.92,210.21c-1.29-.05-4.43,1.82-6.95,5.29l-.13.15c-1.79,2.34-3.48-4.32-3.78-6.8a2.6,2.6,0,0,0-3.51-2l-8.33,3.89-2.43.08a2.49,2.49,0,0,0-1.58,2.94l4,13.15.08,3.59L556,232.74l.25-9c.25-1,.58-2.27,1-3.67a11.66,11.66,0,0,1,1.83-3.51,21.67,21.67,0,0,1,3-3.28l.27-.19a1.61,1.61,0,0,0,.48-.41A1.45,1.45,0,0,0,561.92,210.21Z" fill="#fed0bc"></path><path d="M561.6,169.7s-9.73-1.86-23.71-14.56S517,125.25,515.36,125.38s-9-3-22,27.44S486,190.13,488.77,190s21.29-5.87,33-4.88,26.89,6.66,26.89,6.66Z" fill="#008e5e" data-primary="true"></path><path d="M570.94,195.9,564.7,209l-3.33-.82L540.3,226.37l-6.36-11.63s12.59-5.85,14.82-10.47-.53-5.56-.53-5.56l5.81-7Z" fill="#008e5e" data-primary="true"></path><g opacity="0.2"><path d="M570.94,195.9,564.7,209l-3.33-.82L540.3,226.37l-6.36-11.63s12.59-5.85,14.82-10.47-.53-5.56-.53-5.56l5.81-7Z"></path></g><g opacity="0.2"><path d="M494.48,153.34c-6.9,16.5-9.55,31.12-5.92,32.63s12.16-10.64,19.06-27.14,9.55-31.12,5.92-32.64S501.38,136.83,494.48,153.34Z"></path></g><polygon points="584.64 194.53 578.97 192.93 582.26 186.22 586.55 188.72 584.64 194.53" fill="#008e5e" data-primary="true"></polygon><polygon points="552.05 194.12 567.42 203.31 569.2 199.57 552.05 194.12" fill="#008e5e" data-primary="true"></polygon><path d="M509.39,149.29s-8.56-5-12.83,6.51,4.62,13.1,4.62,13.1A75.93,75.93,0,0,0,509.39,149.29Z" fill="#fafafa"></path><g opacity="0.2"><path d="M517.94,135.5a12.74,12.74,0,0,1-.27,2.18c-.22,1.39-.54,3.42-1,5.91-.32,1.22-.67,2.57-1,4l-.59,2.23c-.1.39-.2.78-.31,1.17s-.27.78-.4,1.17l-1.76,5c-.15.43-.31.86-.46,1.3s-.38.85-.56,1.28l-1.18,2.61c-.39.88-.79,1.76-1.18,2.61-.2.43-.36.87-.59,1.27l-.67,1.21-2.55,4.6c-.21.36-.39.73-.61,1.08l-.67,1L502.79,176l-2.31,3.45c-1.55,2-2.86,3.56-3.75,4.65a12.73,12.73,0,0,1-1.46,1.65,12.18,12.18,0,0,1,1.24-1.82l3.56-4.8c.69-1.06,1.43-2.22,2.23-3.46l1.24-1.93.65-1c.21-.35.39-.72.6-1.08l2.49-4.59q.33-.58.66-1.2c.23-.4.39-.84.59-1.26.38-.85.77-1.72,1.17-2.59s.78-1.74,1.17-2.59c.18-.43.4-.85.55-1.28s.32-.86.47-1.29l1.79-4.9c.14-.4.29-.78.41-1.16s.22-.78.32-1.16c.22-.76.42-1.49.63-2.21.4-1.42.78-2.74,1.12-4l1.24-5.84A12.5,12.5,0,0,1,517.94,135.5Z"></path></g><path d="M544.64,204.32a1.92,1.92,0,0,0-1,2.39c.64,1.81,1.68,4.66,2.45,6.38a4.81,4.81,0,0,0,.95,1.53,1.59,1.59,0,0,0,1.62.45,1.73,1.73,0,0,0,1-1.53,5,5,0,0,0-.35-1.9c-.54-1.69-1.48-4.23-2.29-6.29a1.78,1.78,0,0,0-2.35-1Z" fill="#fed0bc"></path><path d="M542.11,207.67a1.9,1.9,0,0,0-1,2.38c.64,1.81,1.68,4.66,2.45,6.38a4.86,4.86,0,0,0,1,1.54,1.61,1.61,0,0,0,1.62.44,1.75,1.75,0,0,0,1-1.53,5.2,5.2,0,0,0-.35-1.9c-.54-1.69-1.48-4.23-2.29-6.29a1.77,1.77,0,0,0-2.35-1Z" fill="#fed0bc"></path><path d="M539.67,209.79a1.61,1.61,0,0,0-.9,2.06c.58,1.57,1.51,4,2.21,5.53a4.23,4.23,0,0,0,.86,1.33,1.33,1.33,0,0,0,2.34-1,4.3,4.3,0,0,0-.31-1.64c-.49-1.46-1.35-3.66-2.07-5.45a1.63,1.63,0,0,0-2.13-.88Z" fill="#fed0bc"></path><path d="M536.46,210.5a1.64,1.64,0,0,0-.91,2.08c.58,1.57,1.52,4,2.23,5.55a4.06,4.06,0,0,0,.86,1.33,1.34,1.34,0,0,0,2.35-.94,4.24,4.24,0,0,0-.31-1.65c-.5-1.48-1.35-3.68-2.09-5.48a1.63,1.63,0,0,0-2.13-.89Z" fill="#fed0bc"></path><path d="M546.87,214.7c-.17.07-.93-1.35-1.69-3.18s-1.24-3.36-1.07-3.43.93,1.35,1.69,3.17S547,214.62,546.87,214.7Z" fill="#f4a57f"></path><path d="M544.11,217.47c-.17.07-1-1.57-1.81-3.66s-1.36-3.84-1.19-3.92,1,1.57,1.81,3.67S544.28,217.4,544.11,217.47Z" fill="#f4a57f"></path><path d="M541.23,217.84c-.16.09-1.06-1.29-1.83-3.15s-1.13-3.47-.95-3.52.81,1.43,1.57,3.26S541.4,217.75,541.23,217.84Z" fill="#f4a57f"></path><path d="M662.58,471.82l-8.79-70.5c5.73-13.36,7.8-26.7,6.13-35,.1.87.14,1.95-.09-.49-1.43-14.68-14.1-25.47-14.1-25.47l-4.24-17.81-54.29,7.63L589.26,360,554.13,483.7l-6.38,104.56,28.36,3.33s11.12-52.29,14.12-74.14a302.9,302.9,0,0,0,2.82-35.75l26.65-39.87c3.16,16.46,6.72,36.77,8.56,47.37a27.82,27.82,0,0,0,5.91,12.91l64.43,50.7a3.28,3.28,0,0,0,5.31-2.58V523.94C697.28,508.1,662.58,471.82,662.58,471.82Z" fill="#373660"></path><path d="M640.25,241.63c.11,0,.1-1.36.47-3.5a24.28,24.28,0,0,1,2.84-7.91,13.37,13.37,0,0,1,5.77-5.88,8.15,8.15,0,0,1,3.39-.54,2.09,2.09,0,0,0-.93-.25,5.74,5.74,0,0,0-2.63.36c-2.16.76-4.54,3-6.17,6a21.79,21.79,0,0,0-2.73,8.17A10.36,10.36,0,0,0,640.25,241.63Z" fill="#263238"></path><path d="M635.77,220.68l-28.44,4.41-5.06,4.39s-17.9,34.85-18.23,41.88c-.36,7.78,3.81,21.13,3.81,21.13l-4.09,30.79c-.61,3.53,1.69,6.93,3.23,6.93l49.13-6.59c6.4-1.26,9-4.61,8.64-8.31l-.74-6.86,21-70.27c1.24,4.15-.7-11.2-10.07-14.64C651,222.08,641.8,219.42,635.77,220.68Z" fill="#ff6d60" data-secondary="true"></path><path d="M604.89,227.41s-8.75,6.74-17,14.42-30.38,23-30.38,23L556,232.74l-16.68-2.25s-8.15,40-3,51.07,11.35,11.52,28.53,6,22.1-8,22.1-8Z" fill="#ff6d60" data-secondary="true"></path><path d="M649.59,223.54s-8.85,11.6-9.33,22.24,15.88,74.42,15.88,74.42l14.36,58.23,17.87-6.6s-4.16-41.45-5-46.6c-1.65-10.72-8.72-31.63-9.69-43.72s-5.44-35.36-7.66-40.81S663.78,223.24,649.59,223.54Z" fill="#ff6d60" data-secondary="true"></path><g opacity="0.2"><path d="M639.71,322.65c-2.82-2.82-3.41-7.12-3.85-11.08q-2.1-18.94-4.22-37.88c-.87-7.87-1.7-16.12,1.27-23.46a4,4,0,0,1,2.25-2.61,2.9,2.9,0,0,1,3,1.22c.68.91,2.6,2.21,2.88,3.31,2.87,11.25,4.11,22.33,7,33.59.76,3,1.74,2.86,1.09,5.85-1,4.36-5,16.86-5,16.86s.59,4.53.76,7.19a6.87,6.87,0,0,1-5.07,7"></path></g><path d="M642.35,257.93a4,4,0,0,0,1,.7,21.87,21.87,0,0,0,2.89,1.55,10.32,10.32,0,0,0,4.8,1,11.66,11.66,0,0,0,5.58-2.2,41.34,41.34,0,0,1,5-3.11,7.27,7.27,0,0,1,4.51-.74,5.2,5.2,0,0,1,2.76,1.38c.51.54.69.94.74.92a2.15,2.15,0,0,0-.55-1.09,5.06,5.06,0,0,0-2.85-1.67,7.64,7.64,0,0,0-4.86.64,36.17,36.17,0,0,0-5.07,3.12,11.4,11.4,0,0,1-5.26,2.14,10.29,10.29,0,0,1-4.58-.79C643.87,258.72,642.41,257.82,642.35,257.93Z" fill="#fafafa"></path><path d="M586.94,256.57s.07.18.26.48a6.75,6.75,0,0,0,1,1.22,10.8,10.8,0,0,0,5,2.8,17.62,17.62,0,0,0,8.44.12,85.33,85.33,0,0,0,9.82-3.16,32.48,32.48,0,0,1,18.23-1.23,49.08,49.08,0,0,1,7.3,2.43,1.74,1.74,0,0,0-.46-.29c-.3-.17-.76-.43-1.37-.71a28.4,28.4,0,0,0-5.37-1.88,30.91,30.91,0,0,0-8.4-.91,32.62,32.62,0,0,0-10.15,2,92.14,92.14,0,0,1-9.73,3.19,17.57,17.57,0,0,1-8.2,0,11.13,11.13,0,0,1-4.89-2.53C587.38,257.18,587,256.53,586.94,256.57Z" fill="#fafafa"></path><path d="M576.49,250.93a6.93,6.93,0,0,0-.13,2.66,16.35,16.35,0,0,0,5.89,11.18,6.91,6.91,0,0,0,2.27,1.39,25.63,25.63,0,0,0-2-1.74,19.15,19.15,0,0,1-3.79-4.95,18.9,18.9,0,0,1-1.94-5.93A20.66,20.66,0,0,0,576.49,250.93Z" fill="#fafafa"></path><g opacity="0.2"><path d="M593.93,238c-13.43,13.48-24.15,31.15-29.1,49.52,7.67-2.51,14.9-4.93,19.69-6.93,0,0-2.23-10.26-1.36-14.72,1.06-5.45,1.06-10,10.77-27.87"></path></g><path d="M607.38,213.74a46,46,0,0,0,19.08-5.22s-1.89,12.32-19,8.61Z" fill="#f4a57f"></path><ellipse cx="614.2" cy="179.52" rx="23.4" ry="36.15" fill="#fed0bc"></ellipse><path d="M636.46,208.57c4.35,1.2,8.57-.28,12.14-3.06a14.8,14.8,0,0,0,5.6-11.82c-.09-4.22-2-8.52-.69-12.53.9-2.75,3.21-4.9,4-7.69,1.15-4.17-1.37-8.39-3.78-12a27.86,27.86,0,0,0-5.27-6.4,9.48,9.48,0,0,0-7.72-2.29"></path><path d="M645.82,158.05c.08-2.89-2.59-5.13-5.28-6.18s-5.68-1.46-8.07-3.08c-2.13-1.42-3.55-3.65-5.35-5.47a17.79,17.79,0,0,0-29.92,8.16c-1,4.11-.33,9,2.91,11.71,3.77,3.17,9.35,2.47,14.17,1.48s10.28-2,14.31.87c2.43,1.71,3.82,4.49,5.31,7.06s3.34,5.2,6.15,6.17,6.62-.71,6.73-3.67"></path><path d="M644,203.86a12.2,12.2,0,0,1-14.52-13.5c.43-3.37,2.25-6.81,1.08-10-1.55-4.23-7.47-5.53-9-9.74-.91-2.45-.09-5.32-1.13-7.72s-3.35-3.56-5.66-4.39-4.79-1.42-6.73-2.93-3.15-4.35-1.9-6.47a130.42,130.42,0,0,1,30,7.3c2.25.84,4.6,1.84,5.93,3.84s1.34,4.83,1.22,7.36q-.87,18.52-1.73,37"></path><path d="M602.79,193.27l0,0-.29-.15.17-.27c2.6-4.29,3-13.7,3-13.79l.61,0c0,.39-.41,9.27-2.94,13.79a6.69,6.69,0,0,0,3.83.58l.13.59A7.46,7.46,0,0,1,602.79,193.27Z" fill="#f4a57f"></path><path d="M601.89,171.25a9.62,9.62,0,0,0-5.61-1.33c-1.4.12-2.67.52-2.66,1.61,0,0-.43,1.38,8.59-.1Z"></path><path d="M600.47,176.86c-.05,1.47-.88,2.6-1.84,2.57s-1.67-1.26-1.6-2.73.88-2.57,1.84-2.54S600.54,175.42,600.47,176.86Z"></path><path d="M609.83,173.79a9.66,9.66,0,0,1,5.5-1.75c1.4,0,2.69.31,2.77,1.4,0,0,.53,1.35-8.57.55Z"></path><path d="M616.12,180c0,1.47-.88,2.6-1.84,2.57s-1.67-1.26-1.59-2.73.87-2.58,1.84-2.54S616.19,178.56,616.12,180Z"></path><path d="M601.9,199.88c.53.1,1.11.19,1.74.25s1.24.07,1.83.08c1.68,0,3.26,0,3.72,1.32a2.86,2.86,0,0,1-.48,2.23,5,5,0,0,1-3.7,2.3,7.49,7.49,0,0,1-1.64,0,5.6,5.6,0,0,1-4-2.4,3.73,3.73,0,0,1-.71-2.92,1.35,1.35,0,0,1,1.24-1A7.37,7.37,0,0,1,601.9,199.88Z" fill="#f4a57f"></path><path d="M603.6,200.62c2.34.22,4.64-.22,5.12,1.09.35.92-1.08,4.33-5.29,3.86-2.94-.34-4.71-3.07-4.27-4.71C599.48,199.63,601.25,200.41,603.6,200.62Z"></path><path d="M608.64,202.75c-.45,1.33-2,3.18-5.21,2.82a5.21,5.21,0,0,1-3.37-1.82A7,7,0,0,1,608.64,202.75Z"></path><path d="M608.72,201.71a1,1,0,0,1,0,.33c-3.53,1.76-8,1-8.67-1.85.8-.05,2,.3,3.51.43C605.94,200.84,608.24,200.4,608.72,201.71Z" fill="#fff"></path><path d="M258.35,596.53,257.6,617s-11,6.82-21,.18l-.83-19.67Z" fill="#fed0bc"></path><path d="M191.35,635.08l68.54-2.88-.83-19.74a1.73,1.73,0,0,0-1.55-1.66,5,5,0,0,0-4.44,1.46,4.93,4.93,0,0,1-4.08,1.89c-2.14-.18-4.82-1.24-6.35-5,0,0-4.64-9.53-11.09-1l-17,16.83a11.16,11.16,0,0,1-9.05,3.23C201,627.67,194.39,628.3,191.35,635.08Z" fill="#008e5e" data-primary="true"></path><rect x="188.07" y="633.65" width="74.83" height="7.05" rx="2.6" transform="translate(-26.52 10.02) rotate(-2.4)" fill="#373660"></rect><path d="M271.71,596.93l2.13,20.35s11.39,6.05,20.93-1.25l-.5-19.68Z" fill="#fed0bc"></path><path d="M341.16,630.86l-68.57,1.76-.51-19.75a1.73,1.73,0,0,1,1.43-1.76,5,5,0,0,1,4.53,1.16,4.91,4.91,0,0,0,4.2,1.6c2.12-.31,4.72-1.56,6-5.46,0,0,4-9.83,11-1.74l18.07,15.64a11.17,11.17,0,0,0,9.25,2.61C331,624.12,337.66,624.3,341.16,630.86Z" fill="#008e5e" data-primary="true"></path><rect x="269.84" y="631.73" width="74.83" height="7.05" rx="2.6" transform="translate(630.74 1262.4) rotate(178.53)" fill="#373660"></rect><rect x="410.46" y="494.87" width="12.62" height="103.42" fill="#ff6d60" data-secondary="true"></rect><rect x="410.46" y="494.87" width="12.62" height="103.42" opacity="0.4"></rect><rect x="409.64" y="496.61" width="14.81" height="10.24" fill="#ff6d60" data-secondary="true"></rect><rect x="409.64" y="570.87" width="14.81" height="27.43" fill="#ff6d60" data-secondary="true"></rect><path d="M365.61,621.62a9.06,9.06,0,1,1-9.06-9.06A9.06,9.06,0,0,1,365.61,621.62Z" fill="#ff6d60" data-secondary="true"></path><polygon points="356.71 621.07 409.91 598.57 409.91 578 356.42 612.01 356.71 621.07" fill="#ff6d60" data-secondary="true"></polygon><path d="M468.44,621.62a9.05,9.05,0,1,0,9.05-9.06A9,9,0,0,0,468.44,621.62Z" fill="#ff6d60" data-secondary="true"></path><polygon points="477.34 621.07 424.13 598.57 424.13 578 477.63 612.01 477.34 621.07" fill="#ff6d60" data-secondary="true"></polygon><path d="M425.66,621.62a9.05,9.05,0,1,1-9.05-9.06A9,9,0,0,1,425.66,621.62Z" fill="#ff6d60" data-secondary="true"></path><polygon points="419.08 621.89 414.14 621.89 409.57 576.9 423.65 576.9 419.08 621.89" fill="#ff6d60" data-secondary="true"></polygon><path d="M450.24,466.62,407.62,314.4A17,17,0,0,0,391.29,302h-77a12,12,0,0,1-1.5,6.05l53.62,169,137.46-.41Z" fill="#ff6d60" data-secondary="true"></path><path d="M314.64,302h0a11.15,11.15,0,0,1,10.82,8.47l41,166.55H352.3c-5.32,0-8.89,7.91-10.15,2.75l-38.33-164A11.14,11.14,0,0,1,314.64,302Z" fill="#ff6d60" data-secondary="true"></path><path d="M314.64,302h0a11.15,11.15,0,0,1,10.82,8.47l41,166.55H352.3c-5.32,0-8.89,7.91-10.15,2.75l-38.33-164A11.14,11.14,0,0,1,314.64,302Z" opacity="0.4"></path><path d="M504.27,476.58v15.5a7.91,7.91,0,0,1-7.9,7.92H350.25a7.93,7.93,0,0,1-7.92-7.92V480.55a4,4,0,0,1,4-4Z" fill="#ff6d60" data-secondary="true"></path><path d="M504.27,476.58v15.5a7.91,7.91,0,0,1-7.9,7.92H350.25a7.93,7.93,0,0,1-7.92-7.92V480.55a4,4,0,0,1,4-4Z" opacity="0.4"></path><path d="M504.27,476.58v15.5a7.91,7.91,0,0,1-7.9,7.92H431.76a9.06,9.06,0,0,1-9-9.07V481.7a5.12,5.12,0,0,1,5.11-5.12Z" fill="#ff6d60" data-secondary="true"></path><polygon points="503.88 476.63 366.43 476.49 450.24 466.62 503.88 476.63" opacity="0.4"></polygon><rect x="350.78" y="382.35" width="108.28" height="89.23" transform="translate(-53.86 58.48) rotate(-7.75)" fill="#008e5e" data-primary="true"></rect><path d="M264,602.33l-2.7-184.79L267,602.75h33.84c2.2-35.35,12.76-192.93,11.1-223.43,0,0-1.52-20.67-7.84-40.29H219c-3.41,8.58-8.65,24.89-8,42.82.83,23,17.2,183.87,20.2,220.69Z" fill="#373660"></path><path d="M284.82,202.11a41.09,41.09,0,0,1,.09-10.43h0a8.76,8.76,0,0,1,1.32-3.65L272,179.29l-16,3.76c.49,1,.82,4.91.84,6.41l-.11-2.59a63.49,63.49,0,0,1-1.44,12.92c-1.31,5.05-2.94,9.33-2.94,9.33l16.64,6.5,17.2-3.84S285.32,207.3,284.82,202.11Z" fill="#fed0bc"></path><path d="M256.56,184.65s9.75,10.1,28.84,5C285.4,189.68,269,207.45,256.56,184.65Z" fill="#f4a57f"></path><path d="M253.2,205.63s15.07,13.64,32.68,2.38c0,0,9,5.23,17.13,5.71l-3,71.54L297.3,316.5l10.15,29.67S248.6,356.48,217,340l12.69-33s-2.7-84.23-5.56-94.54A154.22,154.22,0,0,0,253.2,205.63Z" fill="#fff"></path><path d="M373.48,292.25l-36.68-.66s-12.39-62-19.67-70.42-31.53-18.73-32.3-19l2.06,2.38.36,0a13.17,13.17,0,0,1,6.91,3.85,17,17,0,0,1,11.23,8.34,39.61,39.61,0,0,1,4.1,2.62c4,3,4.07,7.95,0,11-1.54,1.12-3.07,2.19-4.66,3.24l-1.89,1.23a3.74,3.74,0,0,1-.4.4,15.18,15.18,0,0,1,1,2.55c1.25,4.57-.11,9.25-1.58,13.55-2,5.71-1.84,11.18-2.53,17.11-.54,4.79-1.8,9.7-.11,14.39a5.23,5.23,0,0,1-1,5.69,89.21,89.21,0,0,0,7.55,18,11.06,11.06,0,0,1,8.48-4.31v0h62.33Z" fill="#008e5e" data-primary="true"></path><g opacity="0.2"><path d="M335.47,292.08a4.29,4.29,0,0,1-1.86,1.53,4.2,4.2,0,0,1-2.37.37,4.19,4.19,0,0,1,1.85-1.53A4.25,4.25,0,0,1,335.47,292.08Z"></path><path d="M336.32,292.5a2.18,2.18,0,1,1-1,1.31A2.15,2.15,0,0,1,336.32,292.5Z"></path></g><path d="M394.47,299.48a16.47,16.47,0,0,0-4.22-2.33s-7.94-5.14-16.77-4.9h-.09c-.31,0-1.47.07-3.32.13-.34,3.25-.86,6.52-1.36,9.77h5c1.84,1.52,9.27,7.53,11.85,7.9,3,.43-.84-6.34-.84-6.34s3.38-1.27,5.71-.85,11,2.56,11,2.56S398.49,300.54,394.47,299.48Z" fill="#fed0bc"></path><path d="M285.58,208.09s-.54-1.41-.76-6l28.65,16.69L299.2,310.32l18.72,70.27s-17.77,6.5-37.91,2.22l-5.55-91.21Z" fill="#008e5e" data-primary="true"></path><g opacity="0.2"><path d="M284.92,202c3.67,2.57,7.26,5.24,10.83,7.93s7.08,5.48,10.46,8.45c.84.74,1.67,1.51,2.46,2.32a16.31,16.31,0,0,1,1.15,1.31,3.16,3.16,0,0,1,.48.88,1.33,1.33,0,0,1,.08.61,3.29,3.29,0,0,1-.14.54,8.31,8.31,0,0,1-2.31,2.73c-.88.74-1.79,1.41-2.71,2.06a119.9,119.9,0,0,1-11.58,6.91l.07-1a54.5,54.5,0,0,1,6.85,5.44,6.17,6.17,0,0,1,1.43,2,1.32,1.32,0,0,1-.05,1l-.25.48-.5,1-2,3.83-8,15.32c-5.37,10.18-10.74,20.37-16.27,30.48,5-10.38,10.18-20.68,15.34-31l7.85-15.4,2-3.85.49-1,.25-.48c-.05.07,0,.09-.05,0a5.29,5.29,0,0,0-1.15-1.47,56.82,56.82,0,0,0-6.64-5.34h0a.6.6,0,0,1-.14-.85.61.61,0,0,1,.21-.18,118.74,118.74,0,0,0,11.49-6.75c.91-.63,1.81-1.28,2.65-2a8,8,0,0,0,2-2.28,2,2,0,0,0,.08-.27c0-.07,0-.12,0-.21a2.29,2.29,0,0,0-.32-.58,13.14,13.14,0,0,0-1-1.24c-.74-.8-1.54-1.58-2.36-2.33-3.27-3-6.74-5.84-10.2-8.67S288.44,204.75,284.92,202Z"></path><path d="M301.84,296.73c.26-3.64.66-7.25,1.08-10.87s.92-7.22,1.44-10.82,1.1-7.19,1.77-10.77,1.31-7.16,2.27-10.68l-1.31,10.83c-.44,3.61-1,7.21-1.48,10.81s-1.09,7.19-1.73,10.77S302.62,293.17,301.84,296.73Z"></path><path d="M276,297.79l3,27.74c1,9.24,1.94,18.49,3.07,27.71.52,4.62,1.07,9.23,1.72,13.83.33,2.29.68,4.59,1.1,6.86.22,1.13.45,2.27.74,3.37a9.39,9.39,0,0,0,.51,1.55,1.23,1.23,0,0,0,.15.27s.05.06,0,0h.07c.27,0,.52.06.8.07,4.58,0,9.25-.46,13.86-.85s9.26-.85,13.9-1.27c-4.6.71-9.22,1.3-13.83,1.89s-9.22,1.11-13.95,1.21c-.3,0-.63,0-.94-.06,0,.06-.64-.21-.67-.36a2.41,2.41,0,0,1-.3-.47,11.72,11.72,0,0,1-.63-1.73c-.32-1.15-.56-2.3-.78-3.44-.45-2.3-.82-4.6-1.17-6.9-.69-4.61-1.28-9.23-1.84-13.85-1-9.25-2-18.5-2.77-27.77S276.56,307.08,276,297.79Z"></path></g><path d="M253.66,205.55s1.16-.18,1.7-5.76l-32,11.23s-3.33,36.8-2.22,48.54,7.77,46.79,7.77,46.79l-25.06,69s27.92,14.75,48.7,7.93c0,0,14.27-82.48,14.59-90.25S253.66,205.55,253.66,205.55Z" fill="#008e5e" data-primary="true"></path><g opacity="0.2"><path d="M254.89,199.87c-3.24,3.08-6.49,6.16-9.68,9.29s-6.39,6.26-9.4,9.54c-.75.82-1.49,1.66-2.17,2.52a11.76,11.76,0,0,0-.95,1.31,2.83,2.83,0,0,0-.32.62c-.05.09,0,.15,0,.22s0,.17.08.26a7.89,7.89,0,0,0,2.05,2.28c.84.71,1.73,1.36,2.64,2a122.25,122.25,0,0,0,11.5,6.75.6.6,0,0,1,.26.82.63.63,0,0,1-.18.21h0A57.66,57.66,0,0,0,242,241a5.29,5.29,0,0,0-1.15,1.47c0,.1,0,.08,0,0l.25.48.49,1,2,3.85,7.85,15.4c5.17,10.31,10.34,20.61,15.35,31-5.54-10.11-10.9-20.3-16.28-30.48l-8-15.32-2-3.83-.5-1-.25-.48a1.32,1.32,0,0,1,0-1,6.17,6.17,0,0,1,1.43-2,56,56,0,0,1,6.85-5.44l.07,1a119.9,119.9,0,0,1-11.58-6.91c-.92-.65-1.84-1.33-2.71-2.07a8.35,8.35,0,0,1-2.32-2.73,4,4,0,0,1-.13-.55,1.43,1.43,0,0,1,.08-.6,3.71,3.71,0,0,1,.44-.87,16.66,16.66,0,0,1,1-1.38c.73-.87,1.49-1.7,2.27-2.51,3.12-3.24,6.37-6.32,9.68-9.34S251.49,202.77,254.89,199.87Z"></path><path d="M265.47,298.63c-2.09,9.9-4.37,19.75-6.75,29.58s-4.91,19.62-7.59,29.38c-1.38,4.87-2.8,9.73-4.41,14.54a57.79,57.79,0,0,1-2.77,7.14,8.86,8.86,0,0,1-.5.88,2.22,2.22,0,0,1-.89.85,5.43,5.43,0,0,1-2.08.31,25.75,25.75,0,0,1-3.85-.37c-10-1.75-19.7-4.75-29.32-7.86,4.87,1.33,9.75,2.65,14.67,3.83s9.82,2.37,14.79,3.07a27.44,27.44,0,0,0,3.7.27,4.73,4.73,0,0,0,1.64-.24c.24-.09.61-.73.87-1.24a60.9,60.9,0,0,0,2.65-7c1.55-4.8,2.93-9.66,4.28-14.52,2.77-9.72,5.29-19.5,7.87-29.28Z"></path></g><path d="M266,249.21l-4.3,1.46c-1.64.51-3.89,1.37-5.17,1.81-.77.23-1.7.56-2.59.89l-.06-.16,3.46-1.24a53.78,53.78,0,0,0,5.46-2.35c1.41-.69,2.54-1.28,3.62-1.78,2.26-1,1-3.57-1.4-2.73-.82.29-2.72,1.1-4.3,1.73-1.77.72-3.36,1.29-4.59,1.71s-2.59.89-3.75,1.32l-.06-.11a11.28,11.28,0,0,1,1.44-.59c2.11-.87,3.94-1.66,5.29-2.24a39.45,39.45,0,0,0,4.07-2.1c2.19-1.28,1.21-3.55-1.31-2.58-.66.27-2.54,1-4.22,1.65s-3.81,1.55-5.08,2.06c-.91.32-2.05.79-3.07,1.23s-2.22.83-3.62,1.32a4.25,4.25,0,0,1,2.1-2.91c2.72-1.87,4.44-3.81,3.53-5.09-1.09-1.51-2.82.1-5.74,2.12-3.88,2.7-8,5.86-10,10.55h0c-2.35,3.49,1.09,9.48,3.68,9.64,3.67.23,11.24-1.29,15.27-2.74,1-.19,2-.4,2.6-.6,1.79-.54,3.67-1.21,4.9-1.68a23.8,23.8,0,0,0,4.14-2.05c1.76-1.34.44-2.94-1.51-2.06-.68.3-2.28,1-3.69,1.4s-3.35,1-4.45,1.18l-.95.2a16.46,16.46,0,0,1,1.94-.72c2.14-.78,4-1.47,5.39-2a42.92,42.92,0,0,0,4.16-1.9C269.37,250.68,268.51,248.36,266,249.21Z" fill="#fed0bc"></path><path d="M221.79,210.71c-4.6,2.06-53.77,41.4-53,60s19.66,16.82,24,16.18,48.06-21.73,48.06-21.73l-2.38-16.18L230,250.52s1.24-1.13,3.13-2.93a6.5,6.5,0,0,1-.95-.73,5.44,5.44,0,0,1-1.41-6.66,7.89,7.89,0,0,1-2.27-2.43A7.77,7.77,0,0,1,228,231c-4.6-3.39-5.53-9.68.45-14.85,3.65-3.16,5.09-4.72,9.84-6.15,3.95-4.91,10.3-7.4,16.45-9.44l.61-.77S226.39,208.65,221.79,210.71Z" fill="#008e5e" data-primary="true"></path><g opacity="0.2"><path d="M238.18,248.93c-2.6.89-5.23,1.65-7.87,2.38s-5.29,1.4-7.95,2.05-5.33,1.24-8,1.76l-4,.78c-1.35.21-2.7.47-4.06.65,1.3-.46,2.61-.84,3.92-1.26l4-1.12c2.64-.75,5.29-1.4,7.95-2s5.33-1.23,8-1.76S235.46,249.31,238.18,248.93Z"></path><path d="M207.52,253a10.38,10.38,0,0,1,3.81,0,10.15,10.15,0,0,1,3.59,1.26,11.42,11.42,0,0,1-7.4-1.27Z"></path><path d="M223.17,273.25a67.82,67.82,0,0,1,8.5-4.8,65.32,65.32,0,0,1,9.05-3.65,65.91,65.91,0,0,1-8.5,4.8A66.59,66.59,0,0,1,223.17,273.25Z"></path></g><ellipse cx="273.83" cy="155.31" rx="27.31" ry="38.1" fill="#fed0bc"></ellipse><path d="M280,155.15c-.17,2.11.53,3.89,1.56,4s2-1.57,2.17-3.68-.53-3.89-1.57-4S280.17,153,280,155.15Z"></path><path d="M267.56,154.17c-.16,2.11-1.13,3.75-2.17,3.67s-1.73-1.86-1.56-4,1.14-3.76,2.17-3.67S267.73,152.05,267.56,154.17Z"></path><path d="M312.85,202.49c-.8-3.88-2.76-7.41-4.68-10.89s-3.69-6.82-4.4-10.58c5.61-6.92,9-16.55,8-28.94a40.46,40.46,0,0,0-8.1-21.6c-13.2-17.35-38-21.38-55-7.68A44.12,44.12,0,0,0,236.49,139c-5.89,12.8-4.66,23.43.07,31.85a18.85,18.85,0,0,1-1.63,4c-3.64,6.59-10.81,10.79-13.93,17.65-2.63,5.77-1.86,12.37.53,18.38l.26-.14c4.47-2,31.78-10.38,33.48-10.9l.09,0a64.25,64.25,0,0,0,1.43-12.39h0c0-.15-.21-2.59-.23-2.74-4-4.27-7.27-10.41-9.14-19.33-1.4-.08-3.81.61-4.22.42-1.76-.84-.25-2.92-1.18-4.62-.71-1.31.55-.4.6-1.87,0-.41.9-.66,1-1.05.05-.2.68.13.74-.08s-.38.37-.29.15c1.1-2.71-1.71-6.67,1.19-5.69.29.09,1.1-1.17,1.65-.81A64.76,64.76,0,0,0,250,158.2l.42-5.92c5.5-1.16,4.81-15.49,10.52-19.14s9.52.64,9.52.64,8.86,15,23.3,15.36c.77,2.42,1.72,4.87,2.63,5.83l-2.16,5.53a66,66,0,0,0,6.34-5.15c2.94-.36,5.64,2.05,6.29,4.83a8.05,8.05,0,0,1-1.56,6.6c-.17.22-.36.43-.55.65a7.25,7.25,0,0,1-.62.62,9.77,9.77,0,0,1-3.72,2.2c-.24.07-.67-.41-1.41-.37-1.59,6.59-6.93,16-13.62,19.79v0h0a14.57,14.57,0,0,0-.48,2h0a41.55,41.55,0,0,0-.09,10.43h0c.73.32,16.7,7.18,26.57,14.16A25.59,25.59,0,0,0,312.85,202.49Z"></path><ellipse cx="244.94" cy="158.8" rx="5.4" ry="7.64" fill="#fed0bc"></ellipse><ellipse cx="301.82" cy="162.84" rx="7.64" ry="5.4" transform="translate(90.06 432.61) rotate(-80.22)" fill="#fed0bc"></ellipse><text transform="translate(365.93 424.15) rotate(-7.85)" font-size="31.93" fill="#fff" font-family="Poppins-Bold, Poppins" font-weight="700">JOIN <tspan x="11.16" y="31.9">US !</tspan></text><path d="M259.78,144.43a10.6,10.6,0,0,1,5.41-4.05c1.57-.49,3.13-.59,3.64.69,0,0,1.13,1.42-9.3,3.72Z"></path><path d="M276.92,161.35h0l.29-.13-.14-.28c-2.2-4.41-1.84-13.66-1.84-13.75l-.59,0c0,.38-.35,9.11,1.76,13.75a6.52,6.52,0,0,1-3.79.25l-.18.57A7.4,7.4,0,0,0,276.92,161.35Z" fill="#f4a57f"></path><path d="M276.31,168.27c-.5.08-1.06.17-1.66.22s-1.19,0-1.77.06c-1.61,0-3.12,0-3.58,1.24a2.75,2.75,0,0,0,.44,2.14,4.71,4.71,0,0,0,3.53,2.24,6.92,6.92,0,0,0,1.58,0,5.4,5.4,0,0,0,3.86-2.27,3.57,3.57,0,0,0,.7-2.8,1.31,1.31,0,0,0-1.18-1A6.79,6.79,0,0,0,276.31,168.27Z" fill="#f4a57f"></path><path d="M274.68,169c-2.26.19-4.46-.25-4.93,1-.34.89,1,4.17,5,3.75,2.83-.3,4.55-2.89,4.15-4.47C278.64,168.05,276.94,168.78,274.68,169Z"></path><path d="M269.75,170a.78.78,0,0,0,0,.32c3.37,1.72,7.66,1,8.34-1.7-.76-.06-2,.27-3.37.38C272.42,169.15,270.22,168.71,269.75,170Z" fill="#fff"></path><path d="M582.6,185.52l-3.12,6.37-1.4,2.85a8.18,8.18,0,0,1-10.56,3.93L546.59,192l11.28-27.9,21,10.45A8.18,8.18,0,0,1,582.6,185.52Z" fill="#008e5e" data-primary="true"></path><g opacity="0.2"><path d="M582.6,185.52l-3.12,6.37-1.4,2.85a8.18,8.18,0,0,1-10.56,3.93L546.59,192l11.28-27.9,21,10.45A8.18,8.18,0,0,1,582.6,185.52Z"></path></g></svg>