<svg id="aa540282-8f0e-488c-abdf-5dd570612af9" data-name="a9773d8a-953a-4c5d-8fca-d678f5903e1a" xmlns="http://www.w3.org/2000/svg" width="865.76" height="682.89" viewBox="0 0 865.76 682.89"><rect x="558.13" y="27.17" width="252.88" height="201.69" fill="#008e5e" data-primary="true"></rect><g opacity="0.2"><polygon points="722.06 148.64 702.7 149.99 702.7 170.68 724.06 169.34 722.06 148.64"></polygon><polygon points="652.03 94.91 632.67 96.24 632.67 116.93 654.03 115.6 652.03 94.91"></polygon><polygon points="612.95 139.29 593.59 140.62 593.59 161.33 614.95 160 612.95 139.29"></polygon></g><rect x="558.13" y="222.66" width="252.88" height="6.19" opacity="0.2" style="isolation:isolate"></rect><path d="M757.05,163.86c.11.19,2.6-1.76,2.73-1.6.25.45-10.32,9.23-10.06,9.62.56,1,20.59-13.14,21.14-12.21s-24.19,16.28-23.54,17.4c.83,1.43,28.6-18,29.28-16.9s-30.87,18.6-30.15,19.85,32.36-20.46,33.15-19.13-34.47,19.94-33.68,21.41,35-22.05,35.78-20.65-36.79,24.36-36,25.66c1,1.84,39.61-25,40.54-23.42s-41.35,23-40.46,24.55,40.39-25.65,41.42-23.91c.88,1.51-42.31,23.93-41.26,25.74s41.69-26.52,42.77-24.69S746,192.93,746.87,194.44c1.09,1.88,43.94-27.81,45-26s-45.17,26.62-44,28.64,44.63-28.59,45.86-26.47c1,1.76-46.5,25.5-45.59,27.13,1.13,1.94,44.9-28.5,46-26.57s-46.73,25.66-45.67,27.47c1.24,2.12,45.08-28.55,46.17-26.65,1,1.6-46.75,25.78-45.72,27.55s45.21-28.53,46.27-26.7S750,201,751.16,203.07c1,1.75,44.81-28.55,46-26.54s-45.62,26.36-44.58,28.16S797,176.74,798,178.49s-45.34,25.75-44.39,27.39c1.17,2,43.83-27.62,44.82-25.89s-42.74,26.9-41.69,28.69,41.4-26.59,42.56-24.57c.93,1.61-43.38,22.9-42.31,24.75s41.33-26,42.39-24.15-43.16,22.9-42.21,24.53,41.15-26.22,42.22-24.36c.92,1.61-38.9,25.32-38,26.94s37.09-23.75,38.1-22c.75,1.32-35.41,22-34.56,23.46s33.31-21,34.06-19.67-34.25,18.52-33.46,19.88,32.42-20.84,33.34-19.24c.77,1.31-27.49,19.35-26.86,20.43s24-15.44,24.69-14.26c.48.84-18.42,13.17-18,14s13.83-8.93,14.24-8.21c.2.32-8.67,6.13-8.45,6.42s4.12-2.74,4.29-2.47-3.34,1.92-3.21,2,2.58-1.78,2.71-1.61" fill="#008e5e" data-primary="true"></path><path d="M750.73,42c.11.2,2.6-1.77,2.71-1.61.26.47-10.79,9.94-10.49,10.46.52.88,21.94-14,22.45-13S741.82,51,742.34,51.93s23.67-15,24.27-14-26,15.65-25.44,16.63c.77,1.33,27.67-17.46,28.31-16.34s-30.62,20.85-29.86,22.15,34.68-22.23,35.63-20.58c.75,1.29-36.67,20.85-35.79,22.34s36.48-23.28,37.44-21.62c.82,1.41-38.32,23.75-37.54,25.12S779.05,40.54,780,42.16s-41.45,23-40.52,24.62,40.39-25.87,41.48-24-42.26,23.79-41.39,25.3c1,1.78,41.52-26.19,42.46-24.52S738.61,67,739.62,68.8s42-26.56,43-24.81-44,23.33-42.89,25.26,42.21-26.62,43.19-24.94S739.12,69.21,740.15,71s43.12-27.26,44.11-25.48c1.14,2-45,24.13-44,25.85,1.22,2.1,43.3-27.26,44.32-25.58s-44.68,26.27-43.7,28c1.14,2,44.2-28.18,45.35-26.19,1,1.72-45,27.77-43.87,29.68s45.09-28.57,46.18-26.67-45.17,28.32-44.21,30S789.33,52,790.48,54s-47.1,25-46,26.92,45.06-28.38,46.09-26.6-45.81,26.54-44.9,28.16c1.09,1.89,44.6-28.16,45.64-26.35S746.07,82.33,747.16,84.2s43.84-27.77,44.91-26-44.9,25.05-43.82,27,43-27.51,44.18-25.52S750.57,86.09,751.65,88s40.53-25.53,41.43-24S754,88.25,754.87,89.82,792.22,66,793.16,67.64s-38.28,21.09-37.44,22.53S792.22,67,793.1,68.59,757.82,90,758.6,91.31c.95,1.61,33.14-21.26,34.07-19.66.77,1.33-30.59,19.57-29.91,20.72s28-17.94,28.74-16.6c.57,1-27.41,15.67-26.71,16.87s25.28-16.18,26-15c.49.87-20.16,14-19.63,14.9s16-10.22,16.44-9.5c.2.36-8.73,6.92-8.53,7.27s2.83-1.89,3-1.7-2.86,1.52-2.79,1.6,2.56-1.79,2.71-1.6" fill="#008e5e" data-primary="true"></path><path d="M672.12,89.28c.11.19,2.6-1.78,2.73-1.61s-8.71,7-8.5,7.36c.46.8,16.31-10.44,16.76-9.62s-20,13.47-19.54,14.31,24.32-15.64,25-14.44-27.75,18.77-27,20.06,32.07-20.39,32.92-19S660,109,660.82,110.4s37.55-23.69,38.48-22.18-39.3,21.31-38.48,22.69c1,1.79,37.86-24.3,38.92-22.45.81,1.43-39.87,22-39,23.6,1,1.82,38.9-25,40-23.07.92,1.6-40.54,25.53-39.67,27,1,1.77,42-26.36,42.9-24.76s-42.85,27.58-41.87,29.33,44-28,45.17-26.07c.93,1.6-45.59,25.91-44.5,27.82,1.25,2.17,44.71-28.16,45.72-26.4s-46.51,25.2-45.37,27.27,44.77-28.6,46-26.54c1,1.6-46.73,25.4-45.61,27.26s45.06-28.4,46.09-26.61-46.43,26.27-45.4,28.07c1.2,2.07,45.19-28.55,46.25-26.7s-47.09,25.11-46,27.07S709.55,97.07,710.69,99s-44.9,28.56-43.86,30.27,44.74-28.17,45.75-26.41c1.17,2-45.91,25.66-44.77,27.55S712,102.3,713.16,104.25c1,1.61-44.44,26.38-43.3,28.36s42.87-27.51,44-25.45c1,1.78-44,24.56-43,26.34s42.27-26.89,43.29-25-42.73,24.5-41.66,26.25,40.94-26,42-24.24c.81,1.41-38.85,25.16-38,26.63s37.06-23.84,38.1-22-37.86,21-36.88,22.59,36-22.75,36.88-21.28S680.32,137.58,681.21,139s31.8-20.39,32.69-18.85c.73,1.25-33,17.64-32.2,19s31.39-19.76,32.07-18.54S682.1,138.2,682.82,139.4s29.75-19,30.47-17.63c.61,1-29.41,16.75-28.71,18s27.26-17.64,28.1-16.21c.59,1-21.8,15.39-21.23,16.37s17.56-11.23,18-10.41c.26.45-10.55,8.18-10.3,8.6s4.64-3.08,4.82-2.78-4.62,2.46-4.51,2.65,4.17-2.79,4.35-2.5-3.37,1.94-3.31,2.06,2.6-1.78,2.71-1.6" fill="#008e5e" data-primary="true"></path><path d="M596.62,41.63c.12.19,2.59-1.79,2.71-1.6.31.53-10.85,10.07-10.55,10.6.55,1,22.13-14.19,22.74-13.14s-24,14-23.62,14.9,24.84-16,25.56-14.77-26.67,14.84-26.07,15.86,26.55-17.09,27.26-15.78-29.64,20.37-29,21.56,33.91-21.59,34.78-20.08S584.29,62.43,585.19,64s38.61-24.61,39.63-22.88S584.55,67,585.53,68.65c1.13,2,42-26.81,43.09-24.87s-44,23.53-42.92,25.47,42.37-26.75,43.3-25-44.42,23.34-43.3,25.23S628,42.29,629.16,44.34c.93,1.61-43.68,26.88-42.54,28.87S630.72,45,631.9,47.07c1,1.75-45.88,25.51-44.69,27.53s44.52-28.4,45.69-26.38c1,1.72-45.88,26.69-44.74,28.66,1,1.72,45-28.72,46.18-26.67,1,1.7-46.6,26-45.54,27.84s45.08-28.75,46.26-26.7c1,1.7-47,25.45-46,27.07,1.2,2.1,45.2-28.5,46.25-26.7s-44.9,28.5-43.94,30.12S636,53.45,637.09,55.42,591.86,81.87,592.85,83.6c1.14,2,43.82-28.06,45-26C638.88,59.37,592,82,593,83.7s43.82-27.92,44.9-26-44.44,25.45-43.25,27.39c1,1.61,42.82-27.26,43.92-25.35S594.5,84,595.57,85.93c.92,1.6,42.13-27,43.3-25,.91,1.61-44.16,23.29-43.07,25.16.93,1.61,41.93-26.94,43.12-24.89.93,1.61-41.95,24.81-41,26.42,1.08,2,40.17-25.62,41.22-23.78C640,65.27,598.37,87,599.27,88.59c1.07,1.87,39-24.8,40-23.11s-36,23.91-35.28,25.27,33.86-21.7,34.79-20.08c.78,1.37-34,19.25-33.28,20.61.92,1.6,32.07-20.59,33-19S608.06,90.75,608.81,92s27.92-17.8,28.64-16.53-23.86,16-23.3,16.93,20.45-13.16,21-12.13-19,11.22-18.58,11.94,16.8-10.71,17.24-10c.25.44-8.87,7.27-8.66,7.62s2.58-1.78,2.71-1.6" fill="#008e5e" data-primary="true"></path><path d="M613.22,163.68c.13.23,2.6-1.76,2.71-1.6s-6.41,4.44-6.27,4.81,10.78-7,11.1-6.41S605.64,170.92,606,171.59s20.14-13,20.74-12-23.67,15.58-23,16.69,27.58-17.64,28.33-16.36-29.25,16.18-28.64,17.23c.79,1.38,28.87-18.32,29.53-17.05s-30.69,16.81-30,18.16,30.19-19.24,31-17.9-32.79,21.83-32,23.24c1,1.75,36.34-23,37.2-21.47s-38.13,21.81-37.31,23.2,37.83-24.18,38.85-22.45S601.15,187.1,602,188.54s40.54-25.66,41.51-24-42,25.9-41,27.66c1.19,2.07,42.8-27.26,43.91-25.33,1,1.6-44.2,26.41-43.3,28.08s44.21-27.81,45.19-26.11S602.85,195.15,603.9,197s44.68-28.42,45.82-26.44-45.8,27.08-44.9,28.72c1.27,2.19,45.22-28.48,46.25-26.7s-46.4,26.38-45.42,28.06c1.17,2,45.22-28.5,46.25-26.7s-45.33,27.81-44.29,29.64c1.25,2.16,44.82-28.18,45.81-26.45,1.17,2-44.9,26.78-43.81,28.77s43.62-28,44.9-25.9c1,1.72-43.66,26.25-42.76,27.81,1.07,1.88,42.36-26.94,43.44-25.08s-44,23.8-43,25.51,42-26.73,43.11-24.89c.91,1.61-42.39,24.36-41.33,26.19s40.6-25.51,41.5-24-39.29,24.16-38.29,25.88,37.54-23.59,38.37-22.15-34.8,22.45-34,24S654,192.4,654.92,194c.78,1.35-29.82,18.89-29.06,20.2s27.16-17.15,27.79-16-27,15.15-26.46,16.18,25.27-16.2,26-15c.42.73-16.72,13.43-16.26,14.23s10.58-6.8,10.89-6.29c.14.24-6.42,4.4-6.19,4.67s2.58-1.8,2.71-1.6" fill="#008e5e" data-primary="true"></path><g opacity="0.2"><path d="M757.05,163.86c.11.19,2.6-1.76,2.73-1.6.25.45-10.32,9.23-10.06,9.62.56,1,20.59-13.14,21.14-12.21s-24.19,16.28-23.54,17.4c.83,1.43,28.6-18,29.28-16.9s-30.87,18.6-30.15,19.85,32.36-20.46,33.15-19.13-34.47,19.94-33.68,21.41,35-22.05,35.78-20.65-36.79,24.36-36,25.66c1,1.84,39.61-25,40.54-23.42s-41.35,23-40.46,24.55,40.39-25.65,41.42-23.91c.88,1.51-42.31,23.93-41.26,25.74s41.69-26.52,42.77-24.69S746,192.93,746.87,194.44c1.09,1.88,43.94-27.81,45-26s-45.17,26.62-44,28.64,44.63-28.59,45.86-26.47c1,1.76-46.5,25.5-45.59,27.13,1.13,1.94,44.9-28.5,46-26.57s-46.73,25.66-45.67,27.47c1.24,2.12,45.08-28.55,46.17-26.65,1,1.6-46.75,25.78-45.72,27.55s45.21-28.53,46.27-26.7S750,201,751.16,203.07c1,1.75,44.81-28.55,46-26.54s-45.62,26.36-44.58,28.16S797,176.74,798,178.49s-45.34,25.75-44.39,27.39c1.17,2,43.83-27.62,44.82-25.89s-42.74,26.9-41.69,28.69,41.4-26.59,42.56-24.57c.93,1.61-43.38,22.9-42.31,24.75s41.33-26,42.39-24.15-43.16,22.9-42.21,24.53,41.15-26.22,42.22-24.36c.92,1.61-38.9,25.32-38,26.94s37.09-23.75,38.1-22c.75,1.32-35.41,22-34.56,23.46s33.31-21,34.06-19.67-34.25,18.52-33.46,19.88,32.42-20.84,33.34-19.24c.77,1.31-27.49,19.35-26.86,20.43s24-15.44,24.69-14.26c.48.84-18.42,13.17-18,14s13.83-8.93,14.24-8.21c.2.32-8.67,6.13-8.45,6.42s4.12-2.74,4.29-2.47-3.34,1.92-3.21,2,2.58-1.78,2.71-1.61" fill="#fff"></path><path d="M750.73,42c.11.2,2.6-1.77,2.71-1.61.26.47-10.79,9.94-10.49,10.46.52.88,21.94-14,22.45-13S741.82,51,742.34,51.93s23.67-15,24.27-14-26,15.65-25.44,16.63c.77,1.33,27.67-17.46,28.31-16.34s-30.62,20.85-29.86,22.15,34.68-22.23,35.63-20.58c.75,1.29-36.67,20.85-35.79,22.34s36.48-23.28,37.44-21.62c.82,1.41-38.32,23.75-37.54,25.12S779.05,40.54,780,42.16s-41.45,23-40.52,24.62,40.39-25.87,41.48-24-42.26,23.79-41.39,25.3c1,1.78,41.52-26.19,42.46-24.52S738.61,67,739.62,68.8s42-26.56,43-24.81-44,23.33-42.89,25.26,42.21-26.62,43.19-24.94S739.12,69.21,740.15,71s43.12-27.26,44.11-25.48c1.14,2-45,24.13-44,25.85,1.22,2.1,43.3-27.26,44.32-25.58s-44.68,26.27-43.7,28c1.14,2,44.2-28.18,45.35-26.19,1,1.72-45,27.77-43.87,29.68s45.09-28.57,46.18-26.67-45.17,28.32-44.21,30S789.33,52,790.48,54s-47.1,25-46,26.92,45.06-28.38,46.09-26.6-45.81,26.54-44.9,28.16c1.09,1.89,44.6-28.16,45.64-26.35S746.07,82.33,747.16,84.2s43.84-27.77,44.91-26-44.9,25.05-43.82,27,43-27.51,44.18-25.52S750.57,86.09,751.65,88s40.53-25.53,41.43-24S754,88.25,754.87,89.82,792.22,66,793.16,67.64s-38.28,21.09-37.44,22.53S792.22,67,793.1,68.59,757.82,90,758.6,91.31c.95,1.61,33.14-21.26,34.07-19.66.77,1.33-30.59,19.57-29.91,20.72s28-17.94,28.74-16.6c.57,1-27.41,15.67-26.71,16.87s25.28-16.18,26-15c.49.87-20.16,14-19.63,14.9s16-10.22,16.44-9.5c.2.36-8.73,6.92-8.53,7.27s2.83-1.89,3-1.7-2.86,1.52-2.79,1.6,2.56-1.79,2.71-1.6" fill="#fff"></path><path d="M672.12,89.28c.11.19,2.6-1.78,2.73-1.61s-8.71,7-8.5,7.36c.46.8,16.31-10.44,16.76-9.62s-20,13.47-19.54,14.31,24.32-15.64,25-14.44-27.75,18.77-27,20.06,32.07-20.39,32.92-19S660,109,660.82,110.4s37.55-23.69,38.48-22.18-39.3,21.31-38.48,22.69c1,1.79,37.86-24.3,38.92-22.45.81,1.43-39.87,22-39,23.6,1,1.82,38.9-25,40-23.07.92,1.6-40.54,25.53-39.67,27,1,1.77,42-26.36,42.9-24.76s-42.85,27.58-41.87,29.33,44-28,45.17-26.07c.93,1.6-45.59,25.91-44.5,27.82,1.25,2.17,44.71-28.16,45.72-26.4s-46.51,25.2-45.37,27.27,44.77-28.6,46-26.54c1,1.6-46.73,25.4-45.61,27.26s45.06-28.4,46.09-26.61-46.43,26.27-45.4,28.07c1.2,2.07,45.19-28.55,46.25-26.7s-47.09,25.11-46,27.07S709.55,97.07,710.69,99s-44.9,28.56-43.86,30.27,44.74-28.17,45.75-26.41c1.17,2-45.91,25.66-44.77,27.55S712,102.3,713.16,104.25c1,1.61-44.44,26.38-43.3,28.36s42.87-27.51,44-25.45c1,1.78-44,24.56-43,26.34s42.27-26.89,43.29-25-42.73,24.5-41.66,26.25,40.94-26,42-24.24c.81,1.41-38.85,25.16-38,26.63s37.06-23.84,38.1-22-37.86,21-36.88,22.59,36-22.75,36.88-21.28S680.32,137.58,681.21,139s31.8-20.39,32.69-18.85c.73,1.25-33,17.64-32.2,19s31.39-19.76,32.07-18.54S682.1,138.2,682.82,139.4s29.75-19,30.47-17.63c.61,1-29.41,16.75-28.71,18s27.26-17.64,28.1-16.21c.59,1-21.8,15.39-21.23,16.37s17.56-11.23,18-10.41c.26.45-10.55,8.18-10.3,8.6s4.64-3.08,4.82-2.78-4.62,2.46-4.51,2.65,4.17-2.79,4.35-2.5-3.37,1.94-3.31,2.06,2.6-1.78,2.71-1.6" fill="#fff"></path><path d="M596.62,41.63c.12.19,2.59-1.79,2.71-1.6.31.53-10.85,10.07-10.55,10.6.55,1,22.13-14.19,22.74-13.14s-24,14-23.62,14.9,24.84-16,25.56-14.77-26.67,14.84-26.07,15.86,26.55-17.09,27.26-15.78-29.64,20.37-29,21.56,33.91-21.59,34.78-20.08S584.29,62.43,585.19,64s38.61-24.61,39.63-22.88S584.55,67,585.53,68.65c1.13,2,42-26.81,43.09-24.87s-44,23.53-42.92,25.47,42.37-26.75,43.3-25-44.42,23.34-43.3,25.23S628,42.29,629.16,44.34c.93,1.61-43.68,26.88-42.54,28.87S630.72,45,631.9,47.07c1,1.75-45.88,25.51-44.69,27.53s44.52-28.4,45.69-26.38c1,1.72-45.88,26.69-44.74,28.66,1,1.72,45-28.72,46.18-26.67,1,1.7-46.6,26-45.54,27.84s45.08-28.75,46.26-26.7c1,1.7-47,25.45-46,27.07,1.2,2.1,45.2-28.5,46.25-26.7s-44.9,28.5-43.94,30.12S636,53.45,637.09,55.42,591.86,81.87,592.85,83.6c1.14,2,43.82-28.06,45-26C638.88,59.37,592,82,593,83.7s43.82-27.92,44.9-26-44.44,25.45-43.25,27.39c1,1.61,42.82-27.26,43.92-25.35S594.5,84,595.57,85.93c.92,1.6,42.13-27,43.3-25,.91,1.61-44.16,23.29-43.07,25.16.93,1.61,41.93-26.94,43.12-24.89.93,1.61-41.95,24.81-41,26.42,1.08,2,40.17-25.62,41.22-23.78C640,65.27,598.37,87,599.27,88.59c1.07,1.87,39-24.8,40-23.11s-36,23.91-35.28,25.27,33.86-21.7,34.79-20.08c.78,1.37-34,19.25-33.28,20.61.92,1.6,32.07-20.59,33-19S608.06,90.75,608.81,92s27.92-17.8,28.64-16.53-23.86,16-23.3,16.93,20.45-13.16,21-12.13-19,11.22-18.58,11.94,16.8-10.71,17.24-10c.25.44-8.87,7.27-8.66,7.62s2.58-1.78,2.71-1.6" fill="#fff"></path><path d="M613.22,163.68c.13.23,2.6-1.76,2.71-1.6s-6.41,4.44-6.27,4.81,10.78-7,11.1-6.41S605.64,170.92,606,171.59s20.14-13,20.74-12-23.67,15.58-23,16.69,27.58-17.64,28.33-16.36-29.25,16.18-28.64,17.23c.79,1.38,28.87-18.32,29.53-17.05s-30.69,16.81-30,18.16,30.19-19.24,31-17.9-32.79,21.83-32,23.24c1,1.75,36.34-23,37.2-21.47s-38.13,21.81-37.31,23.2,37.83-24.18,38.85-22.45S601.15,187.1,602,188.54s40.54-25.66,41.51-24-42,25.9-41,27.66c1.19,2.07,42.8-27.26,43.91-25.33,1,1.6-44.2,26.41-43.3,28.08s44.21-27.81,45.19-26.11S602.85,195.15,603.9,197s44.68-28.42,45.82-26.44-45.8,27.08-44.9,28.72c1.27,2.19,45.22-28.48,46.25-26.7s-46.4,26.38-45.42,28.06c1.17,2,45.22-28.5,46.25-26.7s-45.33,27.81-44.29,29.64c1.25,2.16,44.82-28.18,45.81-26.45,1.17,2-44.9,26.78-43.81,28.77s43.62-28,44.9-25.9c1,1.72-43.66,26.25-42.76,27.81,1.07,1.88,42.36-26.94,43.44-25.08s-44,23.8-43,25.51,42-26.73,43.11-24.89c.91,1.61-42.39,24.36-41.33,26.19s40.6-25.51,41.5-24-39.29,24.16-38.29,25.88,37.54-23.59,38.37-22.15-34.8,22.45-34,24S654,192.4,654.92,194c.78,1.35-29.82,18.89-29.06,20.2s27.16-17.15,27.79-16-27,15.15-26.46,16.18,25.27-16.2,26-15c.42.73-16.72,13.43-16.26,14.23s10.58-6.8,10.89-6.29c.14.24-6.42,4.4-6.19,4.67s2.58-1.8,2.71-1.6" fill="#fff"></path></g><path d="M370.69,489.41c2,33.25,18.78,66.48,46.26,84.77,32.75,21.79,78.54,17,115.84,19.75,32.24,2.4,64.73,4.46,97,1,26.43-2.82,53.09-13.29,65.71-39s14-59.88,1.37-85.91a83.47,83.47,0,0,0-15.8-22c-1-1.06-2.1-2.09-3.19-3.1-.74-.67-1.49-1.33-2.25-2-1.16-1-2.36-2-3.57-2.94l-1.21-.94-1.22-.92-1.24-.9-.93-.66c-.52-.37-1-.73-1.58-1.08a109.32,109.32,0,0,0-14.79-8.37,116,116,0,0,0-15.27-5.94c-17-5.27-34.68-7.14-52.19-9.44-37.15-4.87-75-6.54-112.42-6.51-30.56,0-65,4.58-85.39,30.81C374.28,450.79,369.54,470.47,370.69,489.41Z" fill="#ff6d60" data-secondary="true"></path><g opacity="0.4"><path d="M651.09,427.06a109.32,109.32,0,0,1,14.79,8.37c.54.35,1.06.71,1.58,1.08l.93.66,1.24.9,1.22.92,1.21.94c1.2.95,2.37,1.93,3.52,2.92h0c.76.67,1.51,1.33,2.25,2,1.09,1,2.16,2,3.19,3.1a2.06,2.06,0,0,1-1.58,1.89c-6.15,1.25-9.23,7.11-14.19,10.45A13.61,13.61,0,0,1,653.07,462c4.48,9.49,7,18.91,5,29.53a37.5,37.5,0,0,1-3,9.29c5.76-4.28,11.31-13.44,13.59-22.73a2.46,2.46,0,1,1,4.84.89,2.86,2.86,0,0,1-.07.28c-2.82,11.5-10,22.55-17.48,26.88a16.22,16.22,0,0,1-5.37,2,37.18,37.18,0,0,1-5,5.24l-11,3.09-9-58.17Z"></path><path d="M459.34,498.71A55.68,55.68,0,0,0,444,495.32a9.46,9.46,0,0,0-4.06.35,3.56,3.56,0,0,0-2.41,3c0,1.92,1.88,3.23,3.61,4.07a58.32,58.32,0,0,0,12.16,4.33c-1.83,0-3.65.38-4.53,1.88-1.29,2.22.59,4.95,2.58,6.58,8.37,6.82,19.58,9.1,32.12,11.31,24.61,4.35,47,3.61,86.33.74l13.52-17.26-78.64-19.11-57.4-10.67a66,66,0,0,0-7.53-7.7c-1.56-1.34-4-2.59-5.47-1.17s-.45,3.74.68,5.35C441.26,486,450.38,492.45,459.34,498.71Zm0,0h0Z"></path><path d="M643.66,534.72c-9.22-.61-18.27,0-24.85-2.25-7-2.46-25.39-.82-25.39-.82l10.1-14.54,41,10.24Z"></path></g><path d="M109.07,525.54l-2.86.8-8.67-7L96,513.66s-4.5,1-1.89,8.3,1.51,5.58,1.51,5.58-9.38,2.66-9.94,3.69c-.4.75,1.94,10.15,3.25,15.24a5.68,5.68,0,0,0,5.42,4.43,4.23,4.23,0,0,0,1-.14c2.34-.65,13.78-5.89,13.78-5.89l4.94-1.38Z" fill="#ebebeb"></path><polygon points="116.83 521.69 120.52 541.75 115.62 543.12 110.28 523.94 116.83 521.69" fill="#ebebeb"></polygon><path d="M678.79,589.39v23H675v2.49h3.83v15.37h71.66v-14h-5.31v-3h5.31v-4.57h2.36v-2.08H750V589.39Z" fill="#f5f5f5"></path><polygon points="731.42 589.45 731.42 629.95 750.45 629.95 750.45 615.97 745.14 615.97 745.14 613.18 750.45 613.27 750.45 608.71 752.86 608.71 752.81 606.35 750.01 606.28 750.01 589.39 731.42 589.45" fill="#e0e0e0"></polygon><path d="M732.78,614.51c0,.14-13,.26-29,.26s-29-.12-29-.26,13-.25,29-.25S732.78,614.37,732.78,614.51Z" fill="#e0e0e0"></path><path d="M732.78,612.18c0,.14-13,.25-29,.25s-29-.11-29-.25,13-.25,29-.25S732.78,612,732.78,612.18Z" fill="#e0e0e0"></path><path d="M736.5,605.9c0,.14-13,.26-29,.26s-29-.12-29-.26,13-.25,29-.25S736.5,605.76,736.5,605.9Z" fill="#e0e0e0"></path><path d="M736.86,623c0,.14-13,.25-29,.25s-29-.11-29-.25,13-.26,29-.26S736.86,622.87,736.86,623Z" fill="#e0e0e0"></path><rect x="794.56" y="562.1" width="15.98" height="19" fill="#f5f5f5"></rect><rect x="722.9" y="560.87" width="72.21" height="21.43" fill="#e0e0e0"></rect><path d="M811,562.67H793.17v-1.8H811a.9.9,0,0,1,.9.9h0A.9.9,0,0,1,811,562.67Z" fill="#e0e0e0"></path><path d="M811,582.29H793.17v-1.8H811a.9.9,0,0,1,.9.9h0A.9.9,0,0,1,811,582.29Z" fill="#e0e0e0"></path><rect x="780.9" y="560.87" width="8.53" height="21.43" fill="#ebebeb"></rect><rect x="729.77" y="561.1" width="8.53" height="21.43" fill="#ebebeb"></rect><path d="M810.54,565.25s-3.46.09-7.73.09-7.72,0-7.72-.09,3.46-.1,7.72-.1S810.54,565.19,810.54,565.25Z" fill="#e0e0e0"></path><path d="M810.54,568.09c0,.06-3.46.1-7.73.1s-7.72,0-7.72-.1,3.46-.09,7.72-.09S810.54,568,810.54,568.09Z" fill="#e0e0e0"></path><path d="M810.54,571.6s-3.46.1-7.73.1-7.72-.05-7.72-.1,3.46-.09,7.72-.09S810.54,571.55,810.54,571.6Z" fill="#e0e0e0"></path><path d="M810.54,575.11s-3.46.09-7.73.09-7.72,0-7.72-.09,3.46-.1,7.72-.1S810.54,575.06,810.54,575.11Z" fill="#e0e0e0"></path><path d="M810.54,578.62s-3.46.09-7.73.09-7.72,0-7.72-.09,3.46-.1,7.72-.1S810.54,578.56,810.54,578.62Z" fill="#e0e0e0"></path><rect x="743.83" y="569.67" width="32.49" height="3.86" fill="#ebebeb"></rect><rect x="794.15" y="582.71" width="16.22" height="11.57" fill="#fafafa"></rect><rect x="725.29" y="582.29" width="69.04" height="12.41" fill="#f5f5f5"></rect><path d="M793.83,583.13h17.44a.42.42,0,0,0,.42-.42h0a.42.42,0,0,0-.42-.42H793.83Z" fill="#f5f5f5"></path><path d="M793.83,594.71h17.44a.42.42,0,0,0,.42-.42h0a.42.42,0,0,0-.42-.42H793.83Z" fill="#f5f5f5"></path><path d="M810.37,584.91c0,.06-3.59.1-8,.1s-8,0-8-.1,3.59-.09,8-.09S810.37,584.86,810.37,584.91Z" fill="#e0e0e0"></path><path d="M810.37,587.1c0,.06-3.59.1-8,.1s-8,0-8-.1,3.59-.09,8-.09S810.37,587.05,810.37,587.1Z" fill="#e0e0e0"></path><path d="M810.37,589.29c0,.06-3.59.1-8,.1s-8,0-8-.1,3.59-.09,8-.09S810.37,589.24,810.37,589.29Z" fill="#e0e0e0"></path><path d="M810.37,591.48s-3.59.1-8,.1-8-.05-8-.1,3.59-.09,8-.09S810.37,591.43,810.37,591.48Z" fill="#e0e0e0"></path><rect x="796.28" y="595.81" width="16.56" height="31.38" fill="#ebebeb"></rect><rect x="718.55" y="594.71" width="77.73" height="34.02" fill="#e0e0e0"></rect><path d="M814.13,628.73h-20v-2.21h20a1.11,1.11,0,0,1,1.1,1.11h0a1.1,1.1,0,0,1-1.1,1.1Z" fill="#e0e0e0"></path><path d="M814.13,596.92h-20v-2.21h20a1.1,1.1,0,0,1,1.1,1.1h0A1.11,1.11,0,0,1,814.13,596.92Z" fill="#e0e0e0"></path><path d="M812.84,600s-3.71.09-8.28.09-8.28,0-8.28-.09,3.7-.1,8.28-.1S812.84,600,812.84,600Z" fill="#e0e0e0"></path><path d="M812.84,604s-3.71.1-8.28.1-8.28,0-8.28-.1,3.7-.09,8.28-.09S812.84,604,812.84,604Z" fill="#e0e0e0"></path><path d="M812.84,608.07s-3.71.09-8.28.09-8.28,0-8.28-.09,3.7-.1,8.28-.1S812.84,608,812.84,608.07Z" fill="#e0e0e0"></path><path d="M812.84,612.09s-3.71.1-8.28.1-8.28-.05-8.28-.1,3.7-.09,8.28-.09S812.84,612,812.84,612.09Z" fill="#e0e0e0"></path><path d="M812.84,616.11c0,.06-3.71.1-8.28.1s-8.28,0-8.28-.1,3.7-.09,8.28-.09S812.84,616.06,812.84,616.11Z" fill="#e0e0e0"></path><path d="M812.84,620.14c0,.05-3.71.09-8.28.09s-8.28,0-8.28-.09,3.7-.1,8.28-.1S812.84,620.09,812.84,620.14Z" fill="#e0e0e0"></path><path d="M812.84,624.16c0,.06-3.71.1-8.28.1s-8.28,0-8.28-.1,3.7-.09,8.28-.09S812.84,624.11,812.84,624.16Z" fill="#e0e0e0"></path><path d="M745.15,613.58v1.89c0,2.28-1.14,3.59-3.34,3.59s-3.34-1.31-3.34-3.59v-7.41c0-2.28,1.14-3.58,3.34-3.58s3.34,1.3,3.34,3.58v1.39H743v-1.53c0-1-.45-1.4-1.16-1.4s-1.16.38-1.16,1.4v7.7c0,1,.45,1.38,1.16,1.38s1.16-.37,1.16-1.38v-2Z" fill="#ebebeb"></path><path d="M746.32,608.06c0-2.28,1.2-3.58,3.4-3.58s3.4,1.3,3.4,3.58v7.41c0,2.28-1.2,3.59-3.4,3.59s-3.4-1.31-3.4-3.59Zm2.24,7.56c0,1,.45,1.4,1.16,1.4s1.16-.39,1.16-1.4v-7.7c0-1-.44-1.4-1.16-1.4s-1.16.38-1.16,1.4Z" fill="#ebebeb"></path><path d="M754.57,604.64h2.23v12.22h3.69v2h-5.92Z" fill="#ebebeb"></path><path d="M761.28,608.06c0-2.28,1.2-3.58,3.4-3.58s3.4,1.3,3.4,3.58v7.41c0,2.28-1.2,3.59-3.4,3.59s-3.4-1.31-3.4-3.59Zm2.24,7.56c0,1,.45,1.4,1.16,1.4s1.16-.39,1.16-1.4v-7.7c0-1-.45-1.4-1.16-1.4s-1.16.38-1.16,1.4Z" fill="#ebebeb"></path><path d="M771.66,604.64v11c0,1,.45,1.38,1.16,1.38s1.16-.37,1.16-1.38v-11h2.12v10.85c0,2.28-1.14,3.59-3.34,3.59s-3.34-1.31-3.34-3.59V604.64Z" fill="#ebebeb"></path><path d="M782.3,618.89a4.5,4.5,0,0,1-.2-1.75V614.9c0-1.32-.45-1.81-1.47-1.81h-.77v5.8h-2.24V604.64H781c2.32,0,3.32,1.08,3.32,3.28V609c0,1.47-.47,2.42-1.47,2.89,1.12.47,1.49,1.55,1.49,3v2.2a4.23,4.23,0,0,0,.24,1.73Zm-2.44-12.21v4.38h.88c.83,0,1.34-.37,1.34-1.51v-1.4c0-1-.35-1.47-1.14-1.47Z" fill="#ebebeb"></path><path d="M744.66,587.18H743l.08-.42h3.75l-.09.42h-1.63l-.84,4.21h-.48Z" fill="#e0e0e0"></path><path d="M750,587.91l-2.54,3.93c-.43.66-.76.86-1.26.86a1.14,1.14,0,0,1-.82-.31l.25-.34a.79.79,0,0,0,.61.25c.3,0,.53-.14.8-.56l.25-.37-.87-3.46h.48l.72,3,1.89-3Z" fill="#e0e0e0"></path><path d="M753.87,589.35a2,2,0,0,1-1.93,2.07h-.07a1.3,1.3,0,0,1-1.32-.76l-.4,2h-.47l1-4.76h.45l-.11.56a1.78,1.78,0,0,1,1.35-.59,1.4,1.4,0,0,1,1.54,1.26A1.62,1.62,0,0,1,753.87,589.35Zm-.47,0a1,1,0,0,0-.89-1.1,1.13,1.13,0,0,0-.26,0,1.52,1.52,0,0,0-1.5,1.54v.1a1,1,0,0,0,.92,1.08h.22a1.51,1.51,0,0,0,1.51-1.53v-.09Z" fill="#e0e0e0"></path><path d="M754.42,590a2,2,0,0,1,1.93-2.07h.07A1.43,1.43,0,0,1,758,589.2a1.34,1.34,0,0,1,0,.2,2,2,0,0,1-1.93,2.07H756a1.43,1.43,0,0,1-1.57-1.27A1.34,1.34,0,0,1,754.42,590Zm3.12-.57a1,1,0,0,0-.89-1.1,1.13,1.13,0,0,0-.26,0,1.52,1.52,0,0,0-1.5,1.56V590a1,1,0,0,0,1,1H756a1.52,1.52,0,0,0,1.54-1.5v-.07Z" fill="#e0e0e0"></path><path d="M762.51,587.91,761.9,591a1.85,1.85,0,0,1-1.95,1.74h-.05a2.2,2.2,0,0,1-1.55-.52l.28-.36a1.74,1.74,0,0,0,1.3.47,1.36,1.36,0,0,0,1.5-1.21v0l.08-.38a1.8,1.8,0,0,1-1.38.6,1.39,1.39,0,0,1-1.53-1.23,1.09,1.09,0,0,1,0-.18,1.93,1.93,0,0,1,1.86-2h.14a1.33,1.33,0,0,1,1.35.8l.15-.77Zm-.8,1.39c0-.63-.43-1-1.15-1a1.47,1.47,0,0,0-1.51,1.43v.11c0,.63.42,1,1.15,1a1.48,1.48,0,0,0,1.51-1.45Z" fill="#e0e0e0"></path><path d="M765.57,587.88l-.09.46h-.13a1.39,1.39,0,0,0-1.41,1.29l-.35,1.77h-.47l.69-3.48h.45l-.12.63A1.58,1.58,0,0,1,765.57,587.88Z" fill="#e0e0e0"></path><path d="M769.55,587.91l-.69,3.48h-.45l.11-.55a1.79,1.79,0,0,1-1.35.58,1.4,1.4,0,0,1-1.52-1.27V590a2,2,0,0,1,1.93-2.07h.07a1.31,1.31,0,0,1,1.32.76l.15-.73Zm-.78,1.47a1,1,0,0,0-.89-1.1h-.25a1.53,1.53,0,0,0-1.51,1.57v.07A1,1,0,0,0,767,591h.24a1.52,1.52,0,0,0,1.5-1.54v-.08Z" fill="#e0e0e0"></path><path d="M774.07,589.35a2,2,0,0,1-1.93,2.07h-.07a1.31,1.31,0,0,1-1.33-.76l-.39,2h-.47l.94-4.76h.45l-.11.56a1.75,1.75,0,0,1,1.36-.59,1.4,1.4,0,0,1,1.54,1.26A1.62,1.62,0,0,1,774.07,589.35Zm-.48,0a1,1,0,0,0-.89-1.1h-.25a1.52,1.52,0,0,0-1.5,1.54v.1a1,1,0,0,0,.92,1.08h.22a1.5,1.5,0,0,0,1.5-1.52v-.1Z" fill="#e0e0e0"></path><path d="M778.27,589a2.67,2.67,0,0,1,0,.4l-.39,2h-.47l.4-2a1.61,1.61,0,0,0,0-.31c0-.5-.3-.78-.9-.78a1.34,1.34,0,0,0-1.41,1.21l-.37,1.87h-.47l1-4.91h.47l-.39,1.95a1.72,1.72,0,0,1,1.33-.55,1.08,1.08,0,0,1,1.19,1A.76.76,0,0,1,778.27,589Z" fill="#e0e0e0"></path><path d="M782.67,587.91l-2.54,3.93c-.43.66-.75.86-1.26.86a1.14,1.14,0,0,1-.82-.31l.25-.34a.79.79,0,0,0,.61.25c.3,0,.53-.14.8-.56l.25-.37-.87-3.46h.48l.72,3,1.89-3Z" fill="#e0e0e0"></path><path d="M88.41,121.27h0A37.65,37.65,0,0,1,50.77,83.62h0A37.64,37.64,0,0,1,88.41,46h0a37.64,37.64,0,0,1,37.65,37.63h0A37.64,37.64,0,0,1,88.41,121.27Z" fill="#ebebeb"></path><path d="M88.41,59.62a24,24,0,1,0,24,24h0A24,24,0,0,0,88.41,59.62Zm0,4.18a19.68,19.68,0,0,1,12.09,4.14,24.2,24.2,0,0,1-10,7.36,91.84,91.84,0,0,0-7-10.87A19.33,19.33,0,0,1,88.41,63.8ZM79.47,66a89.17,89.17,0,0,1,7.07,10.77A63.68,63.68,0,0,1,69.17,79,19.92,19.92,0,0,1,79.47,66ZM68.59,83.62v-.51a67.24,67.24,0,0,0,19.89-2.64c.47,1,.92,1.9,1.34,2.86q-10.12,3.17-16.67,13A19.73,19.73,0,0,1,68.59,83.62Zm19.82,19.83a19.66,19.66,0,0,1-12.16-4.21c3.93-6.17,9-10.19,15.19-12a78.67,78.67,0,0,1,4.09,14.92A19.9,19.9,0,0,1,88.41,103.45Zm11-3.35a82.48,82.48,0,0,0-3.84-13.79,40.3,40.3,0,0,1,12.4.39,19.86,19.86,0,0,1-8.55,13.4ZM94,82.36c-.49-1.13-1-2.25-1.54-3.36a28.42,28.42,0,0,0,11.1-8.16,19.68,19.68,0,0,1,4.64,11.67A42.84,42.84,0,0,0,94,82.36Z" fill="#fff"></path><path d="M57.16,258.77l-4.39,2.41-16.89-8.11-4.81-8.76s-7,3.3.07,14.34,4.63,8.59,4.63,8.59-14.38,7.95-14.89,9.86C20.5,278.49,28,293,32.06,300.86c2.06,3.95,6.45,6.27,10.59,5.2a7.2,7.2,0,0,0,1.67-.64c3.59-2,20.35-14.95,20.35-14.95l7.59-4.16Z" fill="#ebebeb"></path><polygon points="68.42 249.48 82.17 280.99 74.65 285.11 58.53 255.68 68.42 249.48" fill="#ebebeb"></polygon><circle cx="818.16" cy="299.56" r="26.75" fill="#f5f5f5"></circle><path d="M808.92,292.82c1-.09,1.93,1,2.05,2.5s-.6,2.71-1.61,2.8-1.94-1-2.06-2.5S807.9,292.9,808.92,292.82Z" fill="#e0e0e0"></path><path d="M811.27,286c0,.23-2.26,0-4.76,1s-4.09,2.52-4.26,2.36,1.26-2.09,4-3.08S811.34,285.86,811.27,286Z" fill="#e0e0e0"></path><path d="M825.93,292.47c-1,0-1.89,1.11-1.95,2.58s.71,2.69,1.73,2.73,1.89-1.11,1.95-2.58S826.94,292.51,825.93,292.47Z" fill="#e0e0e0"></path><path d="M823.3,285.8c-.08-.19,2.27-.87,5,0s4.28,2.81,4.11,2.92-1.79-1.38-4.34-2.18S823.33,286,823.3,285.8Z" fill="#e0e0e0"></path><path d="M831.35,299.29a4.08,4.08,0,0,1-.19,1.43,12.29,12.29,0,0,1-1.55,3.63,14.27,14.27,0,0,1-4.08,4.22,12.92,12.92,0,0,1-13.81.72,14.14,14.14,0,0,1-4.5-3.78,11.69,11.69,0,0,1-1.92-3.45,4.21,4.21,0,0,1-.33-1.4,19.36,19.36,0,0,0,2.67,4.51,14.5,14.5,0,0,0,4.41,3.49,12.57,12.57,0,0,0,13.08-.68,14.26,14.26,0,0,0,4-3.93A20.62,20.62,0,0,0,831.35,299.29Z" fill="#e0e0e0"></path><path d="M156,387l-2.85-.46-4.8-9.67.93-5.67s-4.36-1-5.05,6.53-.95,5.54-.95,5.54-9.34-1.49-10.25-.81c-.66.5-2.42,9.74-3.34,14.75a5.51,5.51,0,0,0,3,6.11,4.28,4.28,0,0,0,1,.3c2.33.38,14.53.43,14.53.43l4.92.8Z" fill="#ebebeb"></path><polygon points="164.38 386.79 159.47 405.96 154.59 405.17 157.7 386.1 164.38 386.79" fill="#ebebeb"></polygon><polygon points="288.81 570.25 292.28 621.69 270.08 624.42 259.45 571.89 288.81 570.25" fill="#fed0bc"></polygon><path d="M342.66,647.58l-79.16-7.09,2-22.8a2,2,0,0,1,1.88-1.84,5.79,5.79,0,0,1,5.07,1.94,5.68,5.68,0,0,0,4.61,2.4c2.49-.08,5.65-1.16,7.63-5.49,0,0,5.88-10.78,12.88-.55l18.71,20.41a13,13,0,0,0,10.3,4.23C331.91,638.47,339.51,639.56,342.66,647.58Z" fill="#ff6d60" data-secondary="true"></path><rect x="298" y="604.65" width="8.16" height="86.69" rx="2.6" transform="translate(-370.28 891.04) rotate(-84.88)" fill="#373660"></rect><polygon points="160.85 543.61 122.58 578.14 106.7 562.39 143.19 524.07 160.85 543.61" fill="#fed0bc"></polygon><path d="M133.39,633.74,90,567.16l19.17-12.5a2,2,0,0,1,2.61.34,5.75,5.75,0,0,1,1.61,5.18,5.69,5.69,0,0,0,1,5.11c1.6,1.9,4.41,3.72,9,2.6,0,0,12.11-2,8.39,9.78L127.33,605a13,13,0,0,0,3,10.71C133.9,619.66,137.74,626.31,133.39,633.74Z" fill="#ff6d60" data-secondary="true"></path><rect x="103.82" y="558.73" width="8.16" height="86.69" rx="2.6" transform="matrix(0.84, -0.55, 0.55, 0.84, -311.21, 156.56)" fill="#373660"></rect><path d="M245.69,163s13,42.16-20.3,78.18c0,0,17.7-24.88,17.54-41.4,0,0-22.2,31.27-45.57,29.79,0,0-27.36,78.87-51.52,81.58a4.9,4.9,0,0,1-2.64-.46c-5.44-2.53-26.87-14.64-20.69-45.62,0,0,7.08-32.83,32.52-52.74,0,0-32.91,13.71-36.09,66.44a6,6,0,0,1-2.34-5.67s-2.81-45.76,38.93-67.61a45.55,45.55,0,0,0-33,29.1s-3.13-20.41,35.82-35.68l21-4.77s-6.75-48.64,32.78-54.73C212.13,139.36,238,134.26,245.69,163Z"></path><polygon points="200.81 229.5 199.52 189.42 230.08 202.73 229.93 233.46 200.81 229.5" fill="#fed0bc"></polygon><path d="M433.6,433.25s-7.88-7.4-12.06-11.69,4.94-4.42,9.43.92A11.7,11.7,0,0,1,433.6,433.25Z" fill="#fed0bc"></path><path d="M619.08,466.12c22.84-8.9,38.69-18.35,47.89-24.65a18.5,18.5,0,0,0,7.76-18.4L663,354.44a21.17,21.17,0,0,0-12.48-15.89,209.55,209.55,0,0,0-53.5-15,128.77,128.77,0,0,0-20.69.41c-7.63.76-25.1,5.9-36.2,9.35A21.53,21.53,0,0,0,526.4,346.1c-4.66,12-12.22,32.26-14.63,43.22-8.33,37.82-7,35-7,35L496.2,482.5l91.34,5.12L610.89,477Z" fill="#008e5e" data-primary="true"></path><path d="M562.56,258.24s8.09-16.59,29.59-9c15.57-3.38,27.45,15.06,16,40.14l-21.61,5Z"></path><path d="M574,305.14v29.35a12.45,12.45,0,0,0,12.43,12.43,16.84,16.84,0,0,0,16.85-16.83V305.14Z" fill="#fed0bc"></path><path d="M574,317.32v16c13,.07,21.71-16.81,21.71-16.81Z" fill="#f4a57f"></path><ellipse cx="581.99" cy="291.02" rx="23.58" ry="33.79" fill="#fed0bc"></ellipse><path d="M603.62,295.72s-3.17-12.9-14.23-21.3c0,0-16.08,21-33.08,10.86s-9.62-30.11,6.25-27l18.23-2,22.83,7.27,3.89,17.92Z"></path><path d="M587.48,444.42c15.49-33.46,35-17.49,39.8-29.78C634,397.42,632.7,378,632.74,372l9.33,52.54s-20.83,2-28.53,14.52Z" opacity="0.2" style="isolation:isolate"></path><path d="M541.76,362.84c-1.24,5.84-2.38,11.69-3.5,17.55S536.09,392.12,535,398s-2.06,11.75-3,17.63l-1.43,8.83c-.44,3-.91,5.9-1.32,8.85l.63.11c.64-2.91,1.22-5.84,1.82-8.76l1.71-8.78q1.67-8.79,3.24-17.6c1-5.87,2.07-11.74,3-17.63s1.92-11.77,2.77-17.68Z" fill="#008e5e" data-primary="true"></path><path d="M537.44,389.93c-1.1,10.65.54,65.81,26.21,66.63l-.27,12L523,466.12Z" opacity="0.2" style="isolation:isolate"></path><path d="M590.21,455.06c-18.23-7.79-21.71-7.5-24.17-7.38-8.4.41-20.48,17.21-20.48,17.21l.21,3.07h46.08Z" fill="#fed0bc"></path><rect x="520.09" y="464.96" width="56.73" height="8.6" fill="#fff"></rect><polygon points="442.96 473.56 541.53 473.56 519.41 385.47 420.84 385.47 442.96 473.56" fill="#d1d3d4"></polygon><path d="M434,437.53c9.76-1.45,41.29-8,106.28,31.59l1.51,5.46-98.85-1Z" fill="#bcbec0"></path><path d="M432.15,457.1c.62,4.15.82,10.24,13.67,9.48l3.79-1.95L446,460.69l-7.73-3.94Z" fill="#fed0bc"></path><path d="M430.94,445.91s-7,9.19,0,12a40.71,40.71,0,0,0,15,2.77c-3.28-9.22-13.93-8.6-13.93-8.6Z" fill="#fed0bc"></path><path d="M430.74,440s-9.7,9-.69,11.54c12.73,3.56,16.66,3.82,16.66,3.82.68-6.76-11.95-11.13-11.95-11.13Z" fill="#fed0bc"></path><path d="M432.72,432.12s-13.25,8.05-.82,12.56,15.36,4.44,15.36,4.44c.68-6.76-12.63-9.08-12.63-9.08Z" fill="#fed0bc"></path><path d="M447.11,450.17c-.6-.08-14.78-2.13-19.26-5.76l1.34-1.65c4,3.26,18.08,5.28,18.22,5.3Z" fill="#f4a57f"></path><path d="M446.56,456.38c-.62-.08-15.32-2.19-20.19-5.57l1.22-1.75c4.45,3.1,19.12,5.19,19.27,5.21Z" fill="#f4a57f"></path><path d="M445,461.77c-2.57,0-9.16-.22-13.37-2.28l.94-1.91c4.72,2.31,13.33,2,13.42,2l.07,2.13A4.52,4.52,0,0,1,445,461.77Z" fill="#f4a57f"></path><path d="M585.91,589.81c-1.51-.82-25.26,4.37-51.61-15.15l34-9.69Z" fill="#102048"></path><path d="M566.65,484.55s-76.59-36.46-101.58-34.82S440.91,482.5,450.33,496s31.54,31.54,113.05,26.21Z" fill="#373660"></path><path d="M566.65,484.55s-76.59-36.46-101.58-34.82S440.91,482.5,450.33,496s31.54,31.54,113.05,26.21Z" opacity="0.2" style="isolation:isolate"></path><path d="M528.32,635c4.15,1.17,10,1.46,18.13.17,0,0,10.48,2.72,20.8,4.86,7,1.45,13.9,2.63,17.43,2.51h.91c6.78-.48,15.32-4,19.85-9.06h0a12.55,12.55,0,0,0,2.69-4.49c2.46-7.66-2.73-16.94-30.86-15,0,0-9.28-2.18-11.46-9s13.92-39.59,13.92-39.59l-22.94-15.57-22.52,25s-3.42,22.53-3.42,29.9c0,0-9.55,13.66-10.92,19.66C519.08,628.05,521,632.9,528.32,635Z" fill="#d3dfff"></path><path d="M649.28,424.91c-1.35-.37-2.72-.71-4.11-1q-1-.21-2.1-.36a7.53,7.53,0,0,1-.8-.09c-.25-1.9-.52-3.8-.78-5.7l-1-6.71q-1.07-6.71-2.27-13.39c-.83-4.45-1.6-8.91-2.49-13.35S634,375.43,633,371l-.68.12c.58,4.49,1.27,9,2,13.44s1.49,8.93,2.23,13.39,1.6,8.92,2.47,13.36l1.34,6.66c.39,1.82.78,3.64,1.19,5.46h-.63a33.3,33.3,0,0,0-8.26,2.21c-2.64,1-5.22,2.13-7.75,3.34s-5,2.54-7.45,4-4.82,2.88-7.15,4.46a76.64,76.64,0,0,0-12.89,10.82l.48.49a83.23,83.23,0,0,1,6.44-5.28c2.21-1.67,4.5-3.24,6.84-4.72a143,143,0,0,1,14.48-8.17c2.48-1.22,5-2.36,7.58-3.38a38.6,38.6,0,0,1,7.81-2.34,7.4,7.4,0,0,1,.94-.05,4.22,4.22,0,0,1,1,.08c.68.07,1.36.17,2,.28,1.36.24,2.72.52,4.07.82,2.71.62,5.4,1.33,8,2.15l.23-.65A82.57,82.57,0,0,0,649.28,424.91Z" fill="#008e5e" data-primary="true"></path><path d="M649.28,424.91c-1.35-.37-2.72-.71-4.11-1q-1-.21-2.1-.36a7.53,7.53,0,0,1-.8-.09c-.25-1.9-.52-3.8-.78-5.7l-1-6.71q-1.07-6.71-2.27-13.39c-.83-4.45-1.6-8.91-2.49-13.35S634,375.43,633,371l-.68.12c.58,4.49,1.27,9,2,13.44s1.49,8.93,2.23,13.39,1.6,8.92,2.47,13.36l1.34,6.66c.39,1.82.78,3.64,1.19,5.46h-.63a33.3,33.3,0,0,0-8.26,2.21c-2.64,1-5.22,2.13-7.75,3.34s-5,2.54-7.45,4-4.82,2.88-7.15,4.46a76.64,76.64,0,0,0-12.89,10.82l.48.49a83.23,83.23,0,0,1,6.44-5.28c2.21-1.67,4.5-3.24,6.84-4.72a143,143,0,0,1,14.48-8.17c2.48-1.22,5-2.36,7.58-3.38a38.6,38.6,0,0,1,7.81-2.34,7.4,7.4,0,0,1,.94-.05,4.22,4.22,0,0,1,1,.08c.68.07,1.36.17,2,.28,1.36.24,2.72.52,4.07.82,2.71.62,5.4,1.33,8,2.15l.23-.65A82.57,82.57,0,0,0,649.28,424.91Z" opacity="0.2" style="isolation:isolate"></path><path d="M643.25,507.89c9.42-15.15,9.42-45.05-2.46-58.57C627.22,433.87,598.19,428,583,446s-43,84-48.74,128.62c0,0,30.72-10.24,51.61,15.15,0,0,27.44-62.66,33.17-85.6l15.57,12.29Z" fill="#373660"></path><path d="M619.08,504.21s4.1-1.5,9.83,2.32c0,0,44.79-1,54.75,9.15S686,539.3,671.38,540.8c-12.27,1.26-36.07-8.25-43.4-11.34a14.35,14.35,0,0,0-4.69-1.11l-12.13-.79Z" fill="#d3dfff"></path><path d="M608.24,351.45a47.5,47.5,0,0,1-10.43,5.68,30.63,30.63,0,0,1-11.47,2.16,25.28,25.28,0,0,1-11.21-2.78l-1.31-.67c-.43-.23-.82-.53-1.23-.79a19.38,19.38,0,0,1-2.39-1.73l-1.15-.93-.58-.47c-.19-.16-.36-.35-.53-.52-.7-.7-1.41-1.4-2.13-2.09l-.49.41c.64.78,1.3,1.56,2,2.33.17.19.32.39.5.57l.56.52,1.11,1.06a20.11,20.11,0,0,0,2.4,1.91c.42.3.82.63,1.25.9l1.35.76a24.57,24.57,0,0,0,11.87,3.15,30.23,30.23,0,0,0,12-2.51,39,39,0,0,0,10.3-6.46Z" opacity="0.2" style="isolation:isolate"></path><path d="M625.87,478.06l-3.55,12.42c-1.2,4.13-2.33,8.28-3.6,12.39s-2.46,8.24-3.76,12.34c-.64,2-1.28,4.1-2,6.12-.35,1-.66,2-1,3.06s-.72,2-1.07,3l.59.25c.91-2,1.77-3.95,2.58-5.95s1.54-4,2.28-6.07c1.46-4.07,2.74-8.19,4-12.33s2.35-8.31,3.38-12.5,2-8.38,2.83-12.63Z" opacity="0.2" style="isolation:isolate"></path><path d="M528.32,635c4.15,1.17,10,1.46,18.13.17,0,0,17.34,4.44,28.29,6.18-11.26-2.25-27.64-16.18-25.8-25C532.76,621.66,528.36,629.75,528.32,635Z" fill="#1f3c88" opacity="0.1" style="isolation:isolate"></path><path d="M571.88,636.51a16.36,16.36,0,0,0,8.47,5.19,22.63,22.63,0,0,0,5.24.76c6.78-.48,15.32-4,19.85-9.06h0a20.41,20.41,0,0,0,1.33-2,32.91,32.91,0,0,1-7.86,5.48,31,31,0,0,1-4.35,1.77c-.73.28-1.49.45-2.24.66a19.91,19.91,0,0,1-2.3.46C583.93,640.72,577.44,640.08,571.88,636.51Z" fill="#1f3c88" opacity="0.4" style="isolation:isolate"></path><path d="M565.19,297.72c.29,1.41,1.35,2.39,2.38,2.18s1.62-1.52,1.33-2.93-1.35-2.39-2.37-2.19S564.9,296.31,565.19,297.72Z"></path><ellipse cx="583.01" cy="296.82" rx="1.89" ry="2.61" transform="translate(-40.16 97.68) rotate(-9.26)"></ellipse><path d="M176.44,374.91a2.22,2.22,0,0,1-.1.5C176.41,374.86,176.47,374.39,176.44,374.91Z" fill="#263238"></path><path d="M163.28,387l-2,17.52-16,14.64s-1.36-2.2-.63-4-3.66,2.38-3.66,2.38v10.07s-2.74,1.1-3.66-1.28-1.46-11-1.46-11l1.28-.92a4.66,4.66,0,0,1-1.28-4,14.31,14.31,0,0,1-.92-7.32,21.86,21.86,0,0,1,1.65-6.41L149.72,382Z" fill="#fed0bc"></path><path d="M155.23,403.81c.14.11-1.81,2.9-4.73,5.89a29.16,29.16,0,0,1-5.76,4.89c-.11-.11,2.39-2.39,5.28-5.36S155.08,403.69,155.23,403.81Z" fill="#f4a57f"></path><path d="M144,407c.13.13-1.57,2.1-3.81,4.39a29.17,29.17,0,0,1-4.3,3.93,27.33,27.33,0,0,1,3.82-4.4C142,408.62,143.84,406.88,144,407Z" fill="#f4a57f"></path><path d="M141.81,403c.12.15-1.41,1.6-3,3.61s-2.76,3.78-2.93,3.69.72-2.07,2.4-4.12S141.7,402.86,141.81,403Z" fill="#f4a57f"></path><path d="M140,398.86c.13.14-1,1.35-2.38,2.9s-2.37,2.88-2.53,2.77.64-1.62,2-3.21S139.84,398.72,140,398.86Z" fill="#f4a57f"></path><path d="M276.48,215.89c1.32,0,4.53,1.86,7.1,5.41l.14.15c1.83,2.38,3.55-4.42,3.86-6.95a2.67,2.67,0,0,1,3.05-2.21,2.72,2.72,0,0,1,.54.15l8.51,4,2.48.09a2.53,2.53,0,0,1,1.62,3L299.71,233l-.08,3.67-17,2.31-.26-9.19c-.26-1.06-.59-2.31-1.05-3.74a11.61,11.61,0,0,0-1.87-3.59,22.77,22.77,0,0,0-3.07-3.36l-.27-.19a1.52,1.52,0,0,1-.49-.42,1.48,1.48,0,0,1,.86-2.56Z" fill="#fed0bc"></path><path d="M276.82,174.5s9.94-1.91,24.22-14.88,21.32-30.55,23-30.42,9.23-3.1,22.49,28,7.5,38.13,4.69,38-21.76-6-33.73-5S290,197,290,197Z" fill="#008e5e" data-primary="true"></path><path d="M267.27,201.27l6.37,13.42,3.41-.84,21.53,18.55,6.5-11.88s-12.87-6-15.14-10.7.53-5.69.53-5.69L284.54,197Z" fill="#008e5e" data-primary="true"></path><g opacity="0.2"><path d="M267.27,201.27l6.37,13.42,3.41-.84,21.53,18.55,6.5-11.88s-12.87-6-15.14-10.7.53-5.69.53-5.69L284.54,197Z"></path></g><g opacity="0.2"><path d="M345.4,157.77c7.05,16.87,9.76,31.8,6.05,33.35S339,180.25,332,163.38,322.24,131.58,326,130,338.35,140.9,345.4,157.77Z"></path></g><polygon points="253.27 199.87 259.06 198.23 255.7 191.37 251.32 193.93 253.27 199.87" fill="#008e5e" data-primary="true"></polygon><polygon points="286.57 199.44 270.87 208.84 269.05 205.02 286.57 199.44" fill="#008e5e" data-primary="true"></polygon><path d="M330.17,153.63s8.74-5.08,13.1,6.66-4.72,13.39-4.72,13.39A77.72,77.72,0,0,1,330.17,153.63Z" fill="#fafafa"></path><g opacity="0.2"><path d="M321.42,139.55a12.72,12.72,0,0,0,.28,2.22c.23,1.43.56,3.5,1,6,.33,1.25.69,2.62,1.07,4.09l.61,2.28c.1.4.21.79.31,1.2s.28.79.42,1.19l1.79,5.07.48,1.32c.15.45.38.87.56,1.32.4.87.8,1.76,1.21,2.67l1.2,2.66c.21.44.38.89.61,1.3s.46.82.68,1.23l2.61,4.7c.21.37.4.75.63,1.1l.68,1,1.31,2,2.37,3.51c1.58,2,2.92,3.65,3.83,4.76a14,14,0,0,0,1.49,1.68A13.71,13.71,0,0,0,343.3,189l-3.65-4.91-2.27-3.54-1.27-2-.66-1c-.22-.35-.41-.73-.61-1.1l-2.55-4.69-.68-1.23c-.23-.41-.39-.86-.6-1.29l-1.19-2.65c-.41-.89-.8-1.78-1.2-2.65-.19-.43-.41-.85-.57-1.3s-.31-.88-.47-1.31c-.63-1.74-1.25-3.42-1.83-5-.14-.4-.3-.79-.42-1.18s-.22-.8-.33-1.18c-.22-.78-.43-1.53-.64-2.26-.41-1.45-.79-2.81-1.15-4.05-.52-2.49-.95-4.52-1.26-6A12.78,12.78,0,0,0,321.42,139.55Z"></path></g><path d="M294.14,209.87a2,2,0,0,1,1,2.44c-.65,1.85-1.71,4.76-2.5,6.52a5,5,0,0,1-1,1.57,1.63,1.63,0,0,1-1.66.45,1.76,1.76,0,0,1-1-1.56,5.38,5.38,0,0,1,.36-1.94c.56-1.73,1.52-4.32,2.34-6.43a1.82,1.82,0,0,1,2.37-1h0Z" fill="#fed0bc"></path><path d="M296.73,213.29a2,2,0,0,1,1,2.44c-.66,1.85-1.71,4.75-2.51,6.52a4.84,4.84,0,0,1-1,1.56,1.64,1.64,0,0,1-1.65.46,1.76,1.76,0,0,1-1-1.57,5.08,5.08,0,0,1,.35-1.93c.56-1.73,1.52-4.33,2.35-6.43a1.8,1.8,0,0,1,2.3-1.09l.1,0Z" fill="#fed0bc"></path><path d="M299.22,215.46a1.64,1.64,0,0,1,.92,2.11c-.59,1.6-1.54,4.12-2.26,5.64a4.08,4.08,0,0,1-.88,1.36,1.36,1.36,0,0,1-2.39-1,4.56,4.56,0,0,1,.32-1.68c.5-1.5,1.37-3.74,2.12-5.57a1.66,1.66,0,0,1,2.17-.9h0Z" fill="#fed0bc"></path><path d="M302.5,216.19a1.66,1.66,0,0,1,.93,2.12c-.59,1.61-1.56,4.14-2.27,5.67a4.39,4.39,0,0,1-.89,1.36,1.52,1.52,0,0,1-1.5.4,1.53,1.53,0,0,1-.9-1.36,4.65,4.65,0,0,1,.32-1.69c.51-1.51,1.38-3.76,2.13-5.59a1.66,1.66,0,0,1,2.16-.92Z" fill="#fed0bc"></path><path d="M291.86,220.47c.18.08.95-1.38,1.73-3.24s1.27-3.44,1.09-3.51-.95,1.38-1.73,3.24S291.68,220.4,291.86,220.47Z" fill="#f4a57f"></path><path d="M294.68,223.31c.18.07,1-1.61,1.86-3.74s1.39-3.93,1.21-4-1,1.6-1.85,3.74S294.51,223.24,294.68,223.31Z" fill="#f4a57f"></path><path d="M297.63,223.69c.16.08,1.08-1.32,1.87-3.23a9.57,9.57,0,0,0,1-3.59,14.25,14.25,0,0,0-1.61,3.33C298.11,222.07,297.46,223.6,297.63,223.69Z" fill="#f4a57f"></path><path d="M173.62,483.22l9-72c-5.84-13.66-8-27.29-6.26-35.77-.1.89-.14,2,.1-.5,1.45-15,14.41-26,14.41-26l4.33-18.2,55.47,7.8L248.55,369l35.9,126.4L291,602.2l-29,3.4s-11.36-53.43-14.42-75.75a306,306,0,0,1-2.88-36.54l-27.24-40.74c-3.22,16.82-6.87,37.58-8.75,48.41a28.36,28.36,0,0,1-6,13.18L136.82,566a3.36,3.36,0,0,1-5.43-2.64V536.47C138.17,520.29,173.62,483.22,173.62,483.22Z" fill="#373660"></path><path d="M196.44,248c-.11,0-.1-1.39-.48-3.58a24.9,24.9,0,0,0-2.9-8.09,13.4,13.4,0,0,0-5.9-6,8.17,8.17,0,0,0-3.46-.55,2,2,0,0,1,1-.26,5.89,5.89,0,0,1,2.69.37c2.2.78,4.64,3.08,6.3,6.11a22.32,22.32,0,0,1,2.8,8.35A10.41,10.41,0,0,1,196.44,248Z" fill="#263238"></path><path d="M201,226.59l29.06,4.51,5.17,4.48s18.29,35.61,18.63,42.8C254.25,286.33,250,300,250,300l4.18,31.47c.62,3.61-1.73,7.08-3.31,7.08l-50.19-6.73c-6.55-1.29-9.24-4.71-8.83-8.5l.75-7-21.44-71.8c-1.27,4.24.71-11.45,10.28-15C185.49,228,194.86,225.3,201,226.59Z" fill="#ff6d60" data-secondary="true"></path><path d="M232.58,233.46s8.94,6.9,17.41,14.74,31,23.52,31,23.52l1.56-32.8,17-2.31s8.32,40.9,3,52.19-11.6,11.77-29.16,6.12-22.58-8.15-22.58-8.15Z" fill="#ff6d60" data-secondary="true"></path><path d="M186.89,229.51s9.05,11.85,9.55,22.72-16.24,76-16.24,76l-14.67,59.5L147.27,381s4.25-42.36,5.06-47.62c1.68-11,8.91-32.32,9.9-44.67s5.56-36.14,7.82-41.7S172.4,229.2,186.89,229.51Z" fill="#ff6d60" data-secondary="true"></path><g opacity="0.2"><path d="M197,330.79c2.88-2.89,3.49-7.28,3.94-11.33q2.15-19.35,4.31-38.7c.89-8,1.74-16.48-1.3-24a4,4,0,0,0-2.29-2.66,3,3,0,0,0-3,1.25c-.7.92-2.66,2.25-2.94,3.37-2.93,11.5-4.2,22.83-7.13,34.32-.78,3-1.79,2.93-1.12,6,1,4.45,5.15,17.22,5.15,17.22s-.6,4.64-.78,7.35a7,7,0,0,0,5.18,7.17"></path></g><path d="M194.3,264.65a4.17,4.17,0,0,1-1,.72,20.45,20.45,0,0,1-3,1.58,10.41,10.41,0,0,1-4.91,1,12,12,0,0,1-5.7-2.24,42.19,42.19,0,0,0-5.06-3.19,7.44,7.44,0,0,0-4.61-.75,5.23,5.23,0,0,0-2.82,1.41c-.53.56-.7,1-.76.94A2.26,2.26,0,0,1,167,263a5.21,5.21,0,0,1,2.92-1.71,7.72,7.72,0,0,1,5,.66,37,37,0,0,1,5.17,3.18,11.74,11.74,0,0,0,5.38,2.19,10.58,10.58,0,0,0,4.68-.81C192.74,265.46,194.24,264.54,194.3,264.65Z" fill="#fafafa"></path><path d="M250.92,263.27a3.85,3.85,0,0,1-.26.48,8.06,8.06,0,0,1-1,1.25,11,11,0,0,1-5.06,2.86,18,18,0,0,1-8.6.14,85.67,85.67,0,0,1-10-3.23,33.15,33.15,0,0,0-18.63-1.25,50.19,50.19,0,0,0-7.46,2.48,2,2,0,0,1,.46-.3c.32-.17.78-.44,1.41-.72a28.76,28.76,0,0,1,5.48-1.93,32.21,32.21,0,0,1,8.58-.92,33.47,33.47,0,0,1,10.38,2,93.85,93.85,0,0,0,9.94,3.26,18,18,0,0,0,8.38,0,11.32,11.32,0,0,0,5-2.59C250.47,263.89,250.86,263.22,250.92,263.27Z" fill="#fafafa"></path><path d="M261.59,257.5a6.74,6.74,0,0,1,.14,2.72,16.65,16.65,0,0,1-6,11.42,6.7,6.7,0,0,1-2.32,1.42c-.06-.09.8-.66,2-1.78a19.08,19.08,0,0,0,5.86-11.11A25.56,25.56,0,0,1,261.59,257.5Z" fill="#fafafa"></path><g opacity="0.2"><path d="M243.77,244.31c13.73,13.78,24.68,31.83,29.74,50.61-7.84-2.56-15.22-5-20.12-7.08,0,0,2.28-10.49,1.39-15-1.09-5.57-1.08-10.24-11-28.48"></path></g><ellipse cx="605.8" cy="295.41" rx="7.18" ry="5.24" transform="translate(96.16 736.47) rotate(-66.87)" fill="#fed0bc"></ellipse><path d="M230,219.5a46.82,46.82,0,0,1-19.5-5.34s2,12.59,19.5,8.84Z" fill="#f4a57f"></path><ellipse cx="223.06" cy="184.53" rx="23.92" ry="36.93" fill="#fed0bc"></ellipse><path d="M200.32,214.21c-4.45,1.23-8.76-.29-12.41-3.13A15.13,15.13,0,0,1,182.18,199c.1-4.31,2-8.71.71-12.81-.92-2.81-3.28-5-4.07-7.86-1.18-4.26,1.39-8.57,3.85-12.24a28.49,28.49,0,0,1,5.39-6.54,9.69,9.69,0,0,1,7.89-2.33"></path><path d="M190.75,162.58c-.08-3,2.65-5.23,5.39-6.31s5.81-1.49,8.26-3.14c2.17-1.46,3.63-3.74,5.46-5.6a18.19,18.19,0,0,1,30.58,8.34c1.05,4.21.33,9.18-3,12-3.85,3.25-9.55,2.53-14.48,1.52s-10.51-2-14.62.89c-2.48,1.74-3.91,4.58-5.42,7.21s-3.42,5.31-6.29,6.3-6.77-.72-6.88-3.75"></path><path d="M192.59,209.4a12.46,12.46,0,0,0,14.68-9.77,12.33,12.33,0,0,0,.15-4c-.43-3.45-2.29-7-1.1-10.23,1.58-4.31,7.63-5.64,9.24-9.95.93-2.5.1-5.43,1.15-7.88s3.43-3.64,5.79-4.49,4.9-1.45,6.88-3,3.22-4.45,1.94-6.61a132.4,132.4,0,0,0-30.69,7.45c-2.29.86-4.7,1.89-6.06,3.92s-1.36,5-1.24,7.53q.88,18.92,1.76,37.84"></path><path d="M236.09,203.28h0l.31-.1-.12-.31c-1.94-4.74-.84-14.3-.83-14.4l-.61-.07c0,.39-1.08,9.42.74,14.39a6.82,6.82,0,0,1-4,0l-.23.57A7.61,7.61,0,0,0,236.09,203.28Z" fill="#f4a57f"></path><path d="M572.25,308.61h0l-.29-.19.15-.19c2.43-3,2.45-10.81,2.45-10.89l.61.17c0,.31,0,7.7-2.37,10.9a9.55,9.55,0,0,0,3.86,1.39l.15.53A10.88,10.88,0,0,1,572.25,308.61Z" fill="#f4a57f"></path><path d="M235.64,176.08a9.87,9.87,0,0,1,5.74-1.36c1.43.12,2.72.53,2.71,1.64,0,0,.44,1.42-8.77-.1Z"></path><path d="M238.73,179.05c1,0,1.8,1.1,1.88,2.6s-.65,2.75-1.63,2.79-1.83-1.13-1.88-2.63S237.74,179.08,238.73,179.05Z"></path><path d="M227.53,178.67a9.91,9.91,0,0,0-5.62-1.78c-1.43,0-2.76.31-2.83,1.43,0,0-.55,1.37,8.76.56Z"></path><path d="M222.73,182.26c1,0,1.81,1.1,1.88,2.6s-.65,2.75-1.63,2.78-1.83-1.12-1.88-2.62S221.75,182.29,222.73,182.26Z"></path><path d="M230.85,208.15c-.54-.08-1.14-.18-1.76-.33s-1.22-.33-1.8-.52c-1.64-.51-3.17-1-4,.08a2.92,2.92,0,0,0-.25,2.31,5,5,0,0,0,2.84,3.43,6.91,6.91,0,0,0,1.59.53,5.66,5.66,0,0,0,4.64-1A3.72,3.72,0,0,0,233.7,210a1.37,1.37,0,0,0-.86-1.41A7.54,7.54,0,0,0,230.85,208.15Z" fill="#f4a57f"></path><path d="M229,208.31c-2.35-.54-4.43-1.72-5.32-.61-.63.79-.36,4.55,3.87,5.46,3,.62,5.56-1.44,5.67-3.17C233.28,208.69,231.32,208.87,229,208.31Z"></path><path d="M223.4,208.74c0,1.43.94,3.74,4.12,4.42a5.38,5.38,0,0,0,3.86-.67A7.16,7.16,0,0,0,223.4,208.74Z"></path><path d="M223.65,207.7a.89.89,0,0,0-.15.31c2.85,2.85,7.43,3.52,9,1-.76-.31-2.07-.36-3.54-.72C226.62,207.77,224.54,206.59,223.65,207.7Z" fill="#fff"></path><path d="M578.84,312.19c-.57.09-1.21.19-1.89.24s-1.35.05-2,.05c-1.82,0-3.54,0-4.06,1.38a3.08,3.08,0,0,0,.48,2.43,5.39,5.39,0,0,0,4,2.56,7.57,7.57,0,0,0,1.78,0,6.1,6.1,0,0,0,4.38-2.55,4,4,0,0,0,.82-3.15A1.5,1.5,0,0,0,581,312,8.24,8.24,0,0,0,578.84,312.19Z" fill="#f4a57f"></path><path d="M577,313c-2.55.19-5-.33-5.58,1.08-.4,1,1.1,4.73,5.68,4.29,3.2-.32,5.17-3.25,4.72-5C581.47,312,579.54,312.78,577,313Z"></path><path d="M571.47,315.19c.46,1.45,2.16,3.49,5.61,3.15a5.64,5.64,0,0,0,3.69-1.92A7.62,7.62,0,0,0,571.47,315.19Z"></path><path d="M571.4,314.05a.77.77,0,0,0,0,.37c3.8,2,8.66,1.18,9.45-1.86-.87-.07-2.22.29-3.82.41C574.43,313.16,571.94,312.64,571.4,314.05Z" fill="#fff"></path><path d="M581.09,292.17a9.84,9.84,0,0,1,5.77-1.2c1.43.15,2.71.6,2.67,1.71,0,0,.4,1.43-8.77-.33Z"></path><path d="M570.38,292.6a9.84,9.84,0,0,0-5.58-1.9c-1.44,0-2.77.27-2.86,1.38,0,0-.58,1.36,8.74.74Z"></path><path d="M768.42,198a5.25,5.25,0,0,0,3.64-2.6,5.75,5.75,0,0,0,.88-3.2,5.34,5.34,0,0,0-.77-2.91,4.33,4.33,0,0,0-2.29-1.74,4.54,4.54,0,0,0,1.51-1.13,4.4,4.4,0,0,0,.93-2.92,5,5,0,0,0-.92-3,6,6,0,0,0-5.13-2.1h-9.62v19.77h8.91A13.66,13.66,0,0,0,768.42,198Zm-7.76-16H765a7.14,7.14,0,0,1,2.34.3,1.79,1.79,0,0,1,1.07,1.83,1.84,1.84,0,0,1-.82,1.73,3.86,3.86,0,0,1-2.08.5H760.7Zm0,12.9v-5.35h4.81a5.26,5.26,0,0,1,2,.33,2.14,2.14,0,0,1,1.27,2.12,2.47,2.47,0,0,1-1.32,2.47,4.44,4.44,0,0,1-2,.35Z" fill="#fff"></path><path d="M776.29,197a8,8,0,0,0,5.15,1.79,7,7,0,0,0,5.5-2.13,4.75,4.75,0,0,0,1.43-2.64h-3.91a3,3,0,0,1-2.91,1.68,3.92,3.92,0,0,1-2.11-.55,3.49,3.49,0,0,1-1.53-3.09h10.65a18.71,18.71,0,0,0-.11-2.9,7.62,7.62,0,0,0-1.17-3,5.84,5.84,0,0,0-2.54-2.15,8.1,8.1,0,0,0-3.43-.69,7.05,7.05,0,0,0-5.24,2,8,8,0,0,0-2,5.85A7.1,7.1,0,0,0,776.29,197Zm2.73-9.72a3,3,0,0,1,2.29-.83,3.33,3.33,0,0,1,2.26.78,3.17,3.17,0,0,1,1,2.31H778a3.92,3.92,0,0,1,1-2.26Z" fill="#fff"></path><rect x="776.76" y="179.62" width="8.6" height="2" fill="#fff"></rect><path d="M761.83,82.48h6.88V65.25h4.81l.51-5.77h-5.32V56.27c0-1.34.27-1.89,1.6-1.89h3.74v-6h-4.81c-5.13,0-7.44,2.24-7.44,6.57v4.59h-3.61V65.4h3.57Z" fill="#fff"></path><path d="M672.67,122.17a17.54,17.54,0,0,0,27-15.59,12.7,12.7,0,0,0,3.08-3.21,11.82,11.82,0,0,1-3.55,1,6,6,0,0,0,2.71-3.42,12.24,12.24,0,0,1-3.91,1.5,6.19,6.19,0,0,0-10.54,5.64,17.56,17.56,0,0,1-12.73-6.41,6.17,6.17,0,0,0,1.93,8.24,6.16,6.16,0,0,1-2.81-.77,6.17,6.17,0,0,0,5,6.14,6.16,6.16,0,0,1-2.8.1,6.16,6.16,0,0,0,5.78,4.29A12.36,12.36,0,0,1,672.67,122.17Z" fill="#fff"></path><rect x="598.61" y="58.02" width="5.85" height="18.89" fill="#fff"></rect><path d="M601.51,55.55A3.5,3.5,0,1,0,598.05,52h0a3.47,3.47,0,0,0,3.45,3.49h0Z" fill="#fff"></path><path d="M613.86,67c0-2.66,1.22-4.23,3.56-4.23s3.21,1.51,3.21,4.23v9.91h5.82V65c0-5-2.87-7.51-6.86-7.51a6.62,6.62,0,0,0-5.7,3.21V58h-5.61V76.91h5.58Z" fill="#fff"></path><path d="M628.81,174.33c4.14,0,4.62,0,6.25.1A8.68,8.68,0,0,1,638,175a5.16,5.16,0,0,1,2.93,2.95,8.53,8.53,0,0,1,.53,2.87c.08,1.6.1,2.13.1,6.27s0,4.62-.1,6.25a8.53,8.53,0,0,1-.53,2.87,5.16,5.16,0,0,1-3,3,8.64,8.64,0,0,1-2.89.53c-1.6.08-2.12.1-6.25.1s-4.64,0-6.27-.1a8.53,8.53,0,0,1-2.87-.53,5.06,5.06,0,0,1-1.78-1.17,4.66,4.66,0,0,1-1.16-1.78,8.3,8.3,0,0,1-.54-2.87c0-1.6-.08-2.13-.08-6.26s0-4.63.08-6.27a8.3,8.3,0,0,1,.54-2.87,4.66,4.66,0,0,1,1.16-1.78,5.06,5.06,0,0,1,1.78-1.17,8.53,8.53,0,0,1,2.87-.53c1.6-.08,2.13-.09,6.27-.09m0-2.79c-4.22,0-4.73,0-6.42.09a11.46,11.46,0,0,0-3.75.73,7.57,7.57,0,0,0-2.74,1.79,7.39,7.39,0,0,0-1.8,2.74,11.83,11.83,0,0,0-.72,3.76V193.5a11.71,11.71,0,0,0,.72,3.75,7.39,7.39,0,0,0,1.8,2.74,7.73,7.73,0,0,0,2.74,1.8,11.45,11.45,0,0,0,3.75.72c1.61.08,2.18.09,6.42.09s4.73,0,6.41-.09a11.57,11.57,0,0,0,3.77-.72,7.73,7.73,0,0,0,2.74-1.8,7.42,7.42,0,0,0,1.78-2.74,11.19,11.19,0,0,0,.72-3.75c.08-1.61.1-2.19.1-6.42s0-4.81-.1-6.41a11.2,11.2,0,0,0-.72-3.76,7.42,7.42,0,0,0-1.78-2.74,7.57,7.57,0,0,0-2.74-1.79,11.58,11.58,0,0,0-3.77-.73c-1.6,0-2.18-.09-6.41-.09" fill="#fff"></path><path d="M628.81,179.08a8,8,0,1,0,8,8,8,8,0,0,0-8-8m0,13.13A5.18,5.18,0,1,1,634,187h0a5.16,5.16,0,0,1-5.16,5.16h0" fill="#fff"></path><path d="M638.93,178.77a1.86,1.86,0,1,1-1.86-1.86h0a1.85,1.85,0,0,1,1.85,1.85h0" fill="#fff"></path><line x1="724.06" y1="113.27" x2="746.77" y2="113.27" fill="none" stroke="#fff" stroke-linecap="round" stroke-linejoin="round"></line><line x1="724.06" y1="117.95" x2="746.77" y2="117.95" fill="none" stroke="#fff" stroke-linecap="round" stroke-linejoin="round"></line><line x1="724.06" y1="122.62" x2="746.77" y2="122.62" fill="none" stroke="#fff" stroke-linecap="round" stroke-linejoin="round"></line><line x1="724.06" y1="127.28" x2="746.77" y2="127.28" fill="none" stroke="#fff" stroke-linecap="round" stroke-linejoin="round"></line><line x1="651.31" y1="58.53" x2="720.07" y2="58.53" fill="none" stroke="#fff" stroke-linecap="round" stroke-linejoin="round"></line><line x1="643.96" y1="155.99" x2="663.65" y2="136.29" fill="none" stroke="#fff" stroke-linecap="round" stroke-linejoin="round"></line><line x1="768.79" y1="99.92" x2="768.79" y2="149.99" fill="none" stroke="#fff" stroke-linecap="round" stroke-linejoin="round"></line><line x1="668" y1="180.68" x2="690.69" y2="180.68" fill="none" stroke="#fff" stroke-linecap="round" stroke-linejoin="round"></line><line x1="668" y1="185.36" x2="690.69" y2="185.36" fill="none" stroke="#fff" stroke-linecap="round" stroke-linejoin="round"></line><line x1="668" y1="190.03" x2="690.69" y2="190.03" fill="none" stroke="#fff" stroke-linecap="round" stroke-linejoin="round"></line><line x1="668" y1="194.71" x2="690.69" y2="194.71" fill="none" stroke="#fff" stroke-linecap="round" stroke-linejoin="round"></line><line x1="601.92" y1="101.25" x2="624.61" y2="101.25" fill="none" stroke="#fff" stroke-linecap="round" stroke-linejoin="round"></line><line x1="601.92" y1="105.92" x2="624.61" y2="105.92" fill="none" stroke="#fff" stroke-linecap="round" stroke-linejoin="round"></line><line x1="601.92" y1="110.6" x2="624.61" y2="110.6" fill="none" stroke="#fff" stroke-linecap="round" stroke-linejoin="round"></line><line x1="601.92" y1="115.27" x2="624.61" y2="115.27" fill="none" stroke="#fff" stroke-linecap="round" stroke-linejoin="round"></line><line x1="708.72" y1="67.21" x2="731.41" y2="67.21" fill="none" stroke="#fff" stroke-linecap="round" stroke-linejoin="round"></line><line x1="708.72" y1="71.89" x2="731.41" y2="71.89" fill="none" stroke="#fff" stroke-linecap="round" stroke-linejoin="round"></line><line x1="708.72" y1="76.56" x2="731.41" y2="76.56" fill="none" stroke="#fff" stroke-linecap="round" stroke-linejoin="round"></line><line x1="708.72" y1="81.23" x2="731.41" y2="81.23" fill="none" stroke="#fff" stroke-linecap="round" stroke-linejoin="round"></line><line x1="714.06" y1="189.37" x2="736.75" y2="189.37" fill="none" stroke="#fff" stroke-linecap="round" stroke-linejoin="round"></line><line x1="714.06" y1="194.04" x2="736.75" y2="194.04" fill="none" stroke="#fff" stroke-linecap="round" stroke-linejoin="round"></line><line x1="714.06" y1="198.71" x2="736.75" y2="198.71" fill="none" stroke="#fff" stroke-linecap="round" stroke-linejoin="round"></line><line x1="714.06" y1="203.39" x2="736.75" y2="203.39" fill="none" stroke="#fff" stroke-linecap="round" stroke-linejoin="round"></line><line x1="706.6" y1="155.91" x2="719.06" y2="155.01" fill="none" stroke="#fff" stroke-linecap="round" stroke-linejoin="round"></line><line x1="706.15" y1="161.25" x2="719.51" y2="160.8" fill="none" stroke="#fff" stroke-linecap="round" stroke-linejoin="round"></line><line x1="636.55" y1="102.16" x2="649.03" y2="101.26" fill="none" stroke="#fff" stroke-linecap="round" stroke-linejoin="round"></line><line x1="636.1" y1="107.5" x2="649.46" y2="107.05" fill="none" stroke="#fff" stroke-linecap="round" stroke-linejoin="round"></line><line x1="597.47" y1="146.54" x2="609.95" y2="145.66" fill="none" stroke="#fff" stroke-linecap="round" stroke-linejoin="round"></line><line x1="597.02" y1="151.9" x2="610.38" y2="151.45" fill="none" stroke="#fff" stroke-linecap="round" stroke-linejoin="round"></line><path d="M516.24,279a50.47,50.47,0,1,0-19.18,13.23l27.11,11.06Z" fill="#fff"></path><path d="M525.79,305l-28.74-11.72a51.47,51.47,0,1,1,20.32-14.07Zm-28.72-13.88,25.48,10.4-7.44-22.79.39-.43a49.46,49.46,0,1,0-18.8,13Z" fill="#ff6d60" data-secondary="true"></path><circle cx="456.22" cy="246.39" r="5.39" fill="#ff6d60" data-secondary="true"></circle><circle cx="478.77" cy="246.39" r="5.39" fill="#ff6d60" data-secondary="true"></circle><circle cx="501.31" cy="246.39" r="5.39" fill="#ff6d60" data-secondary="true"></circle><path d="M179.5,47.49h99.3A10.28,10.28,0,0,1,289,57.73v42.61a10.27,10.27,0,0,1-10.24,10.24h-9.17L254.73,133l-4.44-22.4H179.5a10.27,10.27,0,0,1-10.24-10.24V57.73A10.27,10.27,0,0,1,179.5,47.49Z" fill="#fff"></path><path d="M254.48,134.29l-4.6-23.19H179.5a10.79,10.79,0,0,1-10.74-10.74V57.73A10.79,10.79,0,0,1,179.5,47h99.3a10.81,10.81,0,0,1,10.7,10.74v42.61a10.79,10.79,0,0,1-10.74,10.74h-8.9ZM179.5,48a9.8,9.8,0,0,0-9.74,9.74v42.63a9.8,9.8,0,0,0,9.74,9.74h71.2L255,131.71l14.34-21.63h9.44a9.8,9.8,0,0,0,9.74-9.74V57.73A9.81,9.81,0,0,0,278.8,48Z" fill="#008e5e" data-primary="true"></path><rect x="186.62" y="62.99" width="85.06" height="4.89" fill="#008e5e" data-primary="true"></rect><rect x="186.62" y="75.88" width="85.06" height="4.89" fill="#008e5e" data-primary="true"></rect><rect x="186.62" y="88.76" width="85.06" height="4.89" fill="#008e5e" data-primary="true"></rect><path d="M255.35,190.66l3.19,6.5,1.43,2.92a8.36,8.36,0,0,0,10.8,4l21.38-6.78-11.53-28.5-21.48,10.67A8.37,8.37,0,0,0,255.35,190.66Z" fill="#008e5e" data-primary="true"></path><g opacity="0.2"><path d="M255.35,190.66l3.19,6.5,1.43,2.92a8.36,8.36,0,0,0,10.8,4l21.38-6.78-11.53-28.5-21.48,10.67A8.37,8.37,0,0,0,255.35,190.66Z"></path></g></svg>