<svg xmlns="http://www.w3.org/2000/svg" viewBox="0 0 362.26 395.3"><defs><style>.cls-1{fill:#ff6d60;}.cls-2{opacity:0.4;}.cls-3{fill:#e0e0e0;}.cls-4{fill:#fed0bc;}.cls-5{fill:#008e5e;}.cls-6{fill:#f4a57f;}.cls-7{opacity:0.2;isolation:isolate;}.cls-8{fill:#fff;}.cls-9{fill:#d1d3d4;}.cls-10{fill:#bcbec0;}.cls-11{fill:#102048;}.cls-12{fill:#373660;}.cls-13{fill:#d3dfff;}</style></defs><title>outcomes</title><g id="Layer_2" data-name="Layer 2"><g id="aa540282-8f0e-488c-abdf-5dd570612af9"><path class="cls-1" d="M.17,242.16c2,33.25,18.78,66.48,46.26,84.77,32.75,21.79,78.54,17,115.84,19.75,32.24,2.4,64.73,4.46,97,1,26.43-2.82,53.09-13.29,65.71-39s14-59.88,1.37-85.91a83.47,83.47,0,0,0-15.8-22c-1-1.06-2.1-2.09-3.19-3.1-.74-.67-1.49-1.33-2.25-2-1.16-1-2.36-2-3.57-2.94l-1.21-.94-1.22-.92-1.24-.9-.93-.66c-.52-.37-1-.73-1.58-1.08a109.32,109.32,0,0,0-14.79-8.37,116,116,0,0,0-15.27-5.94c-17-5.27-34.68-7.14-52.19-9.44-37.15-4.87-75-6.54-112.42-6.51-30.56,0-65,4.58-85.39,30.81C3.76,203.54-1,223.22.17,242.16Z"/><g class="cls-2"><path d="M280.57,179.81a109.32,109.32,0,0,1,14.79,8.37c.54.35,1.06.71,1.58,1.08l.93.66,1.24.9,1.22.92,1.21.94c1.2,1,2.37,1.93,3.52,2.92h0c.76.67,1.51,1.33,2.25,2,1.09,1,2.16,2,3.19,3.1a2.06,2.06,0,0,1-1.58,1.89c-6.15,1.25-9.23,7.11-14.19,10.45a13.61,13.61,0,0,1-12.18,1.71c4.48,9.49,7,18.91,5,29.53a37.5,37.5,0,0,1-3,9.29c5.76-4.28,11.31-13.44,13.59-22.73a2.46,2.46,0,1,1,4.84.89,2.87,2.87,0,0,1-.07.28c-2.82,11.5-10,22.55-17.48,26.88a16.22,16.22,0,0,1-5.37,2,37.18,37.18,0,0,1-5,5.24l-11,3.09-9-58.17Z"/><path d="M88.82,251.46a55.68,55.68,0,0,0-15.34-3.39,9.46,9.46,0,0,0-4.06.35,3.56,3.56,0,0,0-2.41,3c0,1.92,1.88,3.23,3.61,4.07a58.32,58.32,0,0,0,12.16,4.33c-1.83,0-3.65.38-4.53,1.88-1.29,2.22.59,5,2.58,6.58,8.37,6.82,19.58,9.1,32.12,11.31,24.61,4.35,47,3.61,86.33.74l13.52-17.26L134.16,244l-57.4-10.67a66,66,0,0,0-7.53-7.7c-1.56-1.34-4-2.59-5.47-1.17s-.45,3.74.68,5.35C70.74,238.75,79.86,245.2,88.82,251.46Zm0,0Z"/><path d="M273.14,287.47c-9.22-.61-18.27,0-24.85-2.25-7-2.46-25.39-.82-25.39-.82L233,269.86l41,10.24Z"/></g><path class="cls-3" d="M362.26,364.93c0,.14-13,.25-29,.25s-29-.11-29-.25,13-.25,29-.25S362.26,364.75,362.26,364.93Z"/><path class="cls-4" d="M63.08,186S55.2,178.6,51,174.31s4.94-4.42,9.43.92A11.7,11.7,0,0,1,63.08,186Z"/><path class="cls-5" d="M248.56,218.87c22.84-8.9,38.69-18.35,47.89-24.65a18.5,18.5,0,0,0,7.76-18.4l-11.73-68.63A21.17,21.17,0,0,0,280,91.3a209.55,209.55,0,0,0-53.5-15,128.77,128.77,0,0,0-20.69.41c-7.63.76-25.1,5.9-36.2,9.35a21.53,21.53,0,0,0-13.73,12.79c-4.66,12-12.22,32.26-14.63,43.22-8.33,37.82-7,35-7,35l-8.57,58.18L217,240.37l23.35-10.62Z"/><path d="M192,11s8.09-16.59,29.59-9c15.57-3.38,27.45,15.06,16,40.14l-21.61,5Z"/><path class="cls-4" d="M203.48,57.89V87.24a12.45,12.45,0,0,0,12.43,12.43,16.84,16.84,0,0,0,16.85-16.83v-25Z"/><path class="cls-6" d="M203.48,70.07v16c13,.07,21.71-16.81,21.71-16.81Z"/><ellipse class="cls-4" cx="211.47" cy="43.77" rx="23.58" ry="33.79"/><path d="M233.1,48.47s-3.17-12.9-14.23-21.3c0,0-16.08,21-33.08,10.86S176.17,7.92,192,11l18.23-2L233.1,16.3,237,34.22Z"/><path class="cls-7" d="M217,197.17c15.49-33.46,35-17.49,39.8-29.78,6.72-17.22,5.42-36.64,5.46-42.64l9.33,52.54s-20.83,2-28.53,14.52Z"/><path class="cls-5" d="M171.24,115.59c-1.24,5.84-2.38,11.69-3.5,17.55s-2.17,11.73-3.26,17.61-2.06,11.75-3,17.63L160,177.21c-.44,3-.91,5.9-1.32,8.85l.63.11c.64-2.91,1.22-5.84,1.82-8.76l1.71-8.78q1.67-8.79,3.24-17.6c1-5.87,2.07-11.74,3-17.63s1.92-11.77,2.77-17.68Z"/><path class="cls-7" d="M166.92,142.68c-1.1,10.65.54,65.81,26.21,66.63l-.27,12-40.38-2.44Z"/><path class="cls-4" d="M219.69,207.81c-18.23-7.79-21.71-7.5-24.17-7.38-8.4.41-20.48,17.21-20.48,17.21l.21,3.07h46.08Z"/><rect class="cls-8" x="149.57" y="217.71" width="56.73" height="8.6"/><polygon class="cls-9" points="72.44 226.31 171.01 226.31 148.89 138.22 50.32 138.22 72.44 226.31"/><path class="cls-10" d="M63.48,190.28c9.76-1.45,41.29-8,106.28,31.59l1.51,5.46-98.85-1Z"/><path class="cls-4" d="M61.63,209.85c.62,4.15.82,10.24,13.67,9.48l3.79-2-3.61-3.94-7.73-3.94Z"/><path class="cls-4" d="M60.42,198.66s-7,9.19,0,12a40.71,40.71,0,0,0,15,2.77c-3.28-9.22-13.93-8.6-13.93-8.6Z"/><path class="cls-4" d="M60.22,192.75s-9.7,9-.69,11.54c12.73,3.56,16.66,3.82,16.66,3.82.68-6.76-12-11.13-12-11.13Z"/><path class="cls-4" d="M62.2,184.87s-13.25,8-.82,12.56,15.36,4.44,15.36,4.44c.68-6.76-12.63-9.08-12.63-9.08Z"/><path class="cls-6" d="M76.59,202.92c-.6-.08-14.78-2.13-19.26-5.76l1.34-1.65c4,3.26,18.08,5.28,18.22,5.3Z"/><path class="cls-6" d="M76,209.13c-.62-.08-15.32-2.19-20.19-5.57l1.22-1.75c4.45,3.1,19.12,5.19,19.27,5.21Z"/><path class="cls-6" d="M74.48,214.52c-2.57,0-9.16-.22-13.37-2.28l.94-1.91c4.72,2.31,13.33,2,13.42,2l.07,2.13A4.52,4.52,0,0,1,74.48,214.52Z"/><path class="cls-11" d="M215.39,342.56c-1.51-.82-25.26,4.37-51.61-15.15l34-9.69Z"/><path class="cls-12" d="M196.13,237.3s-76.59-36.46-101.58-34.82-24.16,32.77-14.74,46.27S111.35,280.29,192.86,275Z"/><path class="cls-7" d="M196.13,237.3s-76.59-36.46-101.58-34.82-24.16,32.77-14.74,46.27S111.35,280.29,192.86,275Z"/><path class="cls-13" d="M157.8,387.75c4.15,1.17,10,1.46,18.13.17,0,0,10.48,2.72,20.8,4.86,7,1.45,13.9,2.63,17.43,2.51h.91c6.78-.48,15.32-4,19.85-9.06h0a12.55,12.55,0,0,0,2.69-4.49c2.46-7.66-2.73-16.94-30.86-15,0,0-9.28-2.18-11.46-9s13.92-39.59,13.92-39.59l-22.94-15.57-22.52,25s-3.42,22.53-3.42,29.9c0,0-9.55,13.66-10.92,19.66C148.56,380.8,150.48,385.65,157.8,387.75Z"/><path class="cls-5" d="M278.76,177.66c-1.35-.37-2.72-.71-4.11-1q-1-.21-2.1-.36a7.53,7.53,0,0,1-.8-.09c-.25-1.9-.52-3.8-.78-5.7l-1-6.71q-1.07-6.71-2.27-13.39c-.83-4.45-1.6-8.91-2.49-13.35s-1.73-8.88-2.73-13.31l-.68.12c.58,4.49,1.27,9,2,13.44s1.49,8.93,2.23,13.39,1.6,8.92,2.47,13.36l1.34,6.66c.39,1.82.78,3.64,1.19,5.46h-.63a33.3,33.3,0,0,0-8.26,2.21c-2.64,1-5.22,2.13-7.75,3.34s-5,2.54-7.45,4-4.82,2.88-7.15,4.46A76.64,76.64,0,0,0,226.9,201l.48.49a83.23,83.23,0,0,1,6.44-5.28c2.21-1.67,4.5-3.24,6.84-4.72a143,143,0,0,1,14.48-8.17c2.48-1.22,5-2.36,7.58-3.38a38.6,38.6,0,0,1,7.81-2.34,7.4,7.4,0,0,1,.94,0,4.22,4.22,0,0,1,1,.08c.68.07,1.36.17,2,.28,1.36.24,2.72.52,4.07.82,2.71.62,5.4,1.33,8,2.15l.23-.65A82.57,82.57,0,0,0,278.76,177.66Z"/><path class="cls-7" d="M278.76,177.66c-1.35-.37-2.72-.71-4.11-1q-1-.21-2.1-.36a7.53,7.53,0,0,1-.8-.09c-.25-1.9-.52-3.8-.78-5.7l-1-6.71q-1.07-6.71-2.27-13.39c-.83-4.45-1.6-8.91-2.49-13.35s-1.73-8.88-2.73-13.31l-.68.12c.58,4.49,1.27,9,2,13.44s1.49,8.93,2.23,13.39,1.6,8.92,2.47,13.36l1.34,6.66c.39,1.82.78,3.64,1.19,5.46h-.63a33.3,33.3,0,0,0-8.26,2.21c-2.64,1-5.22,2.13-7.75,3.34s-5,2.54-7.45,4-4.82,2.88-7.15,4.46A76.64,76.64,0,0,0,226.9,201l.48.49a83.23,83.23,0,0,1,6.44-5.28c2.21-1.67,4.5-3.24,6.84-4.72a143,143,0,0,1,14.48-8.17c2.48-1.22,5-2.36,7.58-3.38a38.6,38.6,0,0,1,7.81-2.34,7.4,7.4,0,0,1,.94,0,4.22,4.22,0,0,1,1,.08c.68.07,1.36.17,2,.28,1.36.24,2.72.52,4.07.82,2.71.62,5.4,1.33,8,2.15l.23-.65A82.57,82.57,0,0,0,278.76,177.66Z"/><path class="cls-12" d="M272.73,260.64c9.42-15.15,9.42-45-2.46-58.57-13.57-15.45-42.6-21.32-57.79-3.32s-43,84-48.74,128.62c0,0,30.72-10.24,51.61,15.15,0,0,27.44-62.66,33.17-85.6l15.57,12.29Z"/><path class="cls-13" d="M248.56,257s4.1-1.5,9.83,2.32c0,0,44.79-1,54.75,9.15s2.34,23.62-12.28,25.12c-12.27,1.26-36.07-8.25-43.4-11.34a14.35,14.35,0,0,0-4.69-1.11l-12.13-.79Z"/><path class="cls-7" d="M237.72,104.2a47.5,47.5,0,0,1-10.43,5.68A30.63,30.63,0,0,1,215.82,112a25.28,25.28,0,0,1-11.21-2.78l-1.31-.67c-.43-.23-.82-.53-1.23-.79a19.38,19.38,0,0,1-2.39-1.73l-1.15-.93-.58-.47c-.19-.16-.36-.35-.53-.52-.7-.7-1.41-1.4-2.13-2.09l-.49.41c.64.78,1.3,1.56,2,2.33.17.19.32.39.5.57l.56.52,1.11,1.06a20.11,20.11,0,0,0,2.4,1.91c.42.3.82.63,1.25.9l1.35.76a24.57,24.57,0,0,0,11.87,3.15,30.23,30.23,0,0,0,12-2.51,39,39,0,0,0,10.3-6.46Z"/><path class="cls-7" d="M255.35,230.81l-3.55,12.42c-1.2,4.13-2.33,8.28-3.6,12.39s-2.46,8.24-3.76,12.34c-.64,2-1.28,4.1-2,6.12-.35,1-.66,2-1,3.06s-.72,2-1.07,3l.59.25c.91-2,1.77-4,2.58-6s1.54-4,2.28-6.07c1.46-4.07,2.74-8.19,4-12.33s2.35-8.31,3.38-12.5,2-8.38,2.83-12.63Z"/><path d="M194.67,50.47c.29,1.41,1.35,2.39,2.38,2.18s1.62-1.52,1.33-2.93S197,47.33,196,47.53,194.38,49.06,194.67,50.47Z"/><ellipse cx="212.49" cy="49.56" rx="1.89" ry="2.61" transform="translate(-5.21 34.84) rotate(-9.26)"/><ellipse class="cls-4" cx="235.27" cy="48.16" rx="7.18" ry="5.24" transform="translate(98.57 245.6) rotate(-66.87)"/><path class="cls-6" d="M201.73,61.36h0l-.29-.19.15-.19C204,58,204,50.17,204,50.09l.61.17c0,.31,0,7.7-2.37,10.9a9.55,9.55,0,0,0,3.86,1.39l.15.53A10.88,10.88,0,0,1,201.73,61.36Z"/><path class="cls-6" d="M208.32,64.94c-.57.09-1.21.19-1.89.24s-1.35,0-2,0c-1.82,0-3.54,0-4.06,1.38a3.08,3.08,0,0,0,.48,2.43,5.39,5.39,0,0,0,4,2.56,7.57,7.57,0,0,0,1.78,0A6.1,6.1,0,0,0,211,69a4,4,0,0,0,.82-3.15,1.5,1.5,0,0,0-1.35-1.15A8.24,8.24,0,0,0,208.32,64.94Z"/><path d="M206.48,65.75c-2.55.19-5-.33-5.58,1.08-.4,1,1.1,4.73,5.68,4.29,3.2-.32,5.17-3.25,4.72-5C210.95,64.75,209,65.53,206.48,65.75Z"/><path d="M200.95,67.94c.46,1.45,2.16,3.49,5.61,3.15a5.64,5.64,0,0,0,3.69-1.92A7.62,7.62,0,0,0,200.95,67.94Z"/><path class="cls-8" d="M200.88,66.8a.77.77,0,0,0,0,.37c3.8,2,8.66,1.18,9.45-1.86-.87-.07-2.22.29-3.82.41C203.91,65.91,201.42,65.39,200.88,66.8Z"/><path d="M210.57,44.92a9.84,9.84,0,0,1,5.77-1.2c1.43.15,2.71.6,2.67,1.71,0,0,.4,1.43-8.77-.33Z"/><path d="M199.86,45.35a9.84,9.84,0,0,0-5.58-1.9c-1.44,0-2.77.27-2.86,1.38,0,0-.58,1.36,8.74.74Z"/></g></g></svg>