<svg xmlns="http://www.w3.org/2000/svg" viewBox="0 0 188.02 528.72"><defs><style>.cls-1{fill:#373660;}.cls-2,.cls-5{fill:#fff;}.cls-3,.cls-5{opacity:0.2;isolation:isolate;}.cls-4{fill:#fed0bc;}.cls-6{fill:#008e5e;}.cls-7{fill:#f4a57f;}</style></defs><title>ximplians</title><g id="Layer_2" data-name="Layer 2"><g id="a72c5dbb-a84c-4323-8272-804a76f591eb"><path class="cls-1" d="M38.67,215.25l-29-59.57a3.75,3.75,0,0,1,1.72-5l39.15-19.15a3.73,3.73,0,0,1,5,1.7v0l28.82,59.17a3.74,3.74,0,0,1-1.68,5L43.76,217a3.75,3.75,0,0,1-5-1.63Z"/><path class="cls-2" d="M41.3,209.75,14.63,158a1.49,1.49,0,0,1,.66-2l36.56-18.13a1.5,1.5,0,0,1,2,.69L79,190.3a1.49,1.49,0,0,1-.66,2l-35,18.12a1.49,1.49,0,0,1-2-.61Z"/><path class="cls-1" d="M67.74,201.19s16,90.6,21.72,103.87c0,0,35.63,132.68,33,174,0,0,5.69,2.65,17.82,0,0,0,12.88-62.17,8.71-74.3,0,0-4.72-5.6-11.19-12a35.37,35.37,0,0,1-10.4-24.22L126.25,321l-25.79-124.5A75.83,75.83,0,0,1,67.74,201.19Z"/><path class="cls-3" d="M67.74,201.19s16,90.6,21.72,103.87c0,0,35.63,132.68,33,174,0,0,5.69,2.65,17.82,0,0,0,12.88-62.17,8.71-74.3,0,0-4.72-5.6-11.19-12a35.37,35.37,0,0,1-10.4-24.22L126.25,321l-25.79-124.5A75.83,75.83,0,0,1,67.74,201.19Z"/><path class="cls-1" d="M109,188.68s12.65,25.78,26.68,34.12c0,0,19,12.51,4.55,49.28,0,0-14.79,70.13-25.4,92.5a17.08,17.08,0,0,0-1.52,16.3s14.79,32.6,1.52,50.42L89.44,481l-17.06-5.31s16.68-76.2,13.27-94c0,0,4.17-95.15,1.14-125.1,0,0-9.1-16.49-14.41-54.49C72.4,202,95.93,205.77,109,188.68Z"/><path class="cls-4" d="M100.37,73.14s3.12,13.67-1.15,21.63c0,0-7,14.21,2.3,14.21,0,0,14.26,4.6,22.72-18.76,0,0-8.46-12.72-5.37-39.76a8.7,8.7,0,0,1-4.36-.77S114.89,65.39,100.37,73.14Z"/><path class="cls-5" d="M86.18,0h99A2.79,2.79,0,0,1,188,2.79V20.65a10.29,10.29,0,0,1-10.29,10.29h-84A10.29,10.29,0,0,1,83.39,20.65V2.79A2.79,2.79,0,0,1,86.18,0Z"/><path class="cls-4" d="M115.78,45.45c0,16.47-9.9,30.62-22.12,30.62S71.55,61.92,71.55,45.45s9.9-29.83,22.11-29.83S115.78,29,115.78,45.45Z"/><ellipse class="cls-4" cx="118.91" cy="42.12" rx="9.17" ry="5.14" transform="translate(42.54 142.53) rotate(-72.25)"/><path d="M82.22,19.92s-.07,6.18-9,14.21c0,0-7.41,22.71,9,36.84,0,0,8.23,8,18.3,2.83,0,0,2.68,13.58-1.3,21,0,0-19.33,2.56-23.6,10.8,0,0-6.54,0-7.67-10.23l-2,1.7s-1.71,10.24,0,13.36c0,0-11.38.29-21.61-19.33,0,0-5.69,7.11,1.7,17.34,0,0-22.23-8.06-14.59-38.31A37.7,37.7,0,0,1,51.39,45.64l.34-.16s15.27-5,13.89-24c0,0,0-19.34,19.94-15.07,0,0,26.44-14.44,42.37,9.27,0,0,12.51,19.74,33,29.83,0,0,38.66,12.07,22.46,41.93,0,0-1.71-7.4-6.83-8,0,0,1.71,8-.57,14.49,0,0-9.09-8.81-17.91-10.23,0,0,7.11,9.1,5.4,16.21l-11.65,5.68s-.57-13.93-12.8-15.07l-14.79-.27S114.92,75,118.87,50.49c0,0,5.77-3.39,5.57-12.52,0,0-.52-5.22-4.13-4.69,0,0-2.33-.12-5.24,4.68a15.85,15.85,0,0,0-1.64,4.9,21.77,21.77,0,0,0-10-7.38,33,33,0,0,1-10-5.55c-3.55-3-7.59-7.05-9.23-11.43Z"/><path class="cls-6" d="M75.62,105.57,69,125.76s-15.38,6.49-6.23,22.07a10,10,0,0,1,1.33,6c-.56,6.63-1.27,21.75,2.33,34.35a8.16,8.16,0,0,1-.93,6.62c-1.32,2.09-2,4.9,2.25,6.43,0,0,29.36,7.17,41-8.92a4.94,4.94,0,0,1,4.62-2c1.73.22,3.77,0,4.83-2.17a4.81,4.81,0,0,0,0-4.22c-1-2.11-2.36-6.08.74-7.71,0,0,2.81-.76,3.57-9.48l9.86-26.16,3.79,15.54s18.57,2.28,25.77-4.54l-10-46s-.75-14.84-12.8-15.07l-14.9-.25s-6.48,20.94-22.72,18.76c0,0-9.22.29-2.3-14.21C99.22,94.77,82.26,96.38,75.62,105.57Z"/><polygon class="cls-4" points="73.16 482.02 64.25 502.56 70.32 511.09 77.14 509.2 85.86 486.64 73.16 482.02"/><path class="cls-4" d="M124.15,503.13V485.31h14v25.78S122.82,512.8,124.15,503.13Z"/><path class="cls-6" d="M26.91,523.25H80.43V507.81a1.36,1.36,0,0,0-1.15-1.35,3.91,3.91,0,0,0-3.52,1,3.78,3.78,0,0,1-3.23,1.34,5.65,5.65,0,0,1-4.79-4.14s-3.3-7.58-8.61-1.14L45.36,516.08a8.73,8.73,0,0,1-7.16,2.23C34.67,517.76,29.51,518,26.91,523.25Z"/><rect class="cls-1" x="24.26" y="523.22" width="58.38" height="5.5" rx="2.6" ry="2.6"/><path class="cls-6" d="M87.75,523.25h53.52V507.81a1.35,1.35,0,0,0-1.15-1.35,3.89,3.89,0,0,0-3.51,1,3.81,3.81,0,0,1-3.24,1.34,5.65,5.65,0,0,1-4.79-4.14s-3.3-7.58-8.6-1.14L106.2,516.08A8.73,8.73,0,0,1,99,518.31C95.51,517.76,90.35,518,87.75,523.25Z"/><rect class="cls-1" x="85.1" y="523.22" width="58.38" height="5.5" rx="2.6" ry="2.6"/><path class="cls-4" d="M107,143.76l34.65,19.14-2.54-6.57s15.26,1.33,22.76-4.79c0,0,6.14,24.4,7.77,37.33a6,6,0,0,1-6.69,6.75,24.31,24.31,0,0,1-7.11-2.36s-22.11-7.92-54.45-41.91"/><path class="cls-6" d="M.56,155.18l40.38,44.5,7.39,4.26-4.55-7.46-40-44.23a2.21,2.21,0,0,0-3.12-.16l-.08.07h0A2.21,2.21,0,0,0,.56,155.18Z"/><path class="cls-7" d="M83.42,55.8H83v-.35c.4-5.48-3.88-14.88-3.92-15l.6-.28c.18.39,4.22,9.26,4,14.94a7.24,7.24,0,0,0,4-1.34l.43.51A8.25,8.25,0,0,1,83.42,55.8Z"/><ellipse cx="92.94" cy="42.3" rx="2.02" ry="2.97"/><ellipse cx="72.46" cy="48.03" rx="2.01" ry="2.95" transform="translate(-10.04 20.61) rotate(-15.15)"/><path d="M94.79,30.94s-8.17-1.47-8.17,1.94c0,0-.59,2,11.17,0Z"/><path d="M73.2,34.13s4.75-2.76,6.24-1.06c0,0,2,.9-7.19,5.09Z"/><path class="cls-7" d="M100.52,73.8s.48,2.73.74,5.09c0,0,9.12-5.94,10.23-15.51C111.49,63.38,107.38,71.53,100.52,73.8Z"/><polygon class="cls-3" points="126.93 154.77 121.03 151.51 132.29 140.54 126.93 154.77"/><path class="cls-1" d="M68,481.07l1.08-6a1.5,1.5,0,0,1,1.73-1.23l.2,0,20.83,6.51a1.52,1.52,0,0,1,.86,2.2l-4,6.88a1.49,1.49,0,0,1-2,.56l0,0A64.08,64.08,0,0,0,69.1,482.8,1.5,1.5,0,0,1,68,481.07Z"/><path class="cls-1" d="M120.08,486.36l-.88-6a1.51,1.51,0,0,1,1.29-1.71h.18l21.82-.4A1.51,1.51,0,0,1,144,480l-1.6,7.79a1.5,1.5,0,0,1-1.77,1.17h0a62.93,62.93,0,0,0-7.63-1.22,64.1,64.1,0,0,0-11.29-.1A1.51,1.51,0,0,1,120.08,486.36Z"/><path class="cls-3" d="M120.08,486.36l-.88-6a1.51,1.51,0,0,1,1.29-1.71h.18l21.82-.4A1.51,1.51,0,0,1,144,480l-1.6,7.79a1.5,1.5,0,0,1-1.77,1.17h0a62.93,62.93,0,0,0-7.63-1.22,64.1,64.1,0,0,0-11.29-.1A1.51,1.51,0,0,1,120.08,486.36Z"/><path class="cls-4" d="M94.84,148.25a46.31,46.31,0,0,1-4.16-3.09c-1.16-1.09-2.6-2.47-3.44-3.34a22.87,22.87,0,0,1-2.66-3.35c-.94-1.82.79-2.64,2.08-1.13.45.51,1.53,1.7,2.54,2.63s2.42,2.12,3.26,2.74a16.55,16.55,0,0,0,3.83,2.47C96.45,146.09,94.84,148.25,94.84,148.25Z"/><path class="cls-4" d="M95.88,146.5a38.66,38.66,0,0,0-4-4.63c-1.48-1.5-2.77-2.81-3.72-3.79a38.74,38.74,0,0,1-2.73-3.23c-1.42-1.88.22-3.48,2-1.76.47.47,1.82,1.77,3,2.92s2.72,2.68,3.62,3.56c1.62,1.45,4.07,4.14,4.06,4.17C98.52,145.13,95.88,146.5,95.88,146.5Z"/><path class="cls-4" d="M101.5,142.7a41,41,0,0,0-3.82-4.81c-1.43-1.57-2.65-2.95-3.55-4a36.06,36.06,0,0,1-2.58-3.37c-1.33-1.93.38-3.45,2.11-1.64.45.49,1.74,1.85,2.88,3.05s2.59,2.8,3.45,3.73a56.14,56.14,0,0,1,3.86,4.35C104.19,141.46,101.5,142.7,101.5,142.7Z"/><path class="cls-4" d="M97.76,142.92c-1.21-1.11-2.79-2.69-4.19-4.1a52.4,52.4,0,0,1-3.65-4.13c-.9-1.12-1.62-2.07-2.33-2.91-1.51-1.72.57-3.39,2.25-1.74.58.57,1.85,2,2.92,3.15,1.21,1.3,2.31,2.4,3.18,3.24,1.57,1.49,4,4,4,4C100.21,141.71,97.76,142.92,97.76,142.92Z"/><path class="cls-4" d="M103.92,141.48s7.14,10.77,7.3,6.89c.2-4.71-2-9-4.22-12.78-1.65-2.85-2.47-4.88-4-4-1.27.7-.6,3,.94,5.65C105.7,140.18,103.92,141.48,103.92,141.48Z"/><path class="cls-4" d="M104.33,155c-3.16-1.26-8.92-5.54-11.71-8.34a6.47,6.47,0,0,1,1.6-3.57c2.13-2.49,5.82-5.67,7.5-5.55,1.67,1.93,6,5.79,8.43,8.6C114,150.63,107,156.06,104.33,155Z"/><path class="cls-7" d="M11.62,178.08c-.88-3.64-3.19-9-3.72-11.2-.37-1.48,3.09-2.62,4.73.19a22.79,22.79,0,0,1,1.84,3.88l1.75,3.63s4.35.34,6.29,2c1.38,1.14-1.54,6.07-1.54,6.07s-4.78,7.6-6,6.19S12.47,181.61,11.62,178.08Z"/><path class="cls-4" d="M17.53,191.91c3.14.88,5.87,1.67,11.09-1.9a18.85,18.85,0,0,0,5.19-4.76c3.78-5.44-.63-5.78-.63-5.78s.47-4.9-2.75-4a3.42,3.42,0,0,0-3.89-4c-.28-2.32-2.73-3.46-4.18-1.73a40.27,40.27,0,0,0-6,6.62c-2,3-4.24,6.11-3.89,8.1C12.78,186.14,14.44,191,17.53,191.91Z"/><path class="cls-7" d="M30.43,175.5a5.26,5.26,0,0,1,.58-.11c-.46,1.09-1.08,2.45-2.25,2.68a23.68,23.68,0,0,0,1.41-4.57A4.51,4.51,0,0,1,30.43,175.5Z"/><path class="cls-7" d="M33.18,179.47a3.37,3.37,0,0,1,.71.17c-.43,1-1.23,2.43-2.43,2.48a16.67,16.67,0,0,0,1.68-4.28A8.41,8.41,0,0,1,33.18,179.47Z"/><path class="cls-7" d="M26.54,171.51a2.45,2.45,0,0,1,.92,0c-.34.88-1,2.38-2,2.72.25-1.19.62-2.62.86-3.55A3.21,3.21,0,0,1,26.54,171.51Z"/><path class="cls-7" d="M91.87,60.68c-.47.11-1,.23-1.53.32s-1.11.13-1.64.18c-1.49.12-2.9.23-3.24,1.4A2.54,2.54,0,0,0,86,64.53a4.39,4.39,0,0,0,3.43,1.84,6.18,6.18,0,0,0,1.47-.09,5,5,0,0,0,3.42-2.38,3.3,3.3,0,0,0,.46-2.64,1.21,1.21,0,0,0-1.17-.85A6.68,6.68,0,0,0,91.87,60.68Z"/><path d="M90.4,61.44c-2.08.33-4.16.07-4.51,1.26-.25.85,1.22,3.81,4.94,3.14,2.61-.47,4-3,3.54-4.44C94,60.31,92.48,61.12,90.4,61.44Z"/><path class="cls-2" d="M85.89,62.7a1,1,0,0,0,0,.31c3.25,1.36,7.18.39,7.63-2.16-.71,0-1.8.39-3.1.59C88.32,61.77,86.24,61.51,85.89,62.7Z"/></g></g></svg>