<svg xmlns="http://www.w3.org/2000/svg" viewBox="0 0 531.07 173.72"><defs ><style></style></defs><title>Asset 2logo</title><g id="Layer_2" data-name="Layer 2"><g id="ximply"><g id="text"><path id="_." data-name="." class="svg-path" d="M520.42,50.32c-6.93,0-13.48,5.43-14.41,12.17a10.3,10.3,0,0,0,10.48,12.36c6.93,0,13.48-5.62,14.41-12.36C532,55.75,527.35,50.32,520.42,50.32Z" /><path id="y" class="svg-path" d="M503.11,82.37c-2.25-.75-3.56,0-4.31,2.25-4.49,11.61-11,22.28-21.72,29,2.06-14,1.31-8,9.55-60.84A3,3,0,0,0,483.45,49H468.66a4.26,4.26,0,0,0-4.31,3.74L460,80.5c-1.87,11.79-9,26.77-18.53,26.77-6,0-7.3-6-5.62-15.91l6-38.56A3,3,0,0,0,438.71,49h-15a4.26,4.26,0,0,0-4.31,3.74L412.5,97.72c-2.62,15.72,4.12,28.45,21.9,28.45a32.62,32.62,0,0,0,19.09-6c-.37,1.87-.75,3.74-1.12,5.43-26.21,9.36-44.93,13.29-44.93,29,0,10.86,9.17,19.09,23.21,19.09,15.91,0,33.51-10.48,42.49-40.81,18-8,33.51-23,38.94-42.49.94-3.74.56-5.05-1.68-5.8Zm-56,59.72c-2.43,5.24-5.05,7.86-6.93,9.17-4.31,3.18-10.48,3.93-11.61,1.5C427.29,150.13,433.65,146.76,447.13,142.08Z" /><path id="l" class="svg-path" d="M427,84.43l-7.3-2.25c-2.06-.56-3.37-.19-4.31,1.87-8.61,18-18.16,22.84-24.34,22.84-10.11,0-15.16-13.67-15.72-27.52,14.79-3.74,32.39-14.41,41.75-33.7C425.52,28.08,428.89,0,403.62,0c-19.09,0-39.5,22.65-47.36,59-6,27.52-2.62,67.2,29.39,67.2,18.35,0,33.88-13.1,42.31-35.76C429.45,86.67,429.64,85.36,427,84.43ZM377,62.15c4.68-22.09,17.41-42.49,24-42.87,4.87-.19,3.93,11.42-2.06,22.46C393.13,52.79,384.34,59.53,377,62.15Z" /><path id="p" class="svg-path" d="M360.74,82.37c-2.25-.75-3.56,0-4.31,2.25-2.25,6.55-4.87,10.48-8.42,14-5.24,5.05-12.54,9.36-17.41,9.36,4.87-2.81,13.48-12.54,14.6-27.71,1.5-20.22-11.79-33.51-28.83-33.51-12,0-21.34,6.74-26.4,12l.94-6.18c.37-2.06-1.12-3.56-3.37-3.56H272.76a4.26,4.26,0,0,0-4.31,3.74L249.92,170a3.12,3.12,0,0,0,3.18,3.74h14.79a4.21,4.21,0,0,0,4.49-3.93l9.73-62c4.49-28.64,16.66-40.25,27.71-40.25,10.11,0,12.92,9.73,10.3,21-2.25,10.11-8.42,18.72-18,18.72a21.47,21.47,0,0,1-6-.94c-3.93-1.12-5.24-.37-6,1.5l-3.74,8.8c-1.12,2.62-.19,4.12,4.12,5.8,3,1.31,10.3,3.74,22.84,3.74,26,0,48.48-12.17,56.72-37.44.75-2.25-.19-3.56-2.06-4.12Z" /><path id="m" class="svg-path" d="M121.22,120.18a3.12,3.12,0,0,0,3.18,3.74h14.79a4,4,0,0,0,4.31-3.74l1.68-10.86C148,91.73,159,68,169.89,68c4.31,0,5.24,3.93,4.31,10.48l-6.55,41.75a3.12,3.12,0,0,0,3.18,3.74h14.79a4.13,4.13,0,0,0,4.31-3.74l1.68-10.86V109C194.41,92.1,207,68,216.69,68c4.12,0,5.05,4.12,3.93,11.23l-3,18.53c-2.62,15.72,5.8,28.45,21.9,28.45,21,0,32.95-21.72,37.07-37.44.56-2.06.19-3.37-2.06-4.12l-7.3-2.25c-2.25-.75-3.37,0-4.31,2.25-2.81,6.93-9,22.65-17.6,22.65-5.24,0-5.8-6-4.31-15.91l2.06-13.85c2.62-17-2.25-30.7-17.41-30.7-11.23,0-23.4,9-28.45,18.91-.94-11.23-6.74-18.91-18.16-18.91-11.61,0-20.59,8-26.4,15.91l1.5-9.92A3,3,0,0,0,151,49H136.19a4.26,4.26,0,0,0-4.31,3.74Z" /><path id="i" class="svg-path" d="M105.41,15.16c-6.74,0-13.1,5.43-14,12-1.12,6.55,3.56,12,10.3,12a15,15,0,0,0,14.23-12A10.26,10.26,0,0,0,105.41,15.16Zm32.76,69.45-7.11-2.25c-2.25-.56-3.56,0-4.49,2.25-2.62,6.93-9,22.65-17.41,22.65-5.24,0-6-6-4.49-15.91l6.18-38.56A3.12,3.12,0,0,0,107.66,49h-15a4.13,4.13,0,0,0-4.31,3.74L81.26,97.72c-2.43,15.72,5.8,28.45,21.9,28.45,21.15,0,33.13-21.72,37.25-37.44C140.79,86.67,140.42,85.36,138.17,84.61Z" /><path id="x" class="svg-path" d="M74.26,49H61c-2.43,0-4.31,1.12-5.8,3.74l-10.48,17L40.75,58.41C38.88,53,35.14,46.8,25.78,46.8c-8.8,0-14.41,5.43-18.16,16.29-3,9-5.43,16.47-7.3,21.53-.56,1.5-.37,2.62.56,3l9.36,3.56c1.87.75,2.81.37,3.56-1.68l7.3-19.84,6.18,17.6-19.47,32a3,3,0,0,0,2.62,4.68H23.72a6.68,6.68,0,0,0,6.18-3.74l6.55-10.67c5.8,9.73,13.29,16.66,24.34,16.66,18.72,0,31.26-19.84,35.94-37.44.56-1.87.19-3.37-2.06-4.12l-7.3-2.25c-2.43-.56-3.56,0-4.31,2.25-2.62,6.93-9.36,22.65-18,22.65-4.31,0-7.68-4.12-12-14L76.88,54.1C78.38,51.67,77.44,49,74.26,49Z" /></g></g></g></svg>